SplineFontDB: 3.0
FontName: Geneva-Bold-Italic
FullName: Geneva Bold Italic
FamilyName: Geneva
Weight: Bold
Copyright: Copyright 2011 Google Inc. All Rights Reserved.
Version: 2.001150; 2014
DefaultBaseFilename: Geneva-700-Italic
ItalicAngle: -12
UnderlinePosition: -200
UnderlineWidth: 100
Ascent: 1536
Descent: 512
InvalidEm: 0
sfntRevision: 0x00020000
LayerCount: 2
Layer: 0 1 "Back" 1
Layer: 1 1 "Fore" 0
XUID: [1021 805 -1179658985 5264916]
FSType: 0
OS2Version: 3
OS2_WeightWidthSlopeOnly: 0
OS2_UseTypoMetrics: 1
CreationTime: 1221222574
ModificationTime: 1431279838
PfmFamily: 17
TTFWeight: 700
TTFWidth: 5
LineGap: 0
VLineGap: 0
Panose: 2 0 0 0 0 0 0 0 0 0
OS2TypoAscent: 1536
OS2TypoAOffset: 0
OS2TypoDescent: -512
OS2TypoDOffset: 0
OS2TypoLinegap: 102
OS2WinAscent: 1946
OS2WinAOffset: 0
OS2WinDescent: 512
OS2WinDOffset: 0
HheadAscent: 1900
HheadAOffset: 0
HheadDescent: -500
HheadDOffset: 0
OS2SubXSize: 1434
OS2SubYSize: 1331
OS2SubXOff: 0
OS2SubYOff: 287
OS2SupXSize: 1434
OS2SupYSize: 1331
OS2SupXOff: 0
OS2SupYOff: 977
OS2StrikeYSize: 102
OS2StrikeYPos: 512
OS2CapHeight: 1456
OS2XHeight: 1082
OS2Vendor: 'GOOG'
OS2CodePages: 2000019f.00000000
OS2UnicodeRanges: e0000aff.5000217f.00000021.00000000
Lookup: 1 0 0 "'c2sc' Capitals to Small Capitals lookup 0" { "'c2sc' Capitals to Small Capitals lookup 0 subtable"  } ['c2sc' ('DFLT' <'dflt' > 'cyrl' <'dflt' > 'grek' <'dflt' > 'latn' <'AZE ' 'CRT ' 'MOL ' 'NAV ' 'ROM ' 'TUR ' 'dflt' > ) ]
Lookup: 1 0 0 "'smcp' Lowercase to Small Capitals lookup 1" { "'smcp' Lowercase to Small Capitals lookup 1 subtable"  } ['smcp' ('DFLT' <'dflt' > 'cyrl' <'dflt' > 'grek' <'dflt' > 'latn' <'AZE ' 'CRT ' 'MOL ' 'NAV ' 'ROM ' 'TUR ' 'dflt' > ) ]

StartChar: .notdef
Encoding: 65536 -1 0
Width: 918
Flags: W
LayerCount: 2
Back
Fore
SplineSet
808 0 m 1,0,-1
 100 0 l 1,1,-1
 100 1456 l 1,2,-1
 808 1456 l 1,3,-1
 808 0 l 1,0,-1
754 84 m 1,4,-1
 754 1371 l 1,5,-1
 480 728 l 1,6,-1
 754 84 l 1,4,-1
154 1359 m 1,7,-1
 154 96 l 1,8,-1
 422 728 l 1,9,-1
 154 1359 l 1,7,-1
194 54 m 1,10,-1
 709 54 l 1,11,-1
 451 660 l 1,12,-1
 194 54 l 1,10,-1
451 796 m 1,13,-1
 709 1402 l 1,14,-1
 194 1402 l 1,15,-1
 451 796 l 1,13,-1
EndSplineSet
EndChar

StartChar: exclam
Encoding: 33 33 5
Width: 550
Flags: W
LayerCount: 2
Back
Fore
SplineSet
369 447 m 1,0,-1
 134 447 l 1,1,-1
 276 1456 l 1,2,-1
 577 1456 l 1,3,-1
 369 447 l 1,0,-1
41 131 m 0,4,5
 39 197 39 197 83 242.5 c 128,-1,6
 127 288 127 288 195 290 c 0,7,8
 259 292 259 292 306 250.5 c 128,-1,9
 353 209 353 209 355 142 c 0,10,11
 357 76 357 76 313 30 c 128,-1,12
 269 -16 269 -16 200 -18 c 0,13,14
 130 -18 130 -18 85.5 26 c 128,-1,15
 41 70 41 70 41 131 c 0,4,5
EndSplineSet
EndChar

StartChar: quotedbl
Encoding: 34 34 6
Width: 647
Flags: W
LayerCount: 2
Back
Fore
SplineSet
381 1382 m 1,0,-1
 282 987 l 1,1,-1
 121 987 l 1,2,-1
 208 1536 l 1,3,-1
 406 1536 l 1,4,-1
 381 1382 l 1,0,-1
697 1382 m 1,5,-1
 598 987 l 1,6,-1
 438 987 l 1,7,-1
 524 1536 l 1,8,-1
 721 1536 l 1,9,-1
 697 1382 l 1,5,-1
EndSplineSet
EndChar

StartChar: numbersign
Encoding: 35 35 7
Width: 1193
Flags: W
LayerCount: 2
Back
Fore
SplineSet
611 410 m 1,0,-1
 432 410 l 1,1,-1
 290 0 l 1,2,-1
 104 0 l 1,3,-1
 246 410 l 1,4,-1
 28 410 l 1,5,-1
 58 582 l 1,6,-1
 305 582 l 1,7,-1
 402 866 l 1,8,-1
 180 866 l 1,9,-1
 211 1040 l 1,10,-1
 462 1040 l 1,11,-1
 606 1456 l 1,12,-1
 790 1456 l 1,13,-1
 647 1040 l 1,14,-1
 827 1040 l 1,15,-1
 970 1456 l 1,16,-1
 1156 1456 l 1,17,-1
 1013 1040 l 1,18,-1
 1222 1040 l 1,19,-1
 1192 866 l 1,20,-1
 953 866 l 1,21,-1
 855 582 l 1,22,-1
 1069 582 l 1,23,-1
 1039 410 l 1,24,-1
 796 410 l 1,25,-1
 655 0 l 1,26,-1
 469 0 l 1,27,-1
 611 410 l 1,0,-1
490 582 m 1,28,-1
 669 582 l 1,29,-1
 767 866 l 1,30,-1
 587 866 l 1,31,-1
 490 582 l 1,28,-1
EndSplineSet
EndChar

StartChar: dollar
Encoding: 36 36 8
Width: 1150
Flags: W
LayerCount: 2
Back
Fore
SplineSet
737 390 m 0,0,1
 747 460 747 460 714 511 c 128,-1,2
 681 562 681 562 578.5 608 c 128,-1,3
 476 654 476 654 409 699 c 0,4,5
 204 837 204 837 219 1062 c 0,6,7
 230 1234 230 1234 348 1343.5 c 128,-1,8
 466 1453 466 1453 657 1473 c 1,9,-1
 698 1687 l 1,10,-1
 855 1687 l 1,11,-1
 813 1467 l 1,12,13
 965 1435 965 1435 1044.5 1315 c 128,-1,14
 1124 1195 1124 1195 1119 1004 c 1,15,-1
 836 1005 l 1,16,17
 848 1241 848 1241 697 1244 c 0,18,19
 618 1246 618 1246 564 1195.5 c 128,-1,20
 510 1145 510 1145 499 1063 c 0,21,22
 490 999 490 999 521.5 950 c 128,-1,23
 553 901 553 901 642.5 858 c 128,-1,24
 732 815 732 815 793 778 c 0,25,26
 1032 634 1032 634 1016 392 c 0,27,28
 1005 218 1005 218 887.5 111 c 128,-1,29
 770 4 770 4 576 -16 c 1,30,-1
 537 -215 l 1,31,-1
 381 -215 l 1,32,-1
 420 -15 l 1,33,34
 244 11 244 11 151.5 136.5 c 128,-1,35
 59 262 59 262 65 458 c 1,36,-1
 347 457 l 1,37,38
 342 336 342 336 386.5 275 c 128,-1,39
 431 214 431 214 520 212 c 0,40,41
 605 210 605 210 665 259.5 c 128,-1,42
 725 309 725 309 737 390 c 0,0,1
EndSplineSet
Substitution2: "'c2sc' Capitals to Small Capitals lookup 0 subtable" dollar.c2sc
Position2: "'cpsp' Capital Spacing lookup 0 subtable" dx=36 dy=0 dh=72 dv=0
EndChar

StartChar: percent
Encoding: 37 37 9
Width: 1477
Flags: W
LayerCount: 2
Back
Fore
SplineSet
525 1478 m 0,0,1
 659 1474 659 1474 736.5 1389 c 128,-1,2
 814 1304 814 1304 806 1176 c 2,3,-1
 800 1099 l 2,4,5
 786 962 786 962 692 879 c 128,-1,6
 598 796 598 796 465 800 c 0,7,8
 335 802 335 802 256.5 885 c 128,-1,9
 178 968 178 968 184 1099 c 2,10,-1
 189 1166 l 2,11,12
 200 1308 200 1308 292.5 1394 c 128,-1,13
 385 1480 385 1480 525 1478 c 0,0,1
373 1095 m 2,14,15
 368 1039 368 1039 391.5 1003 c 128,-1,16
 415 967 415 967 466 965 c 128,-1,17
 517 963 517 963 556.5 999.5 c 128,-1,18
 596 1036 596 1036 608 1099 c 2,19,-1
 618 1177 l 2,20,21
 625 1236 625 1236 600.5 1272.5 c 128,-1,22
 576 1309 576 1309 526 1311 c 0,23,24
 471 1313 471 1313 431.5 1274 c 128,-1,25
 392 1235 392 1235 383 1176 c 2,26,-1
 373 1095 l 2,14,15
723 357 m 2,27,28
 735 493 735 493 829 576.5 c 128,-1,29
 923 660 923 660 1059 658 c 0,30,31
 1192 654 1192 654 1270 570 c 128,-1,32
 1348 486 1348 486 1340 357 c 2,33,-1
 1335 290 l 2,34,35
 1324 145 1324 145 1229.5 60 c 128,-1,36
 1135 -25 1135 -25 999 -21 c 0,37,38
 871 -19 871 -19 790.5 64.5 c 128,-1,39
 710 148 710 148 718 279 c 2,40,-1
 723 357 l 2,27,28
904 277 m 2,41,42
 899 222 899 222 925 184.5 c 128,-1,43
 951 147 951 147 999 145 c 0,44,45
 1057 143 1057 143 1094 179 c 128,-1,46
 1131 215 1131 215 1142 279 c 2,47,-1
 1152 359 l 2,48,49
 1159 418 1159 418 1134 453.5 c 128,-1,50
 1109 489 1109 489 1060 491 c 0,51,52
 1006 493 1006 493 966.5 456.5 c 128,-1,53
 927 420 927 420 915 357 c 2,54,-1
 904 277 l 2,41,42
386 111 m 1,55,-1
 247 196 l 1,56,-1
 1125 1320 l 1,57,-1
 1262 1237 l 1,58,-1
 386 111 l 1,55,-1
EndSplineSet
EndChar

StartChar: ampersand
Encoding: 38 38 10
Width: 1314
Flags: W
LayerCount: 2
Back
Fore
SplineSet
41 385 m 0,0,1
 51 568 51 568 258 710 c 1,2,-1
 356 773 l 1,3,-1
 316 863 l 2,4,5
 264 989 264 989 271 1086 c 0,6,7
 279 1201 279 1201 336 1291.5 c 128,-1,8
 393 1382 393 1382 488 1430.5 c 128,-1,9
 583 1479 583 1479 695 1476 c 0,10,11
 842 1472 842 1472 936 1378.5 c 128,-1,12
 1030 1285 1030 1285 1024 1145 c 0,13,14
 1014 956 1014 956 797 813 c 2,15,-1
 683 738 l 1,16,-1
 871 456 l 1,17,18
 955 576 955 576 972 714 c 1,19,-1
 1211 714 l 1,20,21
 1192 432 1192 432 1018 249 c 1,22,-1
 1186 0 l 1,23,-1
 884 0 l 1,24,-1
 829 84 l 1,25,26
 649 -23 649 -23 458 -19 c 0,27,28
 268 -17 268 -17 149 95.5 c 128,-1,29
 30 208 30 208 41 385 c 0,0,1
480 213 m 0,30,31
 567 210 567 210 689 272 c 1,32,-1
 475 602 l 1,33,-1
 451 586 l 1,34,35
 345 507 345 507 330 399 c 0,36,37
 319 316 319 316 362 265.5 c 128,-1,38
 405 215 405 215 480 213 c 0,30,31
518 1090 m 0,39,40
 514 1066 514 1066 517 1043 c 0,41,42
 524 990 524 990 566 909 c 1,43,-1
 648 959 l 2,44,45
 772 1034 772 1034 781 1128 c 0,46,47
 787 1178 787 1178 758.5 1211 c 128,-1,48
 730 1244 730 1244 681 1244 c 0,49,50
 619 1246 619 1246 573 1201 c 128,-1,51
 527 1156 527 1156 518 1090 c 0,39,40
EndSplineSet
EndChar

StartChar: quotesingle
Encoding: 39 39 11
Width: 331
Flags: W
LayerCount: 2
Back
Fore
SplineSet
389 1373 m 1,0,-1
 301 985 l 1,1,-1
 120 985 l 1,2,-1
 207 1536 l 1,3,-1
 414 1536 l 1,4,-1
 389 1373 l 1,0,-1
EndSplineSet
EndChar

StartChar: parenleft
Encoding: 40 40 12
Width: 707
Flags: W
LayerCount: 2
Back
Fore
SplineSet
122 588 m 1,0,1
 170 945 170 945 335.5 1226.5 c 128,-1,2
 501 1508 501 1508 751 1619 c 1,3,-1
 799 1458 l 1,4,5
 457 1197 457 1197 366 619 c 0,6,7
 335 423 335 423 333 267 c 0,8,9
 328 -144 328 -144 521 -304 c 1,10,-1
 458 -455 l 1,11,12
 242 -335 242 -335 156 -40 c 0,13,14
 99 158 99 158 105 384 c 0,15,16
 107 479 107 479 118 564 c 2,17,-1
 122 588 l 1,0,1
EndSplineSet
EndChar

StartChar: parenright
Encoding: 41 41 13
Width: 710
Flags: W
LayerCount: 2
Back
Fore
SplineSet
-56 -458 m 1,0,-1
 -104 -300 l 1,1,2
 239 -35 239 -35 329 548 c 0,3,4
 358 735 358 735 360 893 c 0,5,6
 365 1304 365 1304 174 1465 c 1,7,-1
 237 1616 l 1,8,9
 355 1552 355 1552 439.5 1429.5 c 128,-1,10
 524 1307 524 1307 564.5 1134 c 128,-1,11
 605 961 605 961 603 778 c 0,12,13
 597 500 597 500 507 237.5 c 128,-1,14
 417 -25 417 -25 271.5 -203 c 128,-1,15
 126 -381 126 -381 -56 -458 c 1,0,-1
EndSplineSet
EndChar

StartChar: asterisk
Encoding: 42 42 14
Width: 910
Flags: W
LayerCount: 2
Back
Fore
SplineSet
392 966 m 1,0,-1
 100 1058 l 1,1,-1
 185 1228 l 1,2,-1
 472 1100 l 1,3,-1
 515 1456 l 1,4,-1
 707 1456 l 1,5,-1
 627 1109 l 1,6,-1
 934 1227 l 1,7,-1
 960 1034 l 1,8,-1
 632 945 l 1,9,-1
 793 673 l 1,10,-1
 632 569 l 1,11,-1
 506 862 l 1,12,-1
 284 584 l 1,13,-1
 135 703 l 1,14,-1
 392 966 l 1,0,-1
EndSplineSet
EndChar

StartChar: plus
Encoding: 43 43 15
Width: 1094
Flags: W
LayerCount: 2
Back
Fore
SplineSet
712 815 m 1,0,-1
 1062 815 l 1,1,-1
 1016 554 l 1,2,-1
 667 554 l 1,3,-1
 596 146 l 1,4,-1
 327 146 l 1,5,-1
 398 554 l 1,6,-1
 46 554 l 1,7,-1
 92 815 l 1,8,-1
 443 815 l 1,9,-1
 511 1206 l 1,10,-1
 780 1206 l 1,11,-1
 712 815 l 1,0,-1
EndSplineSet
EndChar

StartChar: comma
Encoding: 44 44 16
Width: 495
Flags: W
LayerCount: 2
Back
Fore
SplineSet
31 -365 m 1,0,-1
 -118 -284 l 1,1,-1
 -45 -167 l 2,2,3
 19 -60 19 -60 37 34 c 2,4,-1
 74 246 l 1,5,-1
 312 246 l 1,6,-1
 283 62 l 2,7,8
 242 -197 242 -197 31 -365 c 1,0,-1
EndSplineSet
EndChar

StartChar: hyphen
Encoding: 45 45 17
Width: 780
Flags: W
LayerCount: 2
Back
Fore
SplineSet
638 507 m 1,0,-1
 90 507 l 1,1,-1
 130 740 l 1,2,-1
 679 740 l 1,3,-1
 638 507 l 1,0,-1
EndSplineSet
EndChar

StartChar: period
Encoding: 46 46 18
Width: 587
Flags: W
LayerCount: 2
Back
Fore
SplineSet
200 298 m 0,0,1
 267 300 267 300 314.5 256.5 c 128,-1,2
 362 213 362 213 362 147 c 0,3,4
 364 81 364 81 318 34.5 c 128,-1,5
 272 -12 272 -12 205 -12 c 0,6,7
 138 -14 138 -14 92 28 c 128,-1,8
 46 70 46 70 44 137 c 128,-1,9
 42 204 42 204 87 250 c 128,-1,10
 132 296 132 296 200 298 c 0,0,1
EndSplineSet
EndChar

StartChar: slash
Encoding: 47 47 19
Width: 752
Flags: W
LayerCount: 2
Back
Fore
SplineSet
77 -125 m 1,0,-1
 -145 -125 l 1,1,-1
 649 1456 l 1,2,-1
 872 1456 l 1,3,-1
 77 -125 l 1,0,-1
EndSplineSet
Substitution2: "'frac' Diagonal Fractions lookup 21 subtable" fraction
EndChar

StartChar: zero
Encoding: 48 48 20
Width: 1150
Flags: W
LayerCount: 2
Back
Fore
SplineSet
485 -20 m 0,0,1
 296 -16 296 -16 193 108 c 128,-1,2
 90 232 90 232 87 454 c 0,3,4
 86 528 86 528 95 602 c 2,5,-1
 136 875 l 1,6,7
 185 1173 185 1173 329 1327 c 128,-1,8
 473 1481 473 1481 698 1476 c 0,9,10
 887 1472 887 1472 990.5 1348.5 c 128,-1,11
 1094 1225 1094 1225 1097 1004 c 0,12,13
 1098 929 1098 929 1089 855 c 2,14,-1
 1047 584 l 2,15,16
 997 284 997 284 854.5 129.5 c 128,-1,17
 712 -25 712 -25 485 -20 c 0,0,1
824 1038 m 0,18,19
 824 1237 824 1237 684 1244 c 0,20,21
 482 1253 482 1253 427 936 c 1,22,-1
 377 598 l 2,23,24
 361 492 361 492 361 422 c 0,25,26
 356 219 356 219 500 212 c 0,27,28
 703 199 703 199 758 529 c 1,29,-1
 811 885 l 2,30,31
 824 972 824 972 824 1038 c 0,18,19
EndSplineSet
Substitution2: "Single Substitution lookup 26 subtable" zero.dnom
Substitution2: "'numr' Numerators lookup 25 subtable" zero.frac
Substitution2: "'dnom' Denominators lookup 24 subtable" zero.dnom
Substitution2: "'frac' Diagonal Fractions lookup 23 subtable" zero.frac
Substitution2: "'pnum' Proportional Numbers lookup 19 subtable" zero.pnum
Substitution2: "'onum' Oldstyle Figures lookup 17 subtable" zero.oldstyle
EndChar

StartChar: one
Encoding: 49 49 21
Width: 1150
Flags: W
LayerCount: 2
Back
Fore
SplineSet
674 0 m 1,0,-1
 392 0 l 1,1,-1
 584 1108 l 1,2,-1
 230 1001 l 1,3,-1
 274 1248 l 1,4,-1
 882 1458 l 1,5,-1
 919 1459 l 1,6,-1
 674 0 l 1,0,-1
EndSplineSet
Substitution2: "Single Substitution lookup 26 subtable" one.dnom
Substitution2: "'numr' Numerators lookup 25 subtable" uni00B9
Substitution2: "'dnom' Denominators lookup 24 subtable" one.dnom
Substitution2: "'frac' Diagonal Fractions lookup 23 subtable" uni00B9
Substitution2: "'pnum' Proportional Numbers lookup 19 subtable" one.pnum
Substitution2: "'onum' Oldstyle Figures lookup 17 subtable" one.oldstyle
EndChar

StartChar: two
Encoding: 50 50 22
Width: 1150
Flags: W
LayerCount: 2
Back
Fore
SplineSet
971 0 m 1,0,-1
 1 0 l 1,1,-1
 34 210 l 1,2,-1
 551 695 l 2,3,4
 710 844 710 844 762 937 c 128,-1,5
 814 1030 814 1030 801 1119 c 0,6,7
 780 1243 780 1243 658 1246 c 0,8,9
 562 1248 562 1248 497.5 1179 c 128,-1,10
 433 1110 433 1110 419 998 c 1,11,-1
 137 997 l 1,12,13
 145 1133 145 1133 218 1244 c 128,-1,14
 291 1355 291 1355 412.5 1416.5 c 128,-1,15
 534 1478 534 1478 675 1477 c 0,16,17
 878 1473 878 1473 991 1363 c 128,-1,18
 1104 1253 1104 1253 1091 1070 c 0,19,20
 1075 864 1075 864 848 640 c 1,21,-1
 704 503 l 1,22,-1
 406 235 l 1,23,-1
 1008 233 l 1,24,-1
 971 0 l 1,0,-1
EndSplineSet
Substitution2: "Single Substitution lookup 26 subtable" two.dnom
Substitution2: "'numr' Numerators lookup 25 subtable" uni00B2
Substitution2: "'dnom' Denominators lookup 24 subtable" two.dnom
Substitution2: "'frac' Diagonal Fractions lookup 23 subtable" uni00B2
Substitution2: "'pnum' Proportional Numbers lookup 19 subtable" two.pnum
Substitution2: "'onum' Oldstyle Figures lookup 17 subtable" two.oldstyle
EndChar

StartChar: three
Encoding: 51 51 23
Width: 1150
Flags: W
LayerCount: 2
Back
Fore
SplineSet
422 856 m 1,0,-1
 557 855 l 2,1,2
 660 855 660 855 729.5 912 c 128,-1,3
 799 969 799 969 810 1065 c 0,4,5
 820 1146 820 1146 779 1194.5 c 128,-1,6
 738 1243 738 1243 656 1245 c 128,-1,7
 574 1247 574 1247 515.5 1200.5 c 128,-1,8
 457 1154 457 1154 444 1080 c 1,9,-1
 162 1078 l 1,10,11
 171 1254 171 1254 313.5 1366.5 c 128,-1,12
 456 1479 456 1479 660 1477 c 0,13,14
 866 1473 866 1473 986 1362 c 128,-1,15
 1106 1251 1106 1251 1095 1068 c 0,16,17
 1081 860 1081 860 830 742 c 1,18,19
 928 695 928 695 973.5 608.5 c 128,-1,20
 1019 522 1019 522 1013 416 c 0,21,22
 1006 284 1006 284 932 184 c 128,-1,23
 858 84 858 84 734 30.5 c 128,-1,24
 610 -23 610 -23 466 -20 c 0,25,26
 271 -18 271 -18 148 97 c 128,-1,27
 25 212 25 212 27 400 c 1,28,-1
 307 400 l 1,29,30
 305 319 305 319 352.5 267.5 c 128,-1,31
 400 216 400 216 485 214 c 0,32,33
 583 212 583 212 653 269.5 c 128,-1,34
 723 327 723 327 735 420 c 0,35,36
 748 520 748 520 699.5 573 c 128,-1,37
 651 626 651 626 552 629 c 2,38,-1
 386 630 l 1,39,-1
 422 856 l 1,0,-1
EndSplineSet
Substitution2: "Single Substitution lookup 26 subtable" three.dnom
Substitution2: "'numr' Numerators lookup 25 subtable" uni00B3
Substitution2: "'dnom' Denominators lookup 24 subtable" three.dnom
Substitution2: "'frac' Diagonal Fractions lookup 23 subtable" uni00B3
Substitution2: "'pnum' Proportional Numbers lookup 19 subtable" three.pnum
Substitution2: "'onum' Oldstyle Figures lookup 17 subtable" three.oldstyle
EndChar

StartChar: four
Encoding: 52 52 24
Width: 1150
Flags: W
LayerCount: 2
Back
Fore
SplineSet
918 548 m 1,0,-1
 1078 548 l 1,1,-1
 1037 315 l 1,2,-1
 877 315 l 1,3,-1
 822 0 l 1,4,-1
 540 0 l 1,5,-1
 595 315 l 1,6,-1
 17 315 l 1,7,-1
 37 512 l 1,8,-1
 780 1456 l 1,9,-1
 1075 1456 l 1,10,-1
 918 548 l 1,0,-1
330 550 m 1,11,-1
 636 548 l 1,12,-1
 735 1066 l 1,13,-1
 709 1030 l 1,14,-1
 330 550 l 1,11,-1
EndSplineSet
Substitution2: "Single Substitution lookup 26 subtable" four.dnom
Substitution2: "'numr' Numerators lookup 25 subtable" four.frac
Substitution2: "'dnom' Denominators lookup 24 subtable" four.dnom
Substitution2: "'frac' Diagonal Fractions lookup 23 subtable" four.frac
Substitution2: "'pnum' Proportional Numbers lookup 19 subtable" four.pnum
Substitution2: "'onum' Oldstyle Figures lookup 17 subtable" four.oldstyle
EndChar

StartChar: five
Encoding: 53 53 25
Width: 1150
Flags: W
LayerCount: 2
Back
Fore
SplineSet
154 720 m 1,0,-1
 350 1456 l 1,1,-1
 1146 1456 l 1,2,-1
 1108 1215 l 1,3,-1
 549 1215 l 1,4,-1
 453 900 l 1,5,6
 542 956 542 956 663 956 c 0,7,8
 850 956 850 956 952.5 823.5 c 128,-1,9
 1055 691 1055 691 1039 474 c 0,10,11
 1027 330 1027 330 954.5 215 c 128,-1,12
 882 100 882 100 764 38 c 128,-1,13
 646 -24 646 -24 504 -21 c 0,14,15
 381 -20 381 -20 280.5 35.5 c 128,-1,16
 180 91 180 91 124 188.5 c 128,-1,17
 68 286 68 286 67 406 c 1,18,-1
 344 406 l 1,19,20
 348 317 348 317 393 266.5 c 128,-1,21
 438 216 438 216 515 214 c 0,22,23
 615 211 615 211 679.5 287 c 128,-1,24
 744 363 744 363 757 491 c 0,25,26
 769 605 769 605 722.5 671 c 128,-1,27
 676 737 676 737 581 739 c 0,28,29
 475 741 475 741 385 661 c 1,30,-1
 154 720 l 1,0,-1
EndSplineSet
Substitution2: "Single Substitution lookup 26 subtable" five.dnom
Substitution2: "'numr' Numerators lookup 25 subtable" five.frac
Substitution2: "'dnom' Denominators lookup 24 subtable" five.dnom
Substitution2: "'frac' Diagonal Fractions lookup 23 subtable" five.frac
Substitution2: "'pnum' Proportional Numbers lookup 19 subtable" five.pnum
Substitution2: "'onum' Oldstyle Figures lookup 17 subtable" five.oldstyle
EndChar

StartChar: six
Encoding: 54 54 26
Width: 1150
Flags: W
LayerCount: 2
Back
Fore
SplineSet
991 1472 m 1,0,-1
 969 1233 l 1,1,-1
 914 1232 l 1,2,3
 571 1214 571 1214 419 854 c 1,4,5
 544 977 544 977 712 973 c 0,6,7
 830 971 830 971 911.5 907 c 128,-1,8
 993 843 993 843 1031 732 c 128,-1,9
 1069 621 1069 621 1058 487 c 0,10,11
 1046 344 1046 344 972.5 225.5 c 128,-1,12
 899 107 899 107 780 41.5 c 128,-1,13
 661 -24 661 -24 523 -21 c 0,14,15
 380 -17 380 -17 277.5 59.5 c 128,-1,16
 175 136 175 136 128 269 c 128,-1,17
 81 402 81 402 97 559 c 2,18,-1
 108 649 l 2,19,20
 155 1025 155 1025 383.5 1248.5 c 128,-1,21
 612 1472 612 1472 953 1472 c 2,22,-1
 991 1472 l 1,0,-1
616 743 m 0,23,24
 543 745 543 745 485 707 c 128,-1,25
 427 669 427 669 389 610 c 1,26,-1
 376 520 l 2,27,28
 371 475 371 475 372 422 c 0,29,30
 374 328 374 328 415 271 c 128,-1,31
 456 214 456 214 531 213 c 0,32,33
 605 210 605 210 666 261 c 128,-1,34
 727 312 727 312 756 398 c 128,-1,35
 785 484 785 484 775 573 c 0,36,37
 766 651 766 651 724.5 696.5 c 128,-1,38
 683 742 683 742 616 743 c 0,23,24
EndSplineSet
Substitution2: "Single Substitution lookup 26 subtable" six.dnom
Substitution2: "'numr' Numerators lookup 25 subtable" six.frac
Substitution2: "'dnom' Denominators lookup 24 subtable" six.dnom
Substitution2: "'frac' Diagonal Fractions lookup 23 subtable" six.frac
EndChar

StartChar: seven
Encoding: 55 55 27
Width: 1150
Flags: W
LayerCount: 2
Back
Fore
SplineSet
1164 1279 m 1,0,-1
 424 0 l 1,1,-1
 113 0 l 1,2,-1
 851 1222 l 1,3,-1
 155 1222 l 1,4,-1
 192 1456 l 1,5,-1
 1191 1456 l 1,6,-1
 1164 1279 l 1,0,-1
EndSplineSet
Substitution2: "Single Substitution lookup 26 subtable" seven.dnom
Substitution2: "'numr' Numerators lookup 25 subtable" seven.frac
Substitution2: "'dnom' Denominators lookup 24 subtable" seven.dnom
Substitution2: "'frac' Diagonal Fractions lookup 23 subtable" seven.frac
Substitution2: "'pnum' Proportional Numbers lookup 19 subtable" seven.pnum
Substitution2: "'onum' Oldstyle Figures lookup 17 subtable" seven.oldstyle
EndChar

StartChar: eight
Encoding: 56 56 28
Width: 1150
Flags: W
LayerCount: 2
Back
Fore
SplineSet
1104 1077 m 0,0,1
 1090 864 1090 864 854 744 c 1,2,3
 939 685 939 685 981 598 c 128,-1,4
 1023 511 1023 511 1016 408 c 0,5,6
 1005 212 1005 212 857 94 c 128,-1,7
 709 -24 709 -24 491 -20 c 0,8,9
 292 -18 292 -18 171.5 94 c 128,-1,10
 51 206 51 206 62 390 c 0,11,12
 76 632 76 632 347 756 c 1,13,14
 200 873 200 873 210 1061 c 0,15,16
 217 1185 217 1185 283 1281 c 128,-1,17
 349 1377 349 1377 460.5 1428 c 128,-1,18
 572 1479 572 1479 704 1476 c 0,19,20
 893 1472 893 1472 1004 1363.5 c 128,-1,21
 1115 1255 1115 1255 1104 1077 c 0,0,1
738 428 m 0,22,23
 749 514 749 514 707 571 c 128,-1,24
 665 628 665 628 583 630 c 0,25,26
 492 632 492 632 426.5 571 c 128,-1,27
 361 510 361 510 348 411 c 0,28,29
 337 325 337 325 378.5 269.5 c 128,-1,30
 420 214 420 214 504 212 c 0,31,32
 596 210 596 210 660.5 270 c 128,-1,33
 725 330 725 330 738 428 c 0,22,23
819 1063 m 0,34,35
 828 1145 828 1145 793 1193.5 c 128,-1,36
 758 1242 758 1242 689 1244 c 0,37,38
 610 1246 610 1246 555 1191.5 c 128,-1,39
 500 1137 500 1137 489 1047 c 0,40,41
 480 966 480 966 513.5 914.5 c 128,-1,42
 547 863 547 863 618 861 c 0,43,44
 696 859 696 859 752 915.5 c 128,-1,45
 808 972 808 972 819 1063 c 0,34,35
EndSplineSet
Substitution2: "Single Substitution lookup 26 subtable" eight.dnom
Substitution2: "'numr' Numerators lookup 25 subtable" eight.frac
Substitution2: "'dnom' Denominators lookup 24 subtable" eight.dnom
Substitution2: "'frac' Diagonal Fractions lookup 23 subtable" eight.frac
EndChar

StartChar: nine
Encoding: 57 57 29
Width: 1150
Flags: W
LayerCount: 2
Back
Fore
SplineSet
763 583 m 1,0,1
 640 469 640 469 500 471 c 0,2,3
 380 472 380 472 296 535 c 128,-1,4
 212 598 212 598 171.5 710.5 c 128,-1,5
 131 823 131 823 143 954 c 0,6,7
 157 1115 157 1115 245 1245 c 128,-1,8
 333 1375 333 1375 474 1437 c 0,9,10
 567 1478 567 1478 678 1476 c 0,11,12
 858 1472 858 1472 965 1350 c 128,-1,13
 1072 1228 1072 1228 1086 1023 c 0,14,15
 1090 952 1090 952 1083 882 c 2,16,-1
 1072 796 l 2,17,18
 1023 415 1023 415 800.5 200 c 128,-1,19
 578 -15 578 -15 230 -15 c 2,20,-1
 209 -15 l 1,21,-1
 231 227 l 1,22,-1
 246 227 l 2,23,24
 443 224 443 224 570 312.5 c 128,-1,25
 697 401 697 401 763 583 c 1,0,1
578 691 m 0,26,27
 698 687 698 687 790 814 c 1,28,-1
 807 935 l 2,29,30
 812 977 812 977 812 1030 c 0,31,32
 810 1126 810 1126 772 1184 c 128,-1,33
 734 1242 734 1242 662 1244 c 0,34,35
 590 1245 590 1245 532.5 1192.5 c 128,-1,36
 475 1140 475 1140 445.5 1049 c 128,-1,37
 416 958 416 958 424 868 c 0,38,39
 431 788 431 788 471.5 740 c 128,-1,40
 512 692 512 692 578 691 c 0,26,27
EndSplineSet
Substitution2: "Single Substitution lookup 26 subtable" nine.dnom
Substitution2: "'numr' Numerators lookup 25 subtable" nine.frac
Substitution2: "'dnom' Denominators lookup 24 subtable" nine.dnom
Substitution2: "'frac' Diagonal Fractions lookup 23 subtable" nine.frac
Substitution2: "'pnum' Proportional Numbers lookup 19 subtable" nine.pnum
Substitution2: "'onum' Oldstyle Figures lookup 17 subtable" nine.oldstyle
EndChar

StartChar: less
Encoding: 60 60 32
Width: 1021
Flags: W
LayerCount: 2
Back
Fore
SplineSet
337 612 m 1,0,-1
 856 411 l 1,1,-1
 810 144 l 1,2,-1
 36 509 l 1,3,-1
 77 745 l 1,4,-1
 978 1110 l 1,5,-1
 926 817 l 1,6,-1
 337 612 l 1,0,-1
EndSplineSet
EndChar

StartChar: equal
Encoding: 61 61 33
Width: 1147
Flags: W
LayerCount: 2
Back
Fore
SplineSet
1025 746 m 1,0,-1
 156 746 l 1,1,-1
 198 982 l 1,2,-1
 1067 982 l 1,3,-1
 1025 746 l 1,0,-1
950 313 m 1,4,-1
 81 313 l 1,5,-1
 123 549 l 1,6,-1
 992 549 l 1,7,-1
 950 313 l 1,4,-1
EndSplineSet
EndChar

StartChar: greater
Encoding: 62 62 34
Width: 1036
Flags: W
LayerCount: 2
Back
Fore
SplineSet
685 627 m 1,0,-1
 155 830 l 1,1,-1
 202 1095 l 1,2,-1
 985 730 l 1,3,-1
 944 495 l 1,4,-1
 33 129 l 1,5,-1
 85 421 l 1,6,-1
 685 627 l 1,0,-1
EndSplineSet
EndChar

StartChar: question
Encoding: 63 63 35
Width: 998
Flags: W
LayerCount: 2
Back
Fore
SplineSet
321 446 m 1,0,1
 330 576 330 576 374.5 665.5 c 128,-1,2
 419 755 419 755 512.5 830.5 c 128,-1,3
 606 906 606 906 638 941 c 0,4,5
 724 1036 724 1036 713 1143 c 0,6,7
 703 1240 703 1240 600 1243 c 0,8,9
 529 1245 529 1245 480 1198 c 128,-1,10
 431 1151 431 1151 415 1070 c 1,11,-1
 132 1068 l 1,12,13
 145 1258 145 1258 278.5 1369.5 c 128,-1,14
 412 1481 412 1481 614 1477 c 0,15,16
 803 1473 803 1473 909 1369 c 128,-1,17
 1015 1265 1015 1265 1002 1092 c 0,18,19
 990 922 990 922 808 769 c 2,20,-1
 680 663 l 1,21,22
 588 578 588 578 568 447 c 1,23,-1
 321 446 l 1,0,1
228 134 m 0,24,25
 226 201 226 201 271 247 c 128,-1,26
 316 293 316 293 384 295 c 0,27,28
 448 297 448 297 495 254.5 c 128,-1,29
 542 212 542 212 544 145 c 0,30,31
 546 82 546 82 502 35 c 128,-1,32
 458 -12 458 -12 388 -14 c 0,33,34
 321 -14 321 -14 275.5 27 c 128,-1,35
 230 68 230 68 228 134 c 0,24,25
EndSplineSet
EndChar

StartChar: at
Encoding: 64 64 36
Width: 1788
Flags: W
LayerCount: 2
Back
Fore
SplineSet
1194 -21 m 0,0,1
 1022 -16 1022 -16 976 122 c 1,2,3
 850 -22 850 -22 708 -19 c 0,4,5
 588 -17 588 -17 525.5 78.5 c 128,-1,6
 463 174 463 174 471 330 c 0,7,8
 477 485 477 485 554 648 c 128,-1,9
 631 811 631 811 748.5 902 c 128,-1,10
 866 993 866 993 1008 991 c 0,11,12
 1081 989 1081 989 1145.5 966 c 128,-1,13
 1210 943 1210 943 1301 883 c 1,14,-1
 1167 301 l 1,15,-1
 1160 248 l 2,16,17
 1149 143 1149 143 1234 138 c 0,18,19
 1360 133 1360 133 1438 286 c 128,-1,20
 1516 439 1516 439 1533 663 c 2,21,-1
 1536 714 l 1,22,23
 1541 875 1541 875 1491 998 c 128,-1,24
 1441 1121 1441 1121 1333 1185.5 c 128,-1,25
 1225 1250 1225 1250 1068 1253 c 0,26,27
 904 1256 904 1256 756.5 1183.5 c 128,-1,28
 609 1111 609 1111 493 970 c 128,-1,29
 377 829 377 829 310.5 646.5 c 128,-1,30
 244 464 244 464 237 277 c 0,31,32
 228 66 228 66 311 -76 c 0,33,34
 428 -274 428 -274 708 -277 c 0,35,36
 869 -279 869 -279 1046 -209 c 1,37,-1
 1074 -367 l 1,38,39
 945 -453 945 -453 709 -453 c 0,40,41
 508 -451 508 -451 370.5 -377 c 128,-1,42
 233 -303 233 -303 154 -178 c 128,-1,43
 75 -53 75 -53 54 111 c 0,44,45
 24 336 24 336 90.5 582 c 128,-1,46
 157 828 157 828 305.5 1023 c 128,-1,47
 454 1218 454 1218 650.5 1318.5 c 128,-1,48
 847 1419 847 1419 1065 1416 c 0,49,50
 1358 1411 1358 1411 1527.5 1237.5 c 128,-1,51
 1697 1064 1697 1064 1710 765 c 0,52,53
 1716 596 1716 596 1670 429 c 128,-1,54
 1624 262 1624 262 1534 147 c 0,55,56
 1398 -26 1398 -26 1194 -21 c 0,0,1
690 320 m 1,57,58
 679 160 679 160 780 157 c 0,59,60
 834 154 834 154 889 206 c 128,-1,61
 944 258 944 258 969 326 c 1,62,-1
 1096 804 l 1,63,64
 1065 815 1065 815 1027 817 c 0,65,66
 901 822 901 822 817 709 c 128,-1,67
 733 596 733 596 696 378 c 1,68,-1
 690 320 l 1,57,58
EndSplineSet
EndChar

StartChar: A
Encoding: 65 65 37
Width: 1347
GlyphClass: 2
Flags: W
LayerCount: 2
Back
Fore
SplineSet
877 300 m 1,0,-1
 369 300 l 1,1,-1
 219 0 l 1,2,-1
 -104 0 l 1,3,-1
 674 1456 l 1,4,-1
 945 1456 l 1,5,-1
 1222 0 l 1,6,-1
 923 0 l 1,7,-1
 877 300 l 1,0,-1
489 543 m 1,8,-1
 840 543 l 1,9,-1
 758 1085 l 1,10,-1
 489 543 l 1,8,-1
EndSplineSet
Substitution2: "'c2sc' Capitals to Small Capitals lookup 0 subtable" A.c2sc
Position2: "'cpsp' Capital Spacing lookup 0 subtable" dx=36 dy=0 dh=72 dv=0
EndChar

StartChar: B
Encoding: 66 66 38
Width: 1278
GlyphClass: 2
Flags: W
LayerCount: 2
Back
Fore
SplineSet
21 0 m 1,0,-1
 274 1456 l 1,1,-1
 728 1455 l 2,2,3
 981 1454 981 1454 1108 1352 c 128,-1,4
 1235 1250 1235 1250 1223 1065 c 0,5,6
 1209 844 1209 844 968 742 c 1,7,8
 1055 712 1055 712 1103 629.5 c 128,-1,9
 1151 547 1151 547 1144 435 c 0,10,11
 1130 229 1130 229 982.5 114.5 c 128,-1,12
 835 0 835 0 580 0 c 2,13,-1
 21 0 l 1,0,-1
425 634 m 1,14,-1
 356 241 l 1,15,-1
 587 240 l 2,16,17
 695 240 695 240 768 293.5 c 128,-1,18
 841 347 841 347 855 438 c 0,19,20
 869 528 869 528 830.5 578.5 c 128,-1,21
 792 629 792 629 701 633 c 2,22,-1
 425 634 l 1,14,-1
461 846 m 1,23,-1
 660 844 l 2,24,25
 771 846 771 846 841.5 896 c 128,-1,26
 912 946 912 946 926 1035 c 0,27,28
 951 1211 951 1211 741 1212 c 2,29,-1
 525 1213 l 1,30,-1
 461 846 l 1,23,-1
EndSplineSet
Substitution2: "'c2sc' Capitals to Small Capitals lookup 0 subtable" B.c2sc
Position2: "'cpsp' Capital Spacing lookup 0 subtable" dx=36 dy=0 dh=72 dv=0
EndChar

StartChar: C
Encoding: 67 67 39
Width: 1310
GlyphClass: 2
Flags: W
LayerCount: 2
Back
Fore
SplineSet
1208 486 m 1,0,1
 1191 335 1191 335 1105 218.5 c 128,-1,2
 1019 102 1019 102 881 39.5 c 128,-1,3
 743 -23 743 -23 583 -20 c 0,4,5
 439 -17 439 -17 332 46.5 c 128,-1,6
 225 110 225 110 163.5 230.5 c 128,-1,7
 102 351 102 351 94 508 c 0,8,9
 87 631 87 631 119.5 814 c 128,-1,10
 152 997 152 997 235.5 1139 c 128,-1,11
 319 1281 319 1281 434 1364 c 0,12,13
 596 1480 596 1480 804 1476 c 0,14,15
 1030 1472 1030 1472 1162.5 1336.5 c 128,-1,16
 1295 1201 1295 1201 1308 960 c 1,17,-1
 1016 961 l 1,18,19
 1016 1099 1016 1099 961 1163 c 128,-1,20
 906 1227 906 1227 790 1231 c 0,21,22
 640 1236 640 1236 543.5 1124 c 128,-1,23
 447 1012 447 1012 414 797 c 0,24,25
 382 588 382 588 386 484 c 0,26,27
 391 352 391 352 445 289.5 c 128,-1,28
 499 227 499 227 596 224 c 0,29,30
 730 219 730 219 810.5 287.5 c 128,-1,31
 891 356 891 356 917 484 c 1,32,-1
 1208 486 l 1,0,1
EndSplineSet
Substitution2: "'ss06' Style Set 6 lookup 15 subtable" C.ss06
Substitution2: "'c2sc' Capitals to Small Capitals lookup 0 subtable" C.c2sc
Position2: "'cpsp' Capital Spacing lookup 0 subtable" dx=36 dy=0 dh=72 dv=0
EndChar

StartChar: D
Encoding: 68 68 40
Width: 1301
GlyphClass: 2
Flags: W
LayerCount: 2
Back
Fore
SplineSet
21 0 m 1,0,-1
 274 1456 l 1,1,-1
 692 1455 l 2,2,3
 839 1452 839 1452 956.5 1388.5 c 128,-1,4
 1074 1325 1074 1325 1147 1206 c 128,-1,5
 1220 1087 1220 1087 1235 938 c 0,6,7
 1243 851 1243 851 1233 760 c 2,8,-1
 1226 707 l 2,9,10
 1182 387 1182 387 974.5 193.5 c 128,-1,11
 767 0 767 0 471 0 c 2,12,-1
 21 0 l 1,0,-1
525 1213 m 1,13,-1
 356 241 l 1,14,-1
 478 240 l 2,15,16
 680 240 680 240 802.5 388 c 128,-1,17
 925 536 925 536 943 835 c 2,18,-1
 945 867 l 1,19,20
 948 1032 948 1032 882 1120 c 128,-1,21
 816 1208 816 1208 685 1212 c 2,22,-1
 525 1213 l 1,13,-1
EndSplineSet
Substitution2: "'ss06' Style Set 6 lookup 15 subtable" D.ss06
Substitution2: "'c2sc' Capitals to Small Capitals lookup 0 subtable" D.c2sc
Position2: "'cpsp' Capital Spacing lookup 0 subtable" dx=36 dy=0 dh=72 dv=0
EndChar

StartChar: E
Encoding: 69 69 41
Width: 1127
GlyphClass: 2
Flags: W
LayerCount: 2
Back
Fore
SplineSet
982 631 m 1,0,-1
 424 631 l 1,1,-1
 356 241 l 1,2,-1
 1012 241 l 1,3,-1
 970 0 l 1,4,-1
 21 0 l 1,5,-1
 274 1456 l 1,6,-1
 1221 1456 l 1,7,-1
 1178 1213 l 1,8,-1
 525 1213 l 1,9,-1
 464 866 l 1,10,-1
 1024 866 l 1,11,-1
 982 631 l 1,0,-1
EndSplineSet
Substitution2: "'c2sc' Capitals to Small Capitals lookup 0 subtable" E.c2sc
Position2: "'cpsp' Capital Spacing lookup 0 subtable" dx=36 dy=0 dh=72 dv=0
EndChar

StartChar: F
Encoding: 70 70 42
Width: 1098
GlyphClass: 2
Flags: W
LayerCount: 2
Back
Fore
SplineSet
976 595 m 1,0,-1
 418 595 l 1,1,-1
 314 0 l 1,2,-1
 21 0 l 1,3,-1
 274 1456 l 1,4,-1
 1196 1456 l 1,5,-1
 1153 1213 l 1,6,-1
 525 1213 l 1,7,-1
 459 837 l 1,8,-1
 1019 837 l 1,9,-1
 976 595 l 1,0,-1
EndSplineSet
Substitution2: "'c2sc' Capitals to Small Capitals lookup 0 subtable" F.c2sc
Position2: "'cpsp' Capital Spacing lookup 0 subtable" dx=36 dy=0 dh=72 dv=0
EndChar

StartChar: G
Encoding: 71 71 43
Width: 1363
GlyphClass: 2
Flags: W
LayerCount: 2
Back
Fore
SplineSet
1188 184 m 1,0,1
 1110 85 1110 85 959.5 31.5 c 128,-1,2
 809 -22 809 -22 620 -19 c 0,3,4
 471 -18 471 -18 358 46.5 c 128,-1,5
 245 111 245 111 180 232 c 128,-1,6
 115 353 115 353 106 508 c 0,7,8
 96 652 96 652 136.5 846.5 c 128,-1,9
 177 1041 177 1041 275.5 1187.5 c 128,-1,10
 374 1334 374 1334 512 1406.5 c 128,-1,11
 650 1479 650 1479 818 1476 c 0,12,13
 1046 1472 1046 1472 1175 1347.5 c 128,-1,14
 1304 1223 1304 1223 1322 991 c 1,15,-1
 1040 992 l 1,16,17
 1029 1114 1029 1114 975 1172 c 128,-1,18
 921 1230 921 1230 814 1234 c 0,19,20
 629 1240 629 1240 522.5 1071.5 c 128,-1,21
 416 903 416 903 401 583 c 0,22,23
 391 412 391 412 453.5 318 c 128,-1,24
 516 224 516 224 644 222 c 0,25,26
 793 218 793 218 898 293 c 1,27,-1
 947 544 l 1,28,-1
 681 544 l 1,29,-1
 720 765 l 1,30,-1
 1276 765 l 1,31,-1
 1188 184 l 1,0,1
EndSplineSet
Substitution2: "'ss06' Style Set 6 lookup 15 subtable" G.ss06
Substitution2: "'c2sc' Capitals to Small Capitals lookup 0 subtable" G.c2sc
Position2: "'cpsp' Capital Spacing lookup 0 subtable" dx=36 dy=0 dh=72 dv=0
EndChar

StartChar: H
Encoding: 72 72 44
Width: 1414
GlyphClass: 2
Flags: W
LayerCount: 2
Back
Fore
SplineSet
1173 0 m 1,0,-1
 880 0 l 1,1,-1
 988 624 l 1,2,-1
 423 624 l 1,3,-1
 314 0 l 1,4,-1
 21 0 l 1,5,-1
 274 1456 l 1,6,-1
 567 1456 l 1,7,-1
 464 866 l 1,8,-1
 1030 866 l 1,9,-1
 1132 1456 l 1,10,-1
 1425 1456 l 1,11,-1
 1173 0 l 1,0,-1
EndSplineSet
Substitution2: "'c2sc' Capitals to Small Capitals lookup 0 subtable" H.c2sc
Position2: "'cpsp' Capital Spacing lookup 0 subtable" dx=36 dy=0 dh=72 dv=0
EndChar

StartChar: I
Encoding: 73 73 45
Width: 589
GlyphClass: 2
Flags: W
LayerCount: 2
Back
Fore
SplineSet
333 0 m 1,0,-1
 40 0 l 1,1,-1
 292 1456 l 1,2,-1
 585 1456 l 1,3,-1
 333 0 l 1,0,-1
EndSplineSet
Substitution2: "'c2sc' Capitals to Small Capitals lookup 0 subtable" I.c2sc
Position2: "'cpsp' Capital Spacing lookup 0 subtable" dx=36 dy=0 dh=72 dv=0
EndChar

StartChar: J
Encoding: 74 74 46
Width: 1120
GlyphClass: 2
Flags: W
LayerCount: 2
Back
Fore
SplineSet
846 1456 m 1,0,-1
 1139 1456 l 1,1,-1
 968 448 l 1,2,3
 950 310 950 310 876 201 c 128,-1,4
 802 92 802 92 686 34 c 128,-1,5
 570 -24 570 -24 431 -21 c 0,6,7
 225 -17 225 -17 113 101 c 128,-1,8
 1 219 1 219 7 431 c 1,9,-1
 302 430 l 1,10,11
 287 224 287 224 447 221 c 0,12,13
 534 218 534 218 595 279 c 128,-1,14
 656 340 656 340 674 448 c 2,15,-1
 846 1456 l 1,0,-1
EndSplineSet
Substitution2: "'c2sc' Capitals to Small Capitals lookup 0 subtable" J.c2sc
Position2: "'cpsp' Capital Spacing lookup 0 subtable" dx=36 dy=0 dh=72 dv=0
EndChar

StartChar: K
Encoding: 75 75 47
Width: 1271
GlyphClass: 2
Flags: W
LayerCount: 2
Back
Fore
SplineSet
576 581 m 1,0,-1
 384 403 l 1,1,-1
 314 0 l 1,2,-1
 21 0 l 1,3,-1
 274 1456 l 1,4,-1
 567 1456 l 1,5,-1
 455 814 l 1,6,-1
 604 982 l 1,7,-1
 1042 1456 l 1,8,-1
 1424 1456 l 1,9,-1
 795 794 l 1,10,-1
 1170 0 l 1,11,-1
 836 0 l 1,12,-1
 576 581 l 1,0,-1
EndSplineSet
Substitution2: "'ss05' Style Set 5 lookup 14 subtable" K.ss05
Substitution2: "'ss04' Style Set 4 lookup 13 subtable" K.ss04
Substitution2: "'c2sc' Capitals to Small Capitals lookup 0 subtable" K.c2sc
Position2: "'cpsp' Capital Spacing lookup 0 subtable" dx=36 dy=0 dh=72 dv=0
EndChar

StartChar: L
Encoding: 76 76 48
Width: 1086
GlyphClass: 2
Flags: W
LayerCount: 2
Back
Fore
SplineSet
356 241 m 1,0,-1
 974 241 l 1,1,-1
 932 0 l 1,2,-1
 21 0 l 1,3,-1
 274 1456 l 1,4,-1
 567 1456 l 1,5,-1
 356 241 l 1,0,-1
EndSplineSet
Substitution2: "'c2sc' Capitals to Small Capitals lookup 0 subtable" L.c2sc
Position2: "'cpsp' Capital Spacing lookup 0 subtable" dx=36 dy=0 dh=72 dv=0
EndChar

StartChar: M
Encoding: 77 77 49
Width: 1750
GlyphClass: 2
Flags: W
LayerCount: 2
Back
Fore
SplineSet
650 1456 m 1,0,-1
 829 403 l 1,1,-1
 1372 1456 l 1,2,-1
 1762 1456 l 1,3,-1
 1509 0 l 1,4,-1
 1215 0 l 1,5,-1
 1287 415 l 1,6,-1
 1429 1063 l 1,7,-1
 871 0 l 1,8,-1
 670 0 l 1,9,-1
 475 1100 l 1,10,-1
 381 383 l 1,11,-1
 314 0 l 1,12,-1
 21 0 l 1,13,-1
 274 1456 l 1,14,-1
 650 1456 l 1,0,-1
EndSplineSet
Substitution2: "'c2sc' Capitals to Small Capitals lookup 0 subtable" M.c2sc
Position2: "'cpsp' Capital Spacing lookup 0 subtable" dx=36 dy=0 dh=72 dv=0
EndChar

StartChar: N
Encoding: 78 78 50
Width: 1413
GlyphClass: 2
Flags: W
LayerCount: 2
Back
Fore
SplineSet
1172 0 m 1,0,-1
 888 0 l 1,1,-1
 483 971 l 1,2,-1
 314 0 l 1,3,-1
 21 0 l 1,4,-1
 274 1456 l 1,5,-1
 557 1456 l 1,6,-1
 963 483 l 1,7,-1
 1132 1456 l 1,8,-1
 1424 1456 l 1,9,-1
 1172 0 l 1,0,-1
EndSplineSet
Substitution2: "'c2sc' Capitals to Small Capitals lookup 0 subtable" N.c2sc
Position2: "'cpsp' Capital Spacing lookup 0 subtable" dx=36 dy=0 dh=72 dv=0
EndChar

StartChar: O
Encoding: 79 79 51
Width: 1382
GlyphClass: 2
Flags: W
LayerCount: 2
Back
Fore
SplineSet
606 -20 m 0,0,1
 461 -17 461 -17 350.5 48.5 c 128,-1,2
 240 114 240 114 175.5 237.5 c 128,-1,3
 111 361 111 361 101 521 c 0,4,5
 90 685 90 685 136 871 c 128,-1,6
 182 1057 182 1057 284 1198 c 128,-1,7
 386 1339 386 1339 523.5 1409 c 128,-1,8
 661 1479 661 1479 821 1476 c 0,9,10
 968 1473 968 1473 1078 1406.5 c 128,-1,11
 1188 1340 1188 1340 1251 1215.5 c 128,-1,12
 1314 1091 1314 1091 1323 933 c 0,13,14
 1333 757 1333 757 1285 571 c 128,-1,15
 1237 385 1237 385 1136 249 c 128,-1,16
 1035 113 1035 113 899.5 45 c 128,-1,17
 764 -23 764 -23 606 -20 c 0,0,1
1021 768 m 1,18,-1
 1029 863 l 1,19,20
 1039 1041 1039 1041 981.5 1133 c 128,-1,21
 924 1225 924 1225 807 1229 c 0,22,23
 624 1235 624 1235 516.5 1067 c 128,-1,24
 409 899 409 899 395 597 c 0,25,26
 385 420 385 420 442 324.5 c 128,-1,27
 499 229 499 229 619 225 c 0,28,29
 776 218 776 218 879 347.5 c 128,-1,30
 982 477 982 477 1014 714 c 2,31,-1
 1021 768 l 1,18,-1
EndSplineSet
Substitution2: "'ss06' Style Set 6 lookup 15 subtable" O.ss06
Substitution2: "'c2sc' Capitals to Small Capitals lookup 0 subtable" O.c2sc
Position2: "'cpsp' Capital Spacing lookup 0 subtable" dx=36 dy=0 dh=72 dv=0
EndChar

StartChar: P
Encoding: 80 80 52
Width: 1291
GlyphClass: 2
Flags: W
LayerCount: 2
Back
Fore
SplineSet
404 513 m 1,0,-1
 314 0 l 1,1,-1
 21 0 l 1,2,-1
 274 1456 l 1,3,-1
 784 1455 l 2,4,5
 1020 1455 1020 1455 1155 1324 c 128,-1,6
 1290 1193 1290 1193 1273 982 c 0,7,8
 1257 768 1257 768 1094.5 640 c 128,-1,9
 932 512 932 512 680 512 c 2,10,-1
 404 513 l 1,0,-1
445 756 m 1,11,-1
 689 754 l 2,12,13
 807 754 807 754 885 815 c 128,-1,14
 963 876 963 876 978 980 c 128,-1,15
 993 1084 993 1084 944.5 1146 c 128,-1,16
 896 1208 896 1208 801 1212 c 2,17,-1
 525 1213 l 1,18,-1
 445 756 l 1,11,-1
EndSplineSet
Substitution2: "'c2sc' Capitals to Small Capitals lookup 0 subtable" P.c2sc
Position2: "'cpsp' Capital Spacing lookup 0 subtable" dx=36 dy=0 dh=72 dv=0
EndChar

StartChar: Q
Encoding: 81 81 53
Width: 1382
GlyphClass: 2
Flags: W
LayerCount: 2
Back
Fore
SplineSet
958 95 m 1,0,-1
 1160 -103 l 1,1,-1
 960 -260 l 1,2,-1
 705 -12 l 1,3,4
 648 -21 648 -21 599 -19 c 0,5,6
 381 -17 381 -17 247 129 c 128,-1,7
 113 275 113 275 98 522 c 0,8,9
 89 645 89 645 116 796.5 c 128,-1,10
 143 948 143 948 206 1075 c 128,-1,11
 269 1202 269 1202 360.5 1293 c 128,-1,12
 452 1384 452 1384 569 1431.5 c 128,-1,13
 686 1479 686 1479 817 1476 c 0,14,15
 963 1473 963 1473 1073 1407 c 128,-1,16
 1183 1341 1183 1341 1247 1217 c 128,-1,17
 1311 1093 1311 1093 1320 933 c 0,18,19
 1325 846 1325 846 1315 759 c 2,20,-1
 1298 644 l 1,21,22
 1231 272 1231 272 958 95 c 1,0,-1
1026 863 m 0,23,24
 1033 1048 1033 1048 975.5 1136.5 c 128,-1,25
 918 1225 918 1225 803 1229 c 0,26,27
 620 1235 620 1235 512.5 1067 c 128,-1,28
 405 899 405 899 391 597 c 0,29,30
 381 420 381 420 438 324.5 c 128,-1,31
 495 229 495 229 615 225 c 0,32,33
 772 218 772 218 875 347.5 c 128,-1,34
 978 477 978 477 1010 714 c 0,35,36
 1023 810 1023 810 1026 863 c 0,23,24
EndSplineSet
Substitution2: "'ss06' Style Set 6 lookup 15 subtable" Q.ss06
Substitution2: "'c2sc' Capitals to Small Capitals lookup 0 subtable" Q.c2sc
Position2: "'cpsp' Capital Spacing lookup 0 subtable" dx=36 dy=0 dh=72 dv=0
EndChar

StartChar: R
Encoding: 82 82 54
Width: 1278
GlyphClass: 2
Flags: W
LayerCount: 2
Back
Fore
SplineSet
645 533 m 1,0,-1
 407 533 l 1,1,-1
 314 0 l 1,2,-1
 21 0 l 1,3,-1
 274 1456 l 1,4,-1
 756 1455 l 2,5,6
 998 1455 998 1455 1128.5 1341 c 128,-1,7
 1259 1227 1259 1227 1244 1024 c 0,8,9
 1223 724 1223 724 924 607 c 1,10,-1
 1129 16 l 1,11,-1
 1129 0 l 1,12,-1
 817 0 l 1,13,-1
 645 533 l 1,0,-1
449 776 m 1,14,-1
 667 774 l 2,15,16
 783 776 783 776 858.5 836.5 c 128,-1,17
 934 897 934 897 949 1001 c 0,18,19
 963 1098 963 1098 918 1153 c 128,-1,20
 873 1208 873 1208 775 1212 c 2,21,-1
 525 1213 l 1,22,-1
 449 776 l 1,14,-1
EndSplineSet
Substitution2: "'ss03' Style Set 3 lookup 12 subtable" R.ss03
Substitution2: "'c2sc' Capitals to Small Capitals lookup 0 subtable" R.c2sc
Position2: "'cpsp' Capital Spacing lookup 0 subtable" dx=36 dy=0 dh=72 dv=0
EndChar

StartChar: S
Encoding: 83 83 55
Width: 1231
GlyphClass: 2
Flags: W
LayerCount: 2
Back
Fore
SplineSet
822 389 m 0,0,1
 843 508 843 508 705 571 c 1,2,-1
 512 648 l 1,3,4
 176 798 176 798 193 1061 c 0,5,6
 200 1183 200 1183 273 1277 c 128,-1,7
 346 1371 346 1371 478 1424.5 c 128,-1,8
 610 1478 610 1478 763 1476 c 0,9,10
 974 1472 974 1472 1104 1350.5 c 128,-1,11
 1234 1229 1234 1229 1232 1025 c 1,12,-1
 940 1025 l 1,13,14
 945 1124 945 1124 896.5 1179 c 128,-1,15
 848 1234 848 1234 746 1236 c 0,16,17
 646 1238 646 1238 572 1190.5 c 128,-1,18
 498 1143 498 1143 484 1060 c 0,19,20
 465 951 465 951 630 887 c 2,21,-1
 762 837 l 1,22,-1
 838 802 l 1,23,24
 1133 656 1133 656 1114 392 c 0,25,26
 1105 263 1105 263 1031.5 169.5 c 128,-1,27
 958 76 958 76 831.5 26 c 128,-1,28
 705 -24 705 -24 553 -21 c 0,29,30
 398 -18 398 -18 277 44 c 128,-1,31
 156 106 156 106 93 219 c 0,32,33
 34 324 34 324 38 459 c 1,34,-1
 331 458 l 1,35,36
 317 221 317 221 564 217 c 0,37,38
 671 217 671 217 740 264 c 128,-1,39
 809 311 809 311 822 389 c 0,0,1
EndSplineSet
Substitution2: "'c2sc' Capitals to Small Capitals lookup 0 subtable" S.c2sc
Position2: "'cpsp' Capital Spacing lookup 0 subtable" dx=36 dy=0 dh=72 dv=0
EndChar

StartChar: T
Encoding: 84 84 56
Width: 1239
GlyphClass: 2
Flags: W
LayerCount: 2
Back
Fore
SplineSet
1296 1213 m 1,0,-1
 864 1213 l 1,1,-1
 654 0 l 1,2,-1
 361 0 l 1,3,-1
 571 1213 l 1,4,-1
 144 1213 l 1,5,-1
 187 1456 l 1,6,-1
 1339 1456 l 1,7,-1
 1296 1213 l 1,0,-1
EndSplineSet
Substitution2: "'c2sc' Capitals to Small Capitals lookup 0 subtable" T.c2sc
Position2: "'cpsp' Capital Spacing lookup 0 subtable" dx=36 dy=0 dh=72 dv=0
EndChar

StartChar: U
Encoding: 85 85 57
Width: 1318
GlyphClass: 2
Flags: W
LayerCount: 2
Back
Fore
SplineSet
1349 1456 m 1,0,-1
 1185 496 l 1,1,2
 1151 255 1151 255 985 115 c 128,-1,3
 819 -25 819 -25 573 -21 c 0,4,5
 419 -18 419 -18 305.5 46.5 c 128,-1,6
 192 111 192 111 138 228.5 c 128,-1,7
 84 346 84 346 101 495 c 1,8,-1
 264 1456 l 1,9,-1
 557 1456 l 1,10,-1
 394 494 l 2,11,12
 387 438 387 438 393 389 c 0,13,14
 413 227 413 227 586 221 c 0,15,16
 710 217 710 217 789 289 c 128,-1,17
 868 361 868 361 891 495 c 2,18,-1
 1055 1456 l 1,19,-1
 1349 1456 l 1,0,-1
EndSplineSet
Substitution2: "'c2sc' Capitals to Small Capitals lookup 0 subtable" U.c2sc
Position2: "'cpsp' Capital Spacing lookup 0 subtable" dx=36 dy=0 dh=72 dv=0
EndChar

StartChar: V
Encoding: 86 86 58
Width: 1309
GlyphClass: 2
Flags: W
LayerCount: 2
Back
Fore
SplineSet
606 364 m 1,0,-1
 1096 1456 l 1,1,-1
 1432 1456 l 1,2,-1
 713 0 l 1,3,-1
 407 0 l 1,4,-1
 145 1456 l 1,5,-1
 460 1456 l 1,6,-1
 606 364 l 1,0,-1
EndSplineSet
Substitution2: "'c2sc' Capitals to Small Capitals lookup 0 subtable" V.c2sc
Position2: "'cpsp' Capital Spacing lookup 0 subtable" dx=36 dy=0 dh=72 dv=0
EndChar

StartChar: W
Encoding: 87 87 59
Width: 1747
GlyphClass: 2
Flags: W
LayerCount: 2
Back
Fore
SplineSet
1195 423 m 1,0,-1
 1546 1456 l 1,1,-1
 1845 1456 l 1,2,-1
 1304 0 l 1,3,-1
 1009 0 l 1,4,-1
 932 970 l 1,5,-1
 551 0 l 1,6,-1
 256 0 l 1,7,-1
 170 1456 l 1,8,-1
 456 1456 l 1,9,-1
 485 428 l 1,10,-1
 877 1456 l 1,11,-1
 1126 1456 l 1,12,-1
 1195 423 l 1,0,-1
EndSplineSet
Substitution2: "'c2sc' Capitals to Small Capitals lookup 0 subtable" W.c2sc
Position2: "'cpsp' Capital Spacing lookup 0 subtable" dx=36 dy=0 dh=72 dv=0
EndChar

StartChar: X
Encoding: 88 88 60
Width: 1272
GlyphClass: 2
Flags: W
LayerCount: 2
Back
Fore
SplineSet
679 956 m 1,0,-1
 1022 1456 l 1,1,-1
 1374 1456 l 1,2,-1
 839 720 l 1,3,-1
 1141 0 l 1,4,-1
 817 0 l 1,5,-1
 626 508 l 1,6,-1
 275 0 l 1,7,-1
 -81 0 l 1,8,-1
 466 748 l 1,9,-1
 173 1456 l 1,10,-1
 493 1456 l 1,11,-1
 679 956 l 1,0,-1
EndSplineSet
Substitution2: "'c2sc' Capitals to Small Capitals lookup 0 subtable" X.c2sc
Position2: "'cpsp' Capital Spacing lookup 0 subtable" dx=36 dy=0 dh=72 dv=0
EndChar

StartChar: Y
Encoding: 89 89 61
Width: 1238
GlyphClass: 2
Flags: W
LayerCount: 2
Back
Fore
SplineSet
640 802 m 1,0,-1
 1047 1456 l 1,1,-1
 1383 1456 l 1,2,-1
 747 512 l 1,3,-1
 659 0 l 1,4,-1
 361 0 l 1,5,-1
 456 545 l 1,6,-1
 154 1455 l 1,7,-1
 463 1456 l 1,8,-1
 640 802 l 1,0,-1
EndSplineSet
Substitution2: "'c2sc' Capitals to Small Capitals lookup 0 subtable" Y.c2sc
Position2: "'cpsp' Capital Spacing lookup 0 subtable" dx=36 dy=0 dh=72 dv=0
EndChar

StartChar: Z
Encoding: 90 90 62
Width: 1214
GlyphClass: 2
Flags: W
LayerCount: 2
Back
Fore
SplineSet
378 243 m 1,0,-1
 1086 241 l 1,1,-1
 1044 0 l 1,2,-1
 -34 0 l 1,3,-1
 -1 191 l 1,4,-1
 870 1211 l 1,5,-1
 177 1213 l 1,6,-1
 220 1456 l 1,7,-1
 1281 1456 l 1,8,-1
 1248 1269 l 1,9,-1
 378 243 l 1,0,-1
EndSplineSet
Substitution2: "'c2sc' Capitals to Small Capitals lookup 0 subtable" Z.c2sc
Position2: "'cpsp' Capital Spacing lookup 0 subtable" dx=36 dy=0 dh=72 dv=0
EndChar

StartChar: bracketleft
Encoding: 91 91 63
Width: 562
Flags: W
LayerCount: 2
Back
Fore
SplineSet
673 1471 m 1,0,-1
 535 1471 l 1,1,-1
 287 -116 l 1,2,-1
 425 -116 l 1,3,-1
 390 -339 l 1,4,-1
 -31 -339 l 1,5,-1
 287 1694 l 1,6,-1
 708 1694 l 1,7,-1
 673 1471 l 1,0,-1
EndSplineSet
EndChar

StartChar: backslash
Encoding: 92 92 64
Width: 848
Flags: W
LayerCount: 2
Back
Fore
SplineSet
154 1456 m 1,0,-1
 429 1456 l 1,1,-1
 745 -125 l 1,2,-1
 469 -125 l 1,3,-1
 154 1456 l 1,0,-1
EndSplineSet
EndChar

StartChar: bracketright
Encoding: 93 93 65
Width: 562
Flags: W
LayerCount: 2
Back
Fore
SplineSet
183 1694 m 1,0,-1
 604 1694 l 1,1,-1
 286 -339 l 1,2,-1
 -135 -339 l 1,3,-1
 -100 -116 l 1,4,-1
 39 -116 l 1,5,-1
 287 1471 l 1,6,-1
 148 1471 l 1,7,-1
 183 1694 l 1,0,-1
EndSplineSet
EndChar

StartChar: asciicircum
Encoding: 94 94 66
Width: 878
Flags: W
LayerCount: 2
Back
Fore
SplineSet
543 1183 m 1,0,-1
 296 729 l 1,1,-1
 57 729 l 1,2,-1
 474 1456 l 1,3,-1
 679 1456 l 1,4,-1
 843 729 l 1,5,-1
 632 729 l 1,6,-1
 543 1183 l 1,0,-1
EndSplineSet
EndChar

StartChar: underscore
Encoding: 95 95 67
Width: 897
Flags: W
LayerCount: 2
Back
Fore
SplineSet
743 -226 m 1,0,-1
 -143 -226 l 1,1,-1
 -103 0 l 1,2,-1
 782 0 l 1,3,-1
 743 -226 l 1,0,-1
EndSplineSet
EndChar

StartChar: grave
Encoding: 96 96 68
Width: 667
Flags: W
LayerCount: 2
Back
Fore
SplineSet
638 1226 m 1,0,-1
 427 1227 l 1,1,-1
 204 1534 l 1,2,-1
 495 1536 l 1,3,-1
 638 1226 l 1,0,-1
EndSplineSet
EndChar

StartChar: a
Encoding: 97 97 69
Width: 1075
GlyphClass: 2
Flags: W
LayerCount: 2
Back
Fore
SplineSet
629 0 m 1,0,1
 616 41 616 41 618 98 c 1,2,3
 496 -24 496 -24 342 -20 c 0,4,5
 200 -18 200 -18 106.5 72.5 c 128,-1,6
 13 163 13 163 19 296 c 0,7,8
 26 473 26 473 167.5 567.5 c 128,-1,9
 309 662 309 662 547 662 c 2,10,-1
 679 660 l 1,11,-1
 693 725 l 2,12,13
 699 758 699 758 696 788 c 0,14,15
 691 835 691 835 660.5 861.5 c 128,-1,16
 630 888 630 888 580 889 c 0,17,18
 514 891 514 891 468 856.5 c 128,-1,19
 422 822 422 822 409 757 c 1,20,-1
 126 756 l 1,21,22
 133 911 133 911 268.5 1007.5 c 128,-1,23
 404 1104 404 1104 603 1102 c 0,24,25
 787 1098 787 1098 891 992.5 c 128,-1,26
 995 887 995 887 978 721 c 1,27,-1
 895 203 l 1,28,-1
 890 139 l 2,29,30
 888 68 888 68 907 19 c 1,31,-1
 906 0 l 1,32,-1
 629 0 l 1,0,1
412 199 m 0,33,34
 534 195 534 195 625 305 c 1,35,-1
 660 492 l 1,36,-1
 562 493 l 1,37,38
 406 489 406 489 337 398 c 0,39,40
 312 365 312 365 306 317 c 0,41,42
 298 263 298 263 328.5 231.5 c 128,-1,43
 359 200 359 200 412 199 c 0,33,34
EndSplineSet
Substitution2: "'smcp' Lowercase to Small Capitals lookup 1 subtable" A.c2sc
EndChar

StartChar: b
Encoding: 98 98 70
Width: 1128
GlyphClass: 2
Flags: W
LayerCount: 2
Back
Fore
SplineSet
1043 538 m 0,0,1
 1013 282 1013 282 887 128 c 128,-1,2
 761 -26 761 -26 561 -21 c 0,3,4
 390 -17 390 -17 301 117 c 1,5,-1
 260 0 l 1,6,-1
 3 0 l 1,7,-1
 269 1536 l 1,8,-1
 552 1536 l 1,9,-1
 443 983 l 1,10,11
 557 1106 557 1106 707 1102 c 0,12,13
 864 1100 864 1100 953.5 989.5 c 128,-1,14
 1043 879 1043 879 1049 684 c 0,15,16
 1051 622 1051 622 1043 538 c 0,0,1
763 559 m 2,17,18
 772 644 772 644 769 691 c 0,19,20
 758 865 758 865 625 868 c 0,21,22
 500 872 500 872 418 755 c 1,23,-1
 340 325 l 1,24,25
 378 217 378 217 502 213 c 0,26,27
 710 207 710 207 757 515 c 1,28,-1
 763 559 l 2,17,18
EndSplineSet
Substitution2: "'ss06' Style Set 6 lookup 15 subtable" b.ss06
Substitution2: "'smcp' Lowercase to Small Capitals lookup 1 subtable" B.c2sc
EndChar

StartChar: c
Encoding: 99 99 71
Width: 1046
GlyphClass: 2
Flags: W
LayerCount: 2
Back
Fore
SplineSet
477 212 m 0,0,1
 555 210 555 210 607 254.5 c 128,-1,2
 659 299 659 299 675 373 c 1,3,-1
 940 374 l 1,4,5
 933 260 933 260 868.5 169 c 128,-1,6
 804 78 804 78 696.5 27 c 128,-1,7
 589 -24 589 -24 470 -21 c 0,8,9
 273 -18 273 -18 158 115 c 128,-1,10
 43 248 43 248 47 469 c 1,11,-1
 50 524 l 1,12,-1
 51 535 l 2,13,14
 78 799 78 799 229 953.5 c 128,-1,15
 380 1108 380 1108 602 1102 c 0,16,17
 785 1098 785 1098 892.5 982.5 c 128,-1,18
 1000 867 1000 867 998 678 c 1,19,-1
 735 678 l 1,20,21
 735 765 735 765 697 815 c 128,-1,22
 659 865 659 865 583 869 c 0,23,24
 381 875 381 875 338 574 c 0,25,26
 323 465 323 465 327 390 c 0,27,28
 337 215 337 215 477 212 c 0,0,1
EndSplineSet
Substitution2: "'ss06' Style Set 6 lookup 15 subtable" c.ss06
Substitution2: "'smcp' Lowercase to Small Capitals lookup 1 subtable" C.c2sc
EndChar

StartChar: d
Encoding: 100 100 72
Width: 1129
GlyphClass: 2
Flags: W
LayerCount: 2
Back
Fore
SplineSet
540 1103 m 0,0,1
 691 1099 691 1099 784 982 c 1,2,-1
 890 1536 l 1,3,-1
 1173 1536 l 1,4,-1
 907 0 l 1,5,-1
 655 0 l 1,6,-1
 671 116 l 1,7,8
 550 -25 550 -25 389 -21 c 0,9,10
 288 -20 288 -20 212 32 c 128,-1,11
 136 84 136 84 94.5 181.5 c 128,-1,12
 53 279 53 279 49 399 c 0,13,14
 46 462 46 462 52 521 c 2,15,-1
 58 566 l 2,16,17
 82 732 82 732 150.5 858 c 128,-1,18
 219 984 219 984 318.5 1045 c 128,-1,19
 418 1106 418 1106 540 1103 c 0,0,1
335 521 m 0,20,21
 327 445 327 445 330 393 c 0,22,23
 340 217 340 217 472 214 c 0,24,25
 591 209 591 209 679 326 c 1,26,-1
 756 756 l 1,27,28
 717 863 717 863 600 868 c 0,29,30
 497 871 497 871 428.5 788.5 c 128,-1,31
 360 706 360 706 335 521 c 0,20,21
EndSplineSet
Substitution2: "'ss06' Style Set 6 lookup 15 subtable" d.ss06
Substitution2: "'smcp' Lowercase to Small Capitals lookup 1 subtable" D.c2sc
EndChar

StartChar: e
Encoding: 101 101 73
Width: 1084
GlyphClass: 2
Flags: W
LayerCount: 2
Back
Fore
SplineSet
517 -20 m 0,0,1
 375 -19 375 -19 265.5 49.5 c 128,-1,2
 156 118 156 118 102 237.5 c 128,-1,3
 48 357 48 357 60 501 c 2,4,-1
 63 541 l 2,5,6
 78 699 78 699 155 831 c 128,-1,7
 232 963 232 963 353 1034.5 c 128,-1,8
 474 1106 474 1106 621 1102 c 0,9,10
 830 1098 830 1098 937.5 948.5 c 128,-1,11
 1045 799 1045 799 1019 570 c 2,12,-1
 1003 447 l 1,13,-1
 340 447 l 1,14,15
 336 342 336 342 391 279 c 128,-1,16
 446 216 446 216 541 214 c 0,17,18
 695 210 695 210 811 333 c 1,19,-1
 940 173 l 1,20,21
 879 81 879 81 764 29.5 c 128,-1,22
 649 -22 649 -22 517 -20 c 0,0,1
607 869 m 0,23,24
 529 871 529 871 468.5 820 c 128,-1,25
 408 769 408 769 360 643 c 1,26,-1
 748 643 l 1,27,-1
 754 669 l 2,28,29
 760 709 760 709 755 745 c 0,30,31
 745 803 745 803 706 835.5 c 128,-1,32
 667 868 667 868 607 869 c 0,23,24
EndSplineSet
Substitution2: "'ss07' Style Set 7 lookup 16 subtable" e.ss07
Substitution2: "'smcp' Lowercase to Small Capitals lookup 1 subtable" E.c2sc
EndChar

StartChar: f
Encoding: 102 102 74
Width: 722
GlyphClass: 2
Flags: W
LayerCount: 2
Back
Fore
SplineSet
79 0 m 1,0,-1
 230 870 l 1,1,-1
 74 870 l 1,2,-1
 111 1082 l 1,3,-1
 267 1083 l 1,4,-1
 281 1191 l 2,5,6
 307 1364 307 1364 422 1462.5 c 128,-1,7
 537 1561 537 1561 715 1559 c 0,8,9
 776 1557 776 1557 868 1538 c 1,10,-1
 843 1313 l 1,11,12
 795 1325 795 1325 760 1325 c 0,13,14
 685 1326 685 1326 631.5 1287 c 128,-1,15
 578 1248 578 1248 565 1170 c 2,16,-1
 550 1082 l 1,17,-1
 759 1082 l 1,18,-1
 722 870 l 1,19,-1
 514 870 l 1,20,-1
 363 0 l 1,21,-1
 79 0 l 1,0,-1
EndSplineSet
Substitution2: "'smcp' Lowercase to Small Capitals lookup 1 subtable" F.c2sc
EndChar

StartChar: g
Encoding: 103 103 75
Width: 1144
GlyphClass: 2
Flags: W
LayerCount: 2
Back
Fore
SplineSet
57 542 m 0,0,1
 87 793 87 793 220.5 949.5 c 128,-1,2
 354 1106 354 1106 557 1103 c 0,3,4
 730 1099 730 1099 815 978 c 1,5,-1
 852 1083 l 1,6,-1
 1111 1082 l 1,7,-1
 934 37 l 1,8,9
 905 -179 905 -179 750 -305 c 128,-1,10
 595 -431 595 -431 366 -427 c 0,11,12
 254 -425 254 -425 152 -378.5 c 128,-1,13
 50 -332 50 -332 -16 -251 c 1,14,-1
 124 -79 l 1,15,16
 218 -198 218 -198 360 -202 c 0,17,18
 470 -206 470 -206 548 -144.5 c 128,-1,19
 626 -83 626 -83 654 29 c 2,20,-1
 670 94 l 1,21,22
 552 -24 552 -24 405 -20 c 0,23,24
 247 -18 247 -18 154 97.5 c 128,-1,25
 61 213 61 213 52 398 c 0,26,27
 49 459 49 459 57 542 c 0,0,1
334 424 m 0,28,29
 334 330 334 330 373.5 273.5 c 128,-1,30
 413 217 413 217 488 214 c 0,31,32
 603 210 603 210 692 312 c 1,33,-1
 776 770 l 1,34,35
 733 864 733 864 617 868 c 0,36,37
 509 871 509 871 434 781 c 128,-1,38
 359 691 359 691 340 542 c 0,39,40
 333 469 333 469 334 424 c 0,28,29
EndSplineSet
Substitution2: "'ss07' Style Set 7 lookup 16 subtable" g.ss07
Substitution2: "'ss06' Style Set 6 lookup 15 subtable" g.ss06
Substitution2: "'ss01' Style Set 1 lookup 10 subtable" g.ss01
Substitution2: "'smcp' Lowercase to Small Capitals lookup 1 subtable" G.c2sc
EndChar

StartChar: h
Encoding: 104 104 76
Width: 1122
GlyphClass: 2
Flags: W
LayerCount: 2
Back
Fore
SplineSet
433 962 m 1,0,1
 560 1104 560 1104 726 1102 c 0,2,3
 887 1098 887 1098 962.5 986.5 c 128,-1,4
 1038 875 1038 875 1019 682 c 1,5,-1
 905 0 l 1,6,-1
 623 0 l 1,7,-1
 738 685 l 2,8,9
 743 724 743 724 740 757 c 0,10,11
 730 865 730 865 614 868 c 0,12,13
 500 872 500 872 414 770 c 1,14,-1
 278 0 l 1,15,-1
 -4 0 l 1,16,-1
 262 1536 l 1,17,-1
 545 1536 l 1,18,-1
 433 962 l 1,0,1
EndSplineSet
Substitution2: "'smcp' Lowercase to Small Capitals lookup 1 subtable" H.c2sc
EndChar

StartChar: i
Encoding: 105 105 77
Width: 537
GlyphClass: 2
Flags: W
LayerCount: 2
Back
Fore
SplineSet
301 0 m 1,0,-1
 17 0 l 1,1,-1
 205 1082 l 1,2,-1
 489 1082 l 1,3,-1
 301 0 l 1,0,-1
238 1357 m 0,4,5
 236 1424 236 1424 282 1468 c 128,-1,6
 328 1512 328 1512 393 1512 c 0,7,8
 457 1514 457 1514 504 1473 c 128,-1,9
 551 1432 551 1432 553 1367 c 0,10,11
 555 1305 555 1305 511.5 1259 c 128,-1,12
 468 1213 468 1213 398 1211 c 0,13,14
 335 1209 335 1209 287.5 1249 c 128,-1,15
 240 1289 240 1289 238 1357 c 0,4,5
EndSplineSet
Substitution2: "Single Substitution lookup 26 subtable" glyph576
Substitution2: "'smcp' Lowercase to Small Capitals lookup 1 subtable" I.c2sc
EndChar

StartChar: j
Encoding: 106 106 78
Width: 526
GlyphClass: 2
Flags: W
LayerCount: 2
Back
Fore
SplineSet
490 1082 m 1,0,-1
 296 -59 l 1,1,2
 273 -240 273 -240 165.5 -341 c 128,-1,3
 58 -442 58 -442 -112 -440 c 0,4,5
 -180 -438 -180 -438 -262 -421 c 1,6,-1
 -239 -191 l 1,7,8
 -189 -202 -189 -202 -152 -204 c 0,9,10
 -19 -206 -19 -206 10 -60 c 2,11,-1
 206 1082 l 1,12,-1
 490 1082 l 1,0,-1
233 1357 m 0,13,14
 231 1423 231 1423 275 1466.5 c 128,-1,15
 319 1510 319 1510 388 1512 c 0,16,17
 457 1512 457 1512 501.5 1471 c 128,-1,18
 546 1430 546 1430 548 1367 c 0,19,20
 550 1300 550 1300 506 1256.5 c 128,-1,21
 462 1213 462 1213 393 1211 c 0,22,23
 330 1209 330 1209 282.5 1249 c 128,-1,24
 235 1289 235 1289 233 1357 c 0,13,14
EndSplineSet
Substitution2: "Single Substitution lookup 26 subtable" glyph574
Substitution2: "'smcp' Lowercase to Small Capitals lookup 1 subtable" J.c2sc
EndChar

StartChar: k
Encoding: 107 107 79
Width: 1071
GlyphClass: 2
Flags: W
LayerCount: 2
Back
Fore
SplineSet
471 431 m 1,0,-1
 340 317 l 1,1,-1
 285 0 l 1,2,-1
 3 0 l 1,3,-1
 269 1536 l 1,4,-1
 552 1536 l 1,5,-1
 406 702 l 1,6,-1
 461 761 l 1,7,-1
 782 1082 l 1,8,-1
 1144 1082 l 1,9,-1
 671 617 l 1,10,-1
 972 0 l 1,11,-1
 663 0 l 1,12,-1
 471 431 l 1,0,-1
EndSplineSet
Substitution2: "'ss05' Style Set 5 lookup 14 subtable" k.ss05
Substitution2: "'ss04' Style Set 4 lookup 13 subtable" k.ss04
Substitution2: "'smcp' Lowercase to Small Capitals lookup 1 subtable" K.c2sc
EndChar

StartChar: l
Encoding: 108 108 80
Width: 537
GlyphClass: 2
Flags: W
LayerCount: 2
Back
Fore
SplineSet
301 0 m 1,0,-1
 17 0 l 1,1,-1
 284 1536 l 1,2,-1
 567 1536 l 1,3,-1
 301 0 l 1,0,-1
EndSplineSet
Substitution2: "'smcp' Lowercase to Small Capitals lookup 1 subtable" L.c2sc
EndChar

StartChar: m
Encoding: 109 109 81
Width: 1730
GlyphClass: 2
Flags: W
LayerCount: 2
Back
Fore
SplineSet
453 1083 m 1,0,-1
 430 960 l 1,1,2
 561 1106 561 1106 747 1102 c 0,3,4
 847 1100 847 1100 913 1056 c 128,-1,5
 979 1012 979 1012 1002 937 c 1,6,7
 1145 1106 1145 1106 1338 1102 c 0,8,9
 1487 1099 1487 1099 1562.5 1000 c 128,-1,10
 1638 901 1638 901 1626 714 c 2,11,-1
 1624 689 l 1,12,-1
 1509 0 l 1,13,-1
 1226 0 l 1,14,-1
 1341 691 l 2,15,16
 1345 728 1345 728 1344 760 c 0,17,18
 1337 865 1337 865 1224 868 c 0,19,20
 1108 868 1108 868 1025 744 c 1,21,-1
 1022 721 l 1,22,-1
 896 0 l 1,23,-1
 614 0 l 1,24,-1
 729 689 l 2,25,26
 733 726 733 726 732 758 c 0,27,28
 725 864 725 864 613 867 c 0,29,30
 506 870 506 870 420 766 c 1,31,-1
 285 0 l 1,32,-1
 3 0 l 1,33,-1
 190 1082 l 1,34,-1
 453 1083 l 1,0,-1
EndSplineSet
Substitution2: "'smcp' Lowercase to Small Capitals lookup 1 subtable" M.c2sc
EndChar

StartChar: n
Encoding: 110 110 82
Width: 1123
GlyphClass: 2
Flags: W
LayerCount: 2
Back
Fore
SplineSet
449 1083 m 1,0,-1
 425 955 l 1,1,2
 555 1106 555 1106 740 1102 c 0,3,4
 893 1099 893 1099 966 990 c 128,-1,5
 1039 881 1039 881 1019 688 c 1,6,-1
 905 0 l 1,7,-1
 623 0 l 1,8,-1
 739 691 l 2,9,10
 744 730 744 730 741 762 c 0,11,12
 728 864 728 864 613 867 c 0,13,14
 502 871 502 871 414 764 c 1,15,-1
 279 0 l 1,16,-1
 -3 0 l 1,17,-1
 185 1082 l 1,18,-1
 449 1083 l 1,0,-1
EndSplineSet
Substitution2: "'smcp' Lowercase to Small Capitals lookup 1 subtable" N.c2sc
EndChar

StartChar: o
Encoding: 111 111 83
Width: 1133
GlyphClass: 2
Flags: W
LayerCount: 2
Back
Fore
SplineSet
622 1102 m 0,0,1
 765 1100 765 1100 868.5 1028.5 c 128,-1,2
 972 957 972 957 1020.5 831.5 c 128,-1,3
 1069 706 1069 706 1055 553 c 0,4,5
 1032 295 1032 295 875.5 135.5 c 128,-1,6
 719 -24 719 -24 489 -20 c 0,7,8
 348 -18 348 -18 245 52.5 c 128,-1,9
 142 123 142 123 93 248 c 128,-1,10
 44 373 44 373 58 524 c 0,11,12
 84 792 84 792 240 950 c 128,-1,13
 396 1108 396 1108 622 1102 c 0,0,1
337 421 m 0,14,15
 339 325 339 325 382 269.5 c 128,-1,16
 425 214 425 214 503 212 c 0,17,18
 633 208 633 208 707 331.5 c 128,-1,19
 781 455 781 455 776 656 c 0,20,21
 772 752 772 752 729.5 809.5 c 128,-1,22
 687 867 687 867 608 869 c 0,23,24
 482 873 482 873 406.5 750.5 c 128,-1,25
 331 628 331 628 337 421 c 0,14,15
EndSplineSet
Substitution2: "'ss06' Style Set 6 lookup 15 subtable" o.ss06
Substitution2: "'smcp' Lowercase to Small Capitals lookup 1 subtable" O.c2sc
EndChar

StartChar: p
Encoding: 112 112 84
Width: 1128
GlyphClass: 2
Flags: W
LayerCount: 2
Back
Fore
SplineSet
1042 538 m 0,0,1
 1021 368 1021 368 953 236 c 128,-1,2
 885 104 885 104 784 40 c 128,-1,3
 683 -24 683 -24 560 -21 c 0,4,5
 403 -17 403 -17 312 96 c 1,6,-1
 213 -416 l 1,7,-1
 -69 -416 l 1,8,-1
 190 1082 l 1,9,-1
 450 1083 l 1,10,-1
 431 974 l 1,11,12
 548 1106 548 1106 707 1102 c 128,-1,13
 866 1098 866 1098 954 986.5 c 128,-1,14
 1042 875 1042 875 1048 684 c 0,15,16
 1050 622 1050 622 1042 538 c 0,0,1
762 559 m 1,17,-1
 768 655 l 1,18,19
 770 752 770 752 732.5 809 c 128,-1,20
 695 866 695 866 623 868 c 0,21,22
 500 872 500 872 420 764 c 1,23,-1
 339 318 l 1,24,25
 376 217 376 217 498 213 c 0,26,27
 600 210 600 210 668 292 c 128,-1,28
 736 374 736 374 762 559 c 1,17,-1
EndSplineSet
Substitution2: "'ss06' Style Set 6 lookup 15 subtable" p.ss06
Substitution2: "'smcp' Lowercase to Small Capitals lookup 1 subtable" P.c2sc
EndChar

StartChar: q
Encoding: 113 113 85
Width: 1132
GlyphClass: 2
Flags: W
LayerCount: 2
Back
Fore
SplineSet
540 1103 m 0,0,1
 708 1099 708 1099 797 967 c 1,2,-1
 843 1083 l 1,3,-1
 1095 1082 l 1,4,-1
 835 -416 l 1,5,-1
 551 -416 l 1,6,-1
 652 95 l 1,7,8
 539 -24 539 -24 389 -20 c 0,9,10
 288 -19 288 -19 212 33 c 128,-1,11
 136 85 136 85 94.5 183.5 c 128,-1,12
 53 282 53 282 49 400 c 0,13,14
 46 463 46 463 52 523 c 2,15,-1
 58 567 l 2,16,17
 82 735 82 735 150.5 861 c 128,-1,18
 219 987 219 987 318.5 1046.5 c 128,-1,19
 418 1106 418 1106 540 1103 c 0,0,1
331 394 m 0,20,21
 341 216 341 216 473 213 c 0,22,23
 592 209 592 209 677 318 c 1,24,-1
 759 768 l 1,25,26
 720 865 720 865 602 869 c 0,27,28
 496 872 496 872 427 785.5 c 128,-1,29
 358 699 358 699 338 544 c 0,30,31
 328 441 328 441 331 394 c 0,20,21
EndSplineSet
Substitution2: "'ss06' Style Set 6 lookup 15 subtable" q.ss06
Substitution2: "'smcp' Lowercase to Small Capitals lookup 1 subtable" Q.c2sc
EndChar

StartChar: r
Encoding: 114 114 86
Width: 735
GlyphClass: 2
Flags: W
LayerCount: 2
Back
Fore
SplineSet
744 811 m 1,0,1
 686 821 686 821 649 821 c 0,2,3
 498 825 498 825 410 708 c 1,4,-1
 285 0 l 1,5,-1
 3 0 l 1,6,-1
 191 1082 l 1,7,-1
 456 1083 l 1,8,-1
 430 951 l 1,9,10
 532 1104 532 1104 682 1104 c 0,11,12
 724 1104 724 1104 780 1090 c 1,13,-1
 744 811 l 1,0,1
EndSplineSet
Substitution2: "'smcp' Lowercase to Small Capitals lookup 1 subtable" R.c2sc
EndChar

StartChar: s
Encoding: 115 115 87
Width: 1031
GlyphClass: 2
Flags: W
LayerCount: 2
Back
Fore
SplineSet
630 305 m 0,0,1
 646 385 646 385 519 421 c 2,2,-1
 428 444 l 1,3,4
 105 533 105 533 114 758 c 0,5,6
 119 911 119 911 249.5 1007.5 c 128,-1,7
 380 1104 380 1104 564 1102 c 0,8,9
 747 1100 747 1100 860 1005 c 128,-1,10
 973 910 973 910 975 752 c 1,11,-1
 695 753 l 1,12,13
 697 892 697 892 557 894 c 0,14,15
 491 894 491 894 442.5 861 c 128,-1,16
 394 828 394 828 383 772 c 0,17,18
 368 692 368 692 504 659 c 2,19,-1
 544 650 l 2,20,21
 682 617 682 617 755 574.5 c 128,-1,22
 828 532 828 532 867.5 469 c 128,-1,23
 907 406 907 406 904 318 c 0,24,25
 901 215 901 215 837.5 138 c 128,-1,26
 774 61 774 61 663.5 19 c 128,-1,27
 553 -23 553 -23 431 -20 c 0,28,29
 251 -18 251 -18 131 83.5 c 128,-1,30
 11 185 11 185 9 346 c 1,31,-1
 275 344 l 1,32,33
 279 189 279 189 441 187 c 0,34,35
 519 187 519 187 569.5 219 c 128,-1,36
 620 251 620 251 630 305 c 0,0,1
EndSplineSet
Substitution2: "'smcp' Lowercase to Small Capitals lookup 1 subtable" S.c2sc
EndChar

StartChar: t
Encoding: 116 116 88
Width: 681
GlyphClass: 2
Flags: W
LayerCount: 2
Back
Fore
SplineSet
575 1348 m 1,0,-1
 528 1082 l 1,1,-1
 708 1082 l 1,2,-1
 671 870 l 1,3,-1
 491 870 l 1,4,-1
 399 328 l 2,5,6
 393 277 393 277 407 250 c 128,-1,7
 421 223 421 223 475 221 c 0,8,9
 491 220 491 220 561 226 c 1,10,-1
 541 5 l 1,11,12
 466 -20 466 -20 379 -18 c 0,13,14
 240 -16 240 -16 172 69 c 128,-1,15
 104 154 104 154 116 299 c 1,16,-1
 209 870 l 1,17,-1
 56 870 l 1,18,-1
 93 1082 l 1,19,-1
 246 1082 l 1,20,-1
 292 1348 l 1,21,-1
 575 1348 l 1,0,-1
EndSplineSet
Substitution2: "'smcp' Lowercase to Small Capitals lookup 1 subtable" T.c2sc
EndChar

StartChar: u
Encoding: 117 117 89
Width: 1122
GlyphClass: 2
Flags: W
LayerCount: 2
Back
Fore
SplineSet
673 112 m 1,0,1
 553 -23 553 -23 375 -20 c 0,2,3
 219 -18 219 -18 139 92 c 128,-1,4
 59 202 59 202 77 382 c 1,5,-1
 194 1082 l 1,6,-1
 476 1082 l 1,7,-1
 357 379 l 2,8,9
 353 346 353 346 356 317 c 0,10,11
 366 217 366 217 467 214 c 0,12,13
 598 210 598 210 684 315 c 1,14,-1
 819 1082 l 1,15,-1
 1103 1082 l 1,16,-1
 915 0 l 1,17,-1
 652 0 l 1,18,-1
 673 112 l 1,0,1
EndSplineSet
Substitution2: "'smcp' Lowercase to Small Capitals lookup 1 subtable" U.c2sc
EndChar

StartChar: v
Encoding: 118 118 90
Width: 1014
GlyphClass: 2
Flags: W
LayerCount: 2
Back
Fore
SplineSet
458 357 m 1,0,-1
 766 1082 l 1,1,-1
 1070 1082 l 1,2,-1
 547 0 l 1,3,-1
 277 0 l 1,4,-1
 92 1082 l 1,5,-1
 378 1082 l 1,6,-1
 458 357 l 1,0,-1
EndSplineSet
Substitution2: "'smcp' Lowercase to Small Capitals lookup 1 subtable" V.c2sc
EndChar

StartChar: w
Encoding: 119 119 91
Width: 1470
GlyphClass: 2
Flags: W
LayerCount: 2
Back
Fore
SplineSet
980 394 m 1,0,-1
 1237 1082 l 1,1,-1
 1518 1082 l 1,2,-1
 1063 0 l 1,3,-1
 827 0 l 1,4,-1
 747 677 l 1,5,-1
 431 0 l 1,6,-1
 195 0 l 1,7,-1
 115 1082 l 1,8,-1
 379 1082 l 1,9,-1
 396 401 l 1,10,-1
 705 1082 l 1,11,-1
 909 1082 l 1,12,-1
 980 394 l 1,0,-1
EndSplineSet
Substitution2: "'smcp' Lowercase to Small Capitals lookup 1 subtable" W.c2sc
EndChar

StartChar: x
Encoding: 120 120 92
Width: 1021
GlyphClass: 2
Flags: W
LayerCount: 2
Back
Fore
SplineSet
524 761 m 1,0,-1
 751 1082 l 1,1,-1
 1068 1082 l 1,2,-1
 676 538 l 1,3,-1
 895 0 l 1,4,-1
 609 0 l 1,5,-1
 476 338 l 1,6,-1
 237 0 l 1,7,-1
 -82 0 l 1,8,-1
 326 566 l 1,9,-1
 117 1082 l 1,10,-1
 403 1082 l 1,11,-1
 524 761 l 1,0,-1
EndSplineSet
Substitution2: "'smcp' Lowercase to Small Capitals lookup 1 subtable" X.c2sc
EndChar

StartChar: y
Encoding: 121 121 93
Width: 1007
GlyphClass: 2
Flags: W
LayerCount: 2
Back
Fore
SplineSet
462 412 m 1,0,-1
 771 1082 l 1,1,-1
 1085 1082 l 1,2,-1
 452 -163 l 1,3,4
 384 -306 384 -306 292.5 -373 c 128,-1,5
 201 -440 201 -440 81 -440 c 0,6,7
 34 -440 34 -440 -55 -419 c 1,8,-1
 -34 -199 l 1,9,-1
 5 -201 l 2,10,11
 143 -205 143 -205 207 -100 c 1,12,-1
 269 15 l 1,13,-1
 92 1082 l 1,14,-1
 384 1082 l 1,15,-1
 462 412 l 1,0,-1
EndSplineSet
Substitution2: "'smcp' Lowercase to Small Capitals lookup 1 subtable" Y.c2sc
EndChar

StartChar: z
Encoding: 122 122 94
Width: 1021
GlyphClass: 2
Flags: W
LayerCount: 2
Back
Fore
SplineSet
371 235 m 1,0,-1
 881 233 l 1,1,-1
 840 0 l 1,2,-1
 -33 0 l 1,3,-1
 0 191 l 1,4,-1
 603 846 l 1,5,-1
 128 848 l 1,6,-1
 169 1082 l 1,7,-1
 1012 1082 l 1,8,-1
 980 897 l 1,9,-1
 371 235 l 1,0,-1
EndSplineSet
Substitution2: "'smcp' Lowercase to Small Capitals lookup 1 subtable" Z.c2sc
EndChar

StartChar: braceleft
Encoding: 123 123 95
Width: 666
Flags: W
LayerCount: 2
Back
Fore
SplineSet
438 -360 m 1,0,1
 280 -307 280 -307 203 -187 c 0,2,3
 126 -66 126 -66 144 106 c 1,4,-1
 172 311 l 2,5,6
 177 353 177 353 174 389 c 0,7,8
 164 502 164 502 39 513 c 1,9,-1
 58 720 l 1,10,11
 243 728 243 728 273 942 c 2,12,-1
 305 1172 l 1,13,14
 364 1497 364 1497 709 1601 c 1,15,-1
 756 1435 l 1,16,17
 588 1370 588 1370 555 1131 c 2,18,-1
 523 902 l 1,19,20
 489 709 489 709 300 613 c 1,21,22
 369 562 369 562 401 484.5 c 128,-1,23
 433 407 433 407 424 309 c 2,24,-1
 393 73 l 1,25,-1
 389 16 l 1,26,27
 382 -146 382 -146 499 -199 c 1,28,-1
 438 -360 l 1,0,1
EndSplineSet
EndChar

StartChar: bar
Encoding: 124 124 96
Width: 512
Flags: W
LayerCount: 2
Back
Fore
SplineSet
203 -270 m 1,0,-1
 31 -270 l 1,1,-1
 301 1456 l 1,2,-1
 473 1456 l 1,3,-1
 203 -270 l 1,0,-1
EndSplineSet
EndChar

StartChar: braceright
Encoding: 125 125 97
Width: 666
Flags: W
LayerCount: 2
Back
Fore
SplineSet
-94 -197 m 1,0,1
 74 -132 74 -132 107 107 c 2,2,-1
 139 337 l 1,3,4
 173 530 173 530 365 624 c 1,5,6
 293 673 293 673 261 752 c 128,-1,7
 229 831 229 831 238 929 c 2,8,-1
 269 1165 l 1,9,-1
 273 1222 l 1,10,11
 280 1383 280 1383 164 1437 c 1,12,-1
 228 1595 l 1,13,14
 389 1541 389 1541 462.5 1420.5 c 128,-1,15
 536 1300 536 1300 518 1132 c 1,16,-1
 490 928 l 2,17,18
 485 885 485 885 488 850 c 0,19,20
 498 735 498 735 623 724 c 1,21,-1
 604 517 l 1,22,23
 418 507 418 507 389 296 c 2,24,-1
 362 97 l 2,25,26
 311 -256 311 -256 -47 -364 c 1,27,-1
 -94 -197 l 1,0,1
EndSplineSet
EndChar

StartChar: asciitilde
Encoding: 126 126 98
Width: 1298
Flags: W
LayerCount: 2
Back
Fore
SplineSet
1203 795 m 1,0,1
 1197 677 1197 677 1151 578.5 c 128,-1,2
 1105 480 1105 480 1027 426 c 128,-1,3
 949 372 949 372 848 374 c 0,4,5
 771 376 771 376 710.5 409 c 128,-1,6
 650 442 650 442 593 501 c 128,-1,7
 536 560 536 560 507 576 c 128,-1,8
 478 592 478 592 443 593 c 0,9,10
 384 593 384 593 343.5 545.5 c 128,-1,11
 303 498 303 498 289 413 c 1,12,-1
 80 415 l 1,13,14
 92 601 92 601 189.5 716 c 128,-1,15
 287 831 287 831 438 828 c 0,16,17
 515 826 515 826 576.5 792.5 c 128,-1,18
 638 759 638 759 710 684.5 c 128,-1,19
 782 610 782 610 841 610 c 0,20,21
 903 610 903 610 945.5 660 c 128,-1,22
 988 710 988 710 1001 794 c 1,23,-1
 1203 795 l 1,0,1
EndSplineSet
EndChar

StartChar: exclamdown
Encoding: 161 161 99
Width: 571
Flags: W
LayerCount: 2
Back
Fore
SplineSet
171 639 m 1,0,-1
 406 639 l 1,1,-1
 263 -369 l 1,2,-1
 -37 -369 l 1,3,-1
 171 639 l 1,0,-1
499 953 m 0,4,5
 501 884 501 884 455 839 c 128,-1,6
 409 794 409 794 344 794 c 0,7,8
 281 792 281 792 233.5 834 c 128,-1,9
 186 876 186 876 184 943 c 0,10,11
 182 1008 182 1008 226 1054 c 128,-1,12
 270 1100 270 1100 339 1102 c 0,13,14
 403 1104 403 1104 450 1062.5 c 128,-1,15
 497 1021 497 1021 499 953 c 0,4,5
EndSplineSet
EndChar

StartChar: cent
Encoding: 162 162 100
Width: 1153
Flags: W
LayerCount: 2
Back
Fore
SplineSet
518 212 m 0,0,1
 596 210 596 210 649 254.5 c 128,-1,2
 702 299 702 299 717 373 c 1,3,-1
 983 375 l 1,4,5
 972 224 972 224 865.5 120.5 c 128,-1,6
 759 17 759 17 592 -11 c 1,7,-1
 543 -245 l 1,8,-1
 347 -245 l 1,9,-1
 397 -9 l 1,10,11
 233 29 233 29 154 173 c 128,-1,12
 75 317 75 317 96 523 c 0,13,14
 121 769 121 769 246 915.5 c 128,-1,15
 371 1062 371 1062 572 1094 c 1,16,-1
 619 1318 l 1,17,-1
 815 1318 l 1,18,-1
 768 1090 l 1,19,20
 901 1058 901 1058 975.5 950.5 c 128,-1,21
 1050 843 1050 843 1048 678 c 1,22,-1
 784 678 l 1,23,-1
 783 712 l 1,24,25
 770 863 770 863 636 869 c 0,26,27
 535 874 535 874 468.5 795 c 128,-1,28
 402 716 402 716 381 552 c 0,29,30
 369 442 369 442 372 391 c 0,31,32
 377 215 377 215 518 212 c 0,0,1
EndSplineSet
EndChar

StartChar: sterling
Encoding: 163 163 101
Width: 1190
Flags: W
LayerCount: 2
Back
Fore
SplineSet
544 576 m 1,0,-1
 527 429 l 2,1,2
 511 320 511 320 426 237 c 1,3,-1
 1066 241 l 1,4,-1
 1023 0 l 1,5,-1
 -6 0 l 1,6,-1
 37 240 l 1,7,-1
 112 238 l 1,8,9
 160 257 160 257 187 297.5 c 128,-1,10
 214 338 214 338 228 421 c 2,11,-1
 249 576 l 1,12,-1
 91 576 l 1,13,-1
 132 812 l 1,14,-1
 282 812 l 1,15,-1
 309 1033 l 2,16,17
 335 1241 335 1241 471 1360 c 128,-1,18
 607 1479 607 1479 807 1475 c 0,19,20
 998 1471 998 1471 1103.5 1359 c 128,-1,21
 1209 1247 1209 1247 1205 1057 c 1,22,-1
 925 1058 l 1,23,24
 930 1232 930 1232 789 1235 c 0,25,26
 719 1237 719 1237 668.5 1184 c 128,-1,27
 618 1131 618 1131 603 1040 c 1,28,-1
 576 812 l 1,29,-1
 876 812 l 1,30,-1
 835 576 l 1,31,-1
 544 576 l 1,0,-1
EndSplineSet
Substitution2: "'c2sc' Capitals to Small Capitals lookup 0 subtable" sterling.c2sc
Position2: "'cpsp' Capital Spacing lookup 0 subtable" dx=36 dy=0 dh=72 dv=0
EndChar

StartChar: currency
Encoding: 164 164 102
Width: 1385
Flags: W
LayerCount: 2
Back
Fore
SplineSet
972 105 m 1,0,1
 790 -24 790 -24 603 -20 c 0,2,3
 403 -16 403 -16 272 106 c 1,4,-1
 119 -26 l 1,5,-1
 -3 132 l 1,6,-1
 151 257 l 1,7,8
 94 442 94 442 114 602 c 0,9,10
 140 817 140 817 285 977 c 1,11,-1
 170 1134 l 1,12,-1
 318 1264 l 1,13,-1
 427 1121 l 1,14,15
 604 1237 604 1237 781 1233 c 0,16,17
 966 1231 966 1231 1102 1117 c 1,18,-1
 1272 1265 l 1,19,-1
 1395 1106 l 1,20,-1
 1226 967 l 1,21,22
 1288 781 1288 781 1268 615 c 0,23,24
 1244 412 1244 412 1111 255 c 1,25,-1
 1222 104 l 1,26,-1
 1073 -27 l 1,27,-1
 972 105 l 1,0,1
295 599 m 0,28,29
 280 489 280 489 314 389.5 c 128,-1,30
 348 290 348 290 424 231 c 128,-1,31
 500 172 500 172 605 168 c 0,32,33
 719 164 719 164 824 224 c 128,-1,34
 929 284 929 284 999.5 390 c 128,-1,35
 1070 496 1070 496 1088 617 c 0,36,37
 1103 727 1103 727 1069 826 c 128,-1,38
 1035 925 1035 925 959 983 c 128,-1,39
 883 1041 883 1041 779 1045 c 0,40,41
 664 1049 664 1049 557.5 988.5 c 128,-1,42
 451 928 451 928 382 824 c 128,-1,43
 313 720 313 720 295 599 c 0,28,29
EndSplineSet
EndChar

StartChar: yen
Encoding: 165 165 103
Width: 1226
Flags: W
LayerCount: 2
Back
Fore
SplineSet
643 852 m 1,0,-1
 1016 1456 l 1,1,-1
 1353 1456 l 1,2,-1
 861 744 l 1,3,-1
 1086 742 l 1,4,-1
 1053 567 l 1,5,-1
 745 567 l 1,6,-1
 724 452 l 1,7,-1
 1034 452 l 1,8,-1
 1003 278 l 1,9,-1
 695 278 l 1,10,-1
 646 0 l 1,11,-1
 353 0 l 1,12,-1
 402 278 l 1,13,-1
 75 278 l 1,14,-1
 106 452 l 1,15,-1
 431 452 l 1,16,-1
 452 567 l 1,17,-1
 125 567 l 1,18,-1
 156 742 l 1,19,-1
 417 742 l 1,20,-1
 172 1455 l 1,21,-1
 482 1456 l 1,22,-1
 643 852 l 1,0,-1
EndSplineSet
Substitution2: "'c2sc' Capitals to Small Capitals lookup 0 subtable" yen.c2sc
Position2: "'cpsp' Capital Spacing lookup 0 subtable" dx=36 dy=0 dh=72 dv=0
EndChar

StartChar: brokenbar
Encoding: 166 166 104
Width: 511
Flags: W
LayerCount: 2
Back
Fore
SplineSet
-28 -270 m 1,0,-1
 111 525 l 1,1,-1
 365 525 l 1,2,-1
 227 -270 l 1,3,-1
 -28 -270 l 1,0,-1
394 698 m 1,4,-1
 140 698 l 1,5,-1
 272 1456 l 1,6,-1
 526 1456 l 1,7,-1
 394 698 l 1,4,-1
EndSplineSet
EndChar

StartChar: section
Encoding: 167 167 105
Width: 1258
Flags: W
LayerCount: 2
Back
Fore
SplineSet
1126 489 m 0,0,1
 1119 387 1119 387 1063.5 319 c 128,-1,2
 1008 251 1008 251 921 205 c 1,3,4
 1016 94 1016 94 1005 -70 c 0,5,6
 997 -187 997 -187 929.5 -273 c 128,-1,7
 862 -359 862 -359 738 -407 c 128,-1,8
 614 -455 614 -455 458 -452 c 0,9,10
 228 -450 228 -450 100 -340 c 128,-1,11
 -28 -230 -28 -230 -24 -34 c 1,12,-1
 257 -34 l 1,13,14
 253 -125 253 -125 308 -171 c 128,-1,15
 363 -217 363 -217 468 -217 c 0,16,17
 577 -217 577 -217 643 -179 c 128,-1,18
 709 -141 709 -141 723 -73 c 0,19,20
 743 25 743 25 587 82 c 1,21,-1
 490 113 l 2,22,23
 262 183 262 183 168 280.5 c 128,-1,24
 74 378 74 378 83 526 c 0,25,26
 93 703 93 703 288 812 c 1,27,28
 192 925 192 925 202 1087 c 0,29,30
 214 1253 214 1253 345 1356 c 128,-1,31
 476 1459 476 1459 686 1474 c 1,32,-1
 753 1476 l 1,33,34
 971 1472 971 1472 1092.5 1359.5 c 128,-1,35
 1214 1247 1214 1247 1210 1048 c 1,36,-1
 930 1048 l 1,37,38
 933 1139 933 1139 884 1189.5 c 128,-1,39
 835 1240 835 1240 743 1242 c 0,40,41
 640 1245 640 1245 570.5 1203.5 c 128,-1,42
 501 1162 501 1162 486 1090 c 0,43,44
 464 973 464 973 639 924.5 c 128,-1,45
 814 876 814 876 906.5 829.5 c 128,-1,46
 999 783 999 783 1050 725 c 0,47,48
 1135 629 1135 629 1126 489 c 0,0,1
479 705 m 1,49,50
 389 650 389 650 372 555 c 0,51,52
 348 434 348 434 516 379 c 2,53,-1
 595 354 l 1,54,-1
 725 311 l 1,55,56
 820 367 820 367 840 460 c 0,57,58
 861 570 861 570 700 630 c 1,59,-1
 479 705 l 1,49,50
EndSplineSet
EndChar

StartChar: dieresis
Encoding: 168 168 106
Width: 937
Flags: W
LayerCount: 2
Back
Fore
SplineSet
210 1362 m 0,0,1
 208 1416 208 1416 246 1453.5 c 128,-1,2
 284 1491 284 1491 341 1493 c 0,3,4
 397 1495 397 1495 438 1458.5 c 128,-1,5
 479 1422 479 1422 479 1368 c 0,6,7
 481 1315 481 1315 442.5 1277.5 c 128,-1,8
 404 1240 404 1240 348 1238 c 0,9,10
 295 1236 295 1236 253.5 1271.5 c 128,-1,11
 212 1307 212 1307 210 1362 c 0,0,1
683 1362 m 0,12,13
 681 1416 681 1416 719 1453.5 c 128,-1,14
 757 1491 757 1491 813 1493 c 0,15,16
 866 1495 866 1495 908.5 1460 c 128,-1,17
 951 1425 951 1425 953 1368 c 0,18,19
 953 1314 953 1314 915 1276.5 c 128,-1,20
 877 1239 877 1239 821 1237 c 128,-1,21
 765 1235 765 1235 724 1271.5 c 128,-1,22
 683 1308 683 1308 683 1362 c 0,12,13
EndSplineSet
EndChar

StartChar: copyright
Encoding: 169 169 107
Width: 1568
Flags: W
LayerCount: 2
Back
Fore
SplineSet
1089 597 m 1,0,1
 1079 447 1079 447 988 362.5 c 128,-1,2
 897 278 897 278 744 282 c 0,3,4
 596 286 596 286 513.5 395.5 c 128,-1,5
 431 505 431 505 444 669 c 2,6,-1
 455 779 l 2,7,8
 474 963 474 963 577.5 1070.5 c 128,-1,9
 681 1178 681 1178 836 1176 c 0,10,11
 981 1172 981 1172 1061 1089 c 128,-1,12
 1141 1006 1141 1006 1139 859 c 1,13,-1
 987 861 l 1,14,15
 1000 1038 1000 1038 841 1042 c 0,16,17
 748 1044 748 1044 685.5 972.5 c 128,-1,18
 623 901 623 901 608.5 776.5 c 128,-1,19
 594 652 594 652 593.5 631.5 c 128,-1,20
 593 611 593 611 595 584 c 0,21,22
 598 511 598 511 635 465.5 c 128,-1,23
 672 420 672 420 737 417 c 0,24,25
 906 410 906 410 937 596 c 1,26,-1
 1089 597 l 1,0,1
235 722 m 0,27,28
 213 563 213 563 264.5 419.5 c 128,-1,29
 316 276 316 276 429.5 191 c 128,-1,30
 543 106 543 106 692 104 c 0,31,32
 853 100 853 100 998.5 182.5 c 128,-1,33
 1144 265 1144 265 1245 413 c 128,-1,34
 1346 561 1346 561 1371 736 c 0,35,36
 1393 895 1393 895 1341.5 1037.5 c 128,-1,37
 1290 1180 1290 1180 1178 1263.5 c 128,-1,38
 1066 1347 1066 1347 914 1351 c 0,39,40
 752 1355 752 1355 602.5 1270 c 128,-1,41
 453 1185 453 1185 355 1035.5 c 128,-1,42
 257 886 257 886 235 722 c 0,27,28
114 722 m 0,43,44
 131 874 131 874 200 1014.5 c 128,-1,45
 269 1155 269 1155 380.5 1262 c 128,-1,46
 492 1369 492 1369 625.5 1424 c 128,-1,47
 759 1479 759 1479 902 1476 c 0,48,49
 1085 1472 1085 1472 1227 1373.5 c 128,-1,50
 1369 1275 1369 1275 1441.5 1101.5 c 128,-1,51
 1514 928 1514 928 1493 735 c 0,52,53
 1472 546 1472 546 1372.5 379 c 128,-1,54
 1273 212 1273 212 1118 107 c 0,55,56
 924 -24 924 -24 705 -20 c 0,57,58
 520 -16 520 -16 378.5 83.5 c 128,-1,59
 237 183 237 183 165 357 c 128,-1,60
 93 531 93 531 114 722 c 0,43,44
EndSplineSet
EndChar

StartChar: ordfeminine
Encoding: 170 170 108
Width: 892
Flags: W
LayerCount: 2
Back
Fore
SplineSet
619 702 m 1,0,-1
 616 774 l 1,1,2
 527 691 527 691 415 691 c 0,3,4
 310 691 310 691 248.5 751 c 128,-1,5
 187 811 187 811 187 911 c 0,6,7
 189 1026 189 1026 281.5 1088.5 c 128,-1,8
 374 1151 374 1151 542 1151 c 2,9,-1
 648 1149 l 1,10,-1
 660 1204 l 1,11,-1
 664 1250 l 1,12,13
 661 1325 661 1325 583 1328 c 0,14,15
 463 1332 463 1332 436 1229 c 1,16,-1
 263 1242 l 1,17,18
 270 1352 270 1352 357.5 1415.5 c 128,-1,19
 445 1479 445 1479 577 1477 c 0,20,21
 698 1475 698 1475 770 1400 c 128,-1,22
 842 1325 842 1325 832 1200 c 1,23,-1
 779 853 l 1,24,-1
 775 794 l 2,25,26
 774 750 774 750 783 702 c 1,27,-1
 619 702 l 1,0,-1
448 833 m 0,28,29
 517 833 517 833 609 896 c 1,30,-1
 637 1033 l 1,31,-1
 557 1033 l 2,32,33
 473 1030 473 1030 422 998.5 c 128,-1,34
 371 967 371 967 362 915 c 0,35,36
 355 877 355 877 377.5 855 c 128,-1,37
 400 833 400 833 448 833 c 0,28,29
EndSplineSet
EndChar

StartChar: logicalnot
Encoding: 172 172 110
Width: 1105
Flags: W
LayerCount: 2
Back
Fore
SplineSet
894 374 m 1,0,-1
 698 374 l 1,1,-1
 744 634 l 1,2,-1
 127 634 l 1,3,-1
 157 805 l 1,4,-1
 969 805 l 1,5,-1
 894 374 l 1,0,-1
EndSplineSet
EndChar

StartChar: registered
Encoding: 174 174 111
Width: 1568
Flags: W
LayerCount: 2
Back
Fore
SplineSet
114 722 m 0,0,1
 131 874 131 874 200 1014.5 c 128,-1,2
 269 1155 269 1155 380.5 1262 c 128,-1,3
 492 1369 492 1369 625.5 1424 c 128,-1,4
 759 1479 759 1479 902 1476 c 0,5,6
 1085 1472 1085 1472 1227 1373.5 c 128,-1,7
 1369 1275 1369 1275 1441.5 1101.5 c 128,-1,8
 1514 928 1514 928 1493 735 c 0,9,10
 1472 546 1472 546 1372.5 379 c 128,-1,11
 1273 212 1273 212 1118 107 c 0,12,13
 924 -24 924 -24 705 -20 c 0,14,15
 520 -16 520 -16 378.5 83.5 c 128,-1,16
 237 183 237 183 165 357 c 128,-1,17
 93 531 93 531 114 722 c 0,0,1
235 722 m 0,18,19
 213 562 213 562 265 418 c 128,-1,20
 317 274 317 274 429 191 c 128,-1,21
 541 108 541 108 692 104 c 0,22,23
 849 100 849 100 996.5 182 c 128,-1,24
 1144 264 1144 264 1245 412.5 c 128,-1,25
 1346 561 1346 561 1371 736 c 0,26,27
 1393 895 1393 895 1341.5 1037.5 c 128,-1,28
 1290 1180 1290 1180 1178 1263.5 c 128,-1,29
 1066 1347 1066 1347 914 1351 c 0,30,31
 752 1355 752 1355 602.5 1270 c 128,-1,32
 453 1185 453 1185 355 1035.5 c 128,-1,33
 257 886 257 886 235 722 c 0,18,19
653 653 m 1,34,-1
 600 316 l 1,35,-1
 452 316 l 1,36,-1
 585 1166 l 1,37,-1
 841 1165 l 1,38,39
 983 1160 983 1160 1059.5 1092 c 128,-1,40
 1136 1024 1136 1024 1131 910 c 0,41,42
 1128 852 1128 852 1095 807 c 128,-1,43
 1062 762 1062 762 994 723 c 1,44,45
 1062 674 1062 674 1068 574 c 0,46,47
 1069 545 1069 545 1062.5 484.5 c 128,-1,48
 1056 424 1056 424 1058 396 c 2,49,-1
 1062 333 l 1,50,-1
 1061 314 l 1,51,-1
 913 315 l 1,52,53
 907 352 907 352 909 388 c 0,54,55
 910 431 910 431 921 516 c 0,56,57
 928 579 928 579 907 613 c 128,-1,58
 886 647 886 647 820 651 c 2,59,-1
 653 653 l 1,34,-1
674 787 m 1,60,-1
 790 786 l 2,61,62
 872 789 872 789 924 821.5 c 128,-1,63
 976 854 976 854 987 909 c 0,64,65
 998 967 998 967 970 998 c 128,-1,66
 942 1029 942 1029 853 1032 c 2,67,-1
 712 1033 l 1,68,-1
 674 787 l 1,60,-1
EndSplineSet
EndChar

StartChar: macron
Encoding: 175 175 112
Width: 1005
Flags: W
LayerCount: 2
Back
Fore
SplineSet
960 1290 m 1,0,-1
 250 1290 l 1,1,-1
 277 1457 l 1,2,-1
 987 1457 l 1,3,-1
 960 1290 l 1,0,-1
EndSplineSet
EndChar

StartChar: degree
Encoding: 176 176 113
Width: 781
Flags: W
LayerCount: 2
Back
Fore
SplineSet
228 1191 m 0,0,1
 230 1308 230 1308 314.5 1393.5 c 128,-1,2
 399 1479 399 1479 510 1477 c 0,3,4
 614 1475 614 1475 683.5 1395 c 128,-1,5
 753 1315 753 1315 751 1209 c 0,6,7
 749 1093 749 1093 666.5 1009 c 128,-1,8
 584 925 584 925 473 927 c 0,9,10
 368 929 368 929 297 1006.5 c 128,-1,11
 226 1084 226 1084 228 1191 c 0,0,1
371 1193 m 0,12,13
 365 1148 365 1148 391 1112 c 128,-1,14
 417 1076 417 1076 465 1076 c 0,15,16
 516 1076 516 1076 558 1113 c 128,-1,17
 600 1150 600 1150 609 1207 c 0,18,19
 615 1256 615 1256 590 1292.5 c 128,-1,20
 565 1329 565 1329 518 1329 c 0,21,22
 467 1329 467 1329 423.5 1289 c 128,-1,23
 380 1249 380 1249 371 1193 c 0,12,13
EndSplineSet
EndChar

StartChar: plusminus
Encoding: 177 177 114
Width: 1077
Flags: W
LayerCount: 2
Back
Fore
SplineSet
711 942 m 1,0,-1
 1030 942 l 1,1,-1
 992 701 l 1,2,-1
 674 701 l 1,3,-1
 617 337 l 1,4,-1
 369 337 l 1,5,-1
 426 701 l 1,6,-1
 101 701 l 1,7,-1
 139 942 l 1,8,-1
 464 942 l 1,9,-1
 518 1285 l 1,10,-1
 765 1285 l 1,11,-1
 711 942 l 1,0,-1
855 1 m 1,12,-1
 15 1 l 1,13,-1
 52 236 l 1,14,-1
 892 236 l 1,15,-1
 855 1 l 1,12,-1
EndSplineSet
EndChar

StartChar: uni00B2
Encoding: 178 178 115
Width: 750
Flags: W
LayerCount: 2
Back
Fore
SplineSet
684 667 m 1,0,-1
 81 667 l 1,1,-1
 107 817 l 1,2,-1
 442 1087 l 2,3,4
 537 1166 537 1166 549 1228 c 0,5,6
 557 1264 557 1264 539 1285 c 128,-1,7
 521 1306 521 1306 485 1306 c 0,8,9
 388 1306 388 1306 364 1194 c 1,10,-1
 160 1192 l 1,11,12
 168 1318 168 1318 256.5 1394.5 c 128,-1,13
 345 1471 345 1471 473 1469 c 0,14,15
 604 1467 604 1467 680.5 1402.5 c 128,-1,16
 757 1338 757 1338 755 1227 c 0,17,18
 750 1089 750 1089 586 972 c 2,19,-1
 508 917 l 1,20,-1
 378 833 l 1,21,-1
 714 831 l 1,22,-1
 684 667 l 1,0,-1
EndSplineSet
EndChar

StartChar: uni00B3
Encoding: 179 179 116
Width: 750
Flags: W
LayerCount: 2
Back
Fore
SplineSet
350 1136 m 1,0,-1
 431 1136 l 2,1,2
 485 1138 485 1138 521.5 1162.5 c 128,-1,3
 558 1187 558 1187 567 1231 c 0,4,5
 572 1265 572 1265 549 1283.5 c 128,-1,6
 526 1302 526 1302 490 1302 c 0,7,8
 410 1302 410 1302 382 1242 c 1,9,-1
 174 1241 l 1,10,11
 181 1347 181 1347 263.5 1408 c 128,-1,12
 346 1469 346 1469 476 1467 c 0,13,14
 612 1464 612 1464 690.5 1405.5 c 128,-1,15
 769 1347 769 1347 766 1248 c 0,16,17
 763 1130 763 1130 608 1065 c 1,18,19
 666 1045 666 1045 695 999.5 c 128,-1,20
 724 954 724 954 723 894 c 0,21,22
 721 783 721 783 625.5 717.5 c 128,-1,23
 530 652 530 652 386 655 c 0,24,25
 257 657 257 657 177.5 724 c 128,-1,26
 98 791 98 791 96 904 c 1,27,-1
 291 903 l 1,28,29
 298 821 298 821 393 821 c 0,30,31
 445 821 445 821 482 846 c 128,-1,32
 519 871 519 871 528 914 c 0,33,34
 544 994 544 994 434 999 c 1,35,-1
 340 999 l 1,36,-1
 350 1136 l 1,0,-1
EndSplineSet
EndChar

StartChar: acute
Encoding: 180 180 117
Width: 669
Flags: W
LayerCount: 2
Back
Fore
SplineSet
426 1536 m 1,0,-1
 753 1536 l 1,1,-1
 435 1226 l 1,2,-1
 186 1226 l 1,3,-1
 426 1536 l 1,0,-1
EndSplineSet
EndChar

StartChar: mu
Encoding: 181 181 118
Width: 1233
Flags: W
LayerCount: 2
Back
Fore
SplineSet
500 1082 m 1,0,-1
 397 460 l 1,1,-1
 391 377 l 1,2,3
 384 217 384 217 516 214 c 0,4,5
 649 210 649 210 737 318 c 1,6,-1
 872 1082 l 1,7,-1
 1154 1082 l 1,8,-1
 966 0 l 1,9,-1
 718 0 l 1,10,-1
 726 69 l 1,11,12
 620 -24 620 -24 496 -22 c 0,13,14
 403 -22 403 -22 327 26 c 1,15,-1
 240 -416 l 1,16,-1
 -42 -416 l 1,17,-1
 218 1082 l 1,18,-1
 500 1082 l 1,0,-1
EndSplineSet
EndChar

StartChar: paragraph
Encoding: 182 182 119
Width: 983
Flags: W
LayerCount: 2
Back
Fore
SplineSet
535 0 m 1,0,-1
 625 520 l 1,1,-1
 573 521 l 2,2,3
 362 524 362 524 246.5 651 c 128,-1,4
 131 778 131 778 149 980 c 0,5,6
 168 1194 168 1194 317 1325.5 c 128,-1,7
 466 1457 466 1457 689 1457 c 2,8,-1
 1002 1456 l 1,9,-1
 749 0 l 1,10,-1
 535 0 l 1,0,-1
EndSplineSet
EndChar

StartChar: periodcentered
Encoding: 183 183 120
Width: 608
Flags: W
LayerCount: 2
Back
Fore
SplineSet
154 692 m 0,0,1
 152 759 152 759 197 805 c 128,-1,2
 242 851 242 851 310 853 c 0,3,4
 375 855 375 855 422.5 812 c 128,-1,5
 470 769 470 769 472 702 c 0,6,7
 474 637 474 637 428.5 589.5 c 128,-1,8
 383 542 383 542 314 542 c 0,9,10
 250 540 250 540 203 581.5 c 128,-1,11
 156 623 156 623 154 692 c 0,0,1
EndSplineSet
EndChar

StartChar: cedilla
Encoding: 184 184 121
Width: 542
GlyphClass: 4
Flags: W
LayerCount: 2
Back
Fore
SplineSet
222 9 m 1,0,-1
 202 -55 l 1,1,2
 264 -68 264 -68 295.5 -111.5 c 128,-1,3
 327 -155 327 -155 327 -217 c 0,4,5
 327 -332 327 -332 231 -396 c 128,-1,6
 135 -460 135 -460 -45 -465 c 1,7,-1
 -37 -295 l 1,8,9
 74 -290 74 -290 91 -207 c 0,10,11
 103 -146 103 -146 5 -139 c 2,12,-1
 -30 -136 l 1,13,-1
 13 6 l 1,14,-1
 222 9 l 1,0,-1
EndSplineSet
EndChar

StartChar: uni00B9
Encoding: 185 185 122
Width: 750
Flags: W
LayerCount: 2
Back
Fore
SplineSet
525 669 m 1,0,-1
 325 669 l 1,1,-1
 420 1212 l 1,2,-1
 229 1172 l 1,3,-1
 259 1340 l 1,4,-1
 628 1455 l 1,5,-1
 653 1456 l 1,6,-1
 525 669 l 1,0,-1
EndSplineSet
EndChar

StartChar: ordmasculine
Encoding: 186 186 123
Width: 918
Flags: W
LayerCount: 2
Back
Fore
SplineSet
581 1477 m 0,0,1
 729 1473 729 1473 810 1371.5 c 128,-1,2
 891 1270 891 1270 881 1121 c 2,3,-1
 875 1055 l 2,4,5
 859 884 859 884 754.5 784.5 c 128,-1,6
 650 685 650 685 501 689 c 0,7,8
 357 693 357 693 273 792.5 c 128,-1,9
 189 892 189 892 200 1044 c 2,10,-1
 205 1107 l 2,11,12
 218 1274 218 1274 322.5 1377.5 c 128,-1,13
 427 1481 427 1481 581 1477 c 0,0,1
372 1041 m 2,14,15
 369 1005 369 1005 372 969 c 0,16,17
 377 908 377 908 410.5 871.5 c 128,-1,18
 444 835 444 835 500 834 c 0,19,20
 576 831 576 831 631 887.5 c 128,-1,21
 686 944 686 944 701 1044 c 1,22,-1
 712 1145 l 1,23,-1
 711 1194 l 1,24,25
 696 1326 696 1326 583 1329 c 0,26,27
 506 1332 506 1332 451 1276.5 c 128,-1,28
 396 1221 396 1221 381 1121 c 2,29,-1
 372 1041 l 2,14,15
EndSplineSet
EndChar

StartChar: questiondown
Encoding: 191 191 128
Width: 998
Flags: W
LayerCount: 2
Back
Fore
SplineSet
648 644 m 1,0,1
 640 522 640 522 598 433 c 128,-1,2
 556 344 556 344 470 271 c 2,3,-1
 402 214 l 2,4,5
 275 108 275 108 258 -2 c 0,6,7
 249 -66 249 -66 275 -108 c 128,-1,8
 301 -150 301 -150 370 -152 c 0,9,10
 441 -154 441 -154 490.5 -110 c 128,-1,11
 540 -66 540 -66 559 21 c 1,12,-1
 841 23 l 1,13,14
 828 -168 828 -168 695.5 -278.5 c 128,-1,15
 563 -389 563 -389 360 -385 c 0,16,17
 174 -383 174 -383 66 -281 c 128,-1,18
 -42 -179 -42 -179 -31 -2 c 0,19,20
 -20 159 -20 159 148 309 c 1,21,-1
 293 430 l 1,22,23
 379 509 379 509 402 643 c 1,24,-1
 648 644 l 1,0,1
747 954 m 0,25,26
 749 885 749 885 703 840 c 128,-1,27
 657 795 657 795 592 795 c 0,28,29
 528 793 528 793 481 834.5 c 128,-1,30
 434 876 434 876 432 944 c 0,31,32
 430 1013 430 1013 476 1058 c 128,-1,33
 522 1103 522 1103 587 1103 c 0,34,35
 651 1105 651 1105 698 1063.5 c 128,-1,36
 745 1022 745 1022 747 954 c 0,25,26
EndSplineSet
EndChar

StartChar: AE
Encoding: 198 198 129
Width: 1877
GlyphClass: 2
Flags: W
LayerCount: 2
Back
Fore
SplineSet
1706 0 m 1,0,-1
 835 0 l 1,1,-1
 879 333 l 1,2,-1
 456 333 l 1,3,-1
 236 0 l 1,4,-1
 -111 0 l 1,5,-1
 904 1456 l 1,6,-1
 1900 1456 l 1,7,-1
 1858 1220 l 1,8,-1
 1278 1220 l 1,9,-1
 1231 865 l 1,10,-1
 1719 865 l 1,11,-1
 1677 629 l 1,12,-1
 1200 629 l 1,13,-1
 1147 235 l 1,14,-1
 1747 235 l 1,15,-1
 1706 0 l 1,0,-1
615 582 m 1,16,-1
 913 580 l 1,17,-1
 986 1132 l 1,18,-1
 615 582 l 1,16,-1
EndSplineSet
EndChar

StartChar: multiply
Encoding: 215 215 130
Width: 1065
Flags: W
LayerCount: 2
Back
Fore
SplineSet
25 386 m 1,0,-1
 378 699 l 1,1,-1
 134 1012 l 1,2,-1
 314 1167 l 1,3,-1
 556 857 l 1,4,-1
 904 1168 l 1,5,-1
 1052 986 l 1,6,-1
 699 672 l 1,7,-1
 943 360 l 1,8,-1
 764 204 l 1,9,-1
 521 514 l 1,10,-1
 173 205 l 1,11,-1
 25 386 l 1,0,-1
EndSplineSet
EndChar

StartChar: Oslash
Encoding: 216 216 131
Width: 1379
GlyphClass: 2
Flags: W
LayerCount: 2
Back
Fore
SplineSet
606 -21 m 0,0,1
 451 -19 451 -19 327 51 c 1,2,-1
 215 -95 l 1,3,-1
 12 -94 l 1,4,-1
 206 150 l 1,5,6
 68 382 68 382 107 695 c 1,7,-1
 115 753 l 2,8,9
 145 967 145 967 244.5 1135 c 128,-1,10
 344 1303 344 1303 493.5 1391 c 128,-1,11
 643 1479 643 1479 824 1477 c 0,12,13
 993 1473 993 1473 1118 1393 c 1,14,-1
 1217 1518 l 1,15,-1
 1419 1517 l 1,16,-1
 1236 1288 l 1,17,18
 1356 1056 1356 1056 1320 759 c 2,19,-1
 1315 719 l 2,20,21
 1273 386 1273 386 1080.5 181 c 128,-1,22
 888 -24 888 -24 606 -21 c 0,0,1
387 552 m 0,23,24
 382 480 382 480 390 408 c 1,25,-1
 965 1172 l 1,26,27
 914 1226 914 1226 813 1231 c 0,28,29
 655 1236 655 1236 550.5 1109 c 128,-1,30
 446 982 446 982 411 749 c 0,31,32
 392 621 392 621 387 552 c 0,23,24
1044 1020 m 1,33,-1
 479 268 l 1,34,35
 530 228 530 228 618 223 c 0,36,37
 765 218 765 218 867 331 c 128,-1,38
 969 444 969 444 1010 660.5 c 128,-1,39
 1051 877 1051 877 1044 1020 c 1,33,-1
EndSplineSet
EndChar

StartChar: Thorn
Encoding: 222 222 132
Width: 1219
Flags: W
LayerCount: 2
Back
Fore
SplineSet
559 1456 m 1,0,-1
 512 1189 l 1,1,-1
 689 1188 l 2,2,3
 923 1187 923 1187 1054 1066 c 128,-1,4
 1185 945 1185 945 1170 746 c 0,5,6
 1159 605 1159 605 1082 501 c 128,-1,7
 1005 397 1005 397 876 341.5 c 128,-1,8
 747 286 747 286 590 286 c 2,9,-1
 357 287 l 1,10,-1
 306 0 l 1,11,-1
 24 0 l 1,12,-1
 277 1456 l 1,13,-1
 559 1456 l 1,0,-1
473 956 m 1,14,-1
 397 520 l 1,15,-1
 595 519 l 2,16,17
 708 519 708 519 789.5 578.5 c 128,-1,18
 871 638 871 638 888 744 c 0,19,20
 902 839 902 839 852 895 c 128,-1,21
 802 951 802 951 705 955 c 2,22,-1
 473 956 l 1,14,-1
EndSplineSet
EndChar

StartChar: germandbls
Encoding: 223 223 133
Width: 1263
Flags: W
LayerCount: 2
Back
Fore
SplineSet
308 0 m 1,0,-1
 26 0 l 1,1,-1
 214 1101 l 1,2,3
 243 1319 243 1319 382 1442 c 128,-1,4
 521 1565 521 1565 734 1559 c 0,5,6
 908 1555 908 1555 1009 1454.5 c 128,-1,7
 1110 1354 1110 1354 1099 1197 c 0,8,9
 1096 1151 1096 1151 1080 1110.5 c 128,-1,10
 1064 1070 1064 1070 1019 995 c 128,-1,11
 974 920 974 920 961 889 c 128,-1,12
 948 858 948 858 941 821 c 0,13,14
 933 775 933 775 953.5 726.5 c 128,-1,15
 974 678 974 678 1034 603.5 c 128,-1,16
 1094 529 1094 529 1120.5 472.5 c 128,-1,17
 1147 416 1147 416 1145 363 c 0,18,19
 1136 184 1136 184 1005.5 80.5 c 128,-1,20
 875 -23 875 -23 670 -21 c 0,21,22
 504 -19 504 -19 391 38 c 1,23,-1
 467 265 l 1,24,25
 556 210 556 210 672 212 c 0,26,27
 744 212 744 212 799 250 c 128,-1,28
 854 288 854 288 867 357 c 0,29,30
 875 405 875 405 853.5 453 c 128,-1,31
 832 501 832 501 766 576.5 c 128,-1,32
 700 652 700 652 674 712 c 0,33,34
 654 758 654 758 657 808 c 0,35,36
 660 853 660 853 676 892.5 c 128,-1,37
 692 932 692 932 734.5 1002.5 c 128,-1,38
 777 1073 777 1073 792 1109 c 128,-1,39
 807 1145 807 1145 812 1184 c 0,40,41
 820 1246 820 1246 789.5 1287 c 128,-1,42
 759 1328 759 1328 696 1331 c 0,43,44
 614 1334 614 1334 563 1275 c 128,-1,45
 512 1216 512 1216 495 1098 c 2,46,-1
 308 0 l 1,0,-1
EndSplineSet
Substitution2: "'c2sc' Capitals to Small Capitals lookup 0 subtable" germandbls.c2sc
EndChar

StartChar: ae
Encoding: 230 230 134
Width: 1687
GlyphClass: 2
Flags: W
LayerCount: 2
Back
Fore
SplineSet
1123 -20 m 1,0,1
 880 -15 880 -15 771 126 c 1,2,3
 601 -24 601 -24 367 -20 c 0,4,5
 261 -19 261 -19 177.5 22.5 c 128,-1,6
 94 64 94 64 52 137.5 c 128,-1,7
 10 211 10 211 15 311 c 0,8,9
 22 475 22 475 159.5 562.5 c 128,-1,10
 297 650 297 650 537 650 c 2,11,-1
 704 648 l 1,12,-1
 717 708 l 2,13,14
 722 741 722 741 719 770 c 0,15,16
 705 866 705 866 604 869 c 0,17,18
 534 871 534 871 481 838.5 c 128,-1,19
 428 806 428 806 415 745 c 1,20,-1
 134 763 l 1,21,22
 142 923 142 923 282 1015 c 128,-1,23
 422 1107 422 1107 620 1103 c 0,24,25
 824 1098 824 1098 922 993 c 1,26,27
 1073 1105 1073 1105 1253 1101 c 0,28,29
 1445 1097 1445 1097 1548.5 961.5 c 128,-1,30
 1652 826 1652 826 1628 612 c 1,31,-1
 1603 450 l 1,32,-1
 961 450 l 1,33,34
 951 342 951 342 1003 279 c 128,-1,35
 1055 216 1055 216 1159 214 c 0,36,37
 1240 212 1240 212 1313 234 c 128,-1,38
 1386 256 1386 256 1458 290 c 1,39,-1
 1519 97 l 1,40,41
 1384 -20 1384 -20 1123 -20 c 1,0,1
426 191 m 0,42,43
 522 191 522 191 642 271 c 1,44,-1
 680 461 l 1,45,-1
 541 462 l 2,46,47
 442 459 442 459 376 417 c 128,-1,48
 310 375 310 375 299 307 c 0,49,50
 289 254 289 254 324 222.5 c 128,-1,51
 359 191 359 191 426 191 c 0,42,43
1237 869 m 0,52,53
 1066 875 1066 875 981 643 c 1,54,-1
 1350 643 l 1,55,-1
 1357 674 l 2,56,57
 1363 710 1363 710 1361 745 c 0,58,59
 1354 863 1354 863 1237 869 c 0,52,53
EndSplineSet
EndChar

StartChar: eth
Encoding: 240 240 135
Width: 1153
Flags: W
LayerCount: 2
Back
Fore
SplineSet
948 1302 m 1,0,1
 1035 1147 1035 1147 1069 989 c 128,-1,2
 1103 831 1103 831 1082 653 c 2,3,-1
 1076 601 l 2,4,5
 1042 320 1042 320 878.5 147 c 128,-1,6
 715 -26 715 -26 488 -21 c 0,7,8
 359 -18 359 -18 257.5 44.5 c 128,-1,9
 156 107 156 107 104 218.5 c 128,-1,10
 52 330 52 330 64 460 c 0,11,12
 77 608 77 608 144 726 c 128,-1,13
 211 844 211 844 319.5 906.5 c 128,-1,14
 428 969 428 969 565 967 c 0,15,16
 694 963 694 963 802 889 c 1,17,18
 796 1029 796 1029 710 1154 c 1,19,-1
 499 1031 l 1,20,-1
 437 1159 l 1,21,-1
 598 1248 l 1,22,23
 517 1315 517 1315 363 1357 c 1,24,-1
 471 1579 l 1,25,26
 694 1526 694 1526 842 1399 c 1,27,-1
 1034 1511 l 1,28,-1
 1094 1382 l 1,29,-1
 948 1302 l 1,0,1
809 665 m 1,30,31
 782 706 782 706 732 727 c 128,-1,32
 682 748 682 748 621 748 c 0,33,34
 509 750 509 750 434.5 669.5 c 128,-1,35
 360 589 360 589 346 460 c 0,36,37
 334 351 334 351 377.5 282.5 c 128,-1,38
 421 214 421 214 506 211 c 0,39,40
 607 208 607 208 679.5 289.5 c 128,-1,41
 752 371 752 371 783 526 c 2,42,-1
 806 652 l 1,43,-1
 809 665 l 1,30,31
EndSplineSet
Substitution2: "'smcp' Lowercase to Small Capitals lookup 1 subtable" Eth.c2sc
EndChar

StartChar: divide
Encoding: 247 247 136
Width: 1143
Flags: W
LayerCount: 2
Back
Fore
SplineSet
1054 571 m 1,0,-1
 55 571 l 1,1,-1
 95 801 l 1,2,-1
 1095 801 l 1,3,-1
 1054 571 l 1,0,-1
487 1084 m 0,4,5
 485 1150 485 1150 530 1196 c 128,-1,6
 575 1242 575 1242 644 1242 c 0,7,8
 711 1244 711 1244 757 1202 c 128,-1,9
 803 1160 803 1160 805 1094 c 128,-1,10
 807 1028 807 1028 761.5 983 c 128,-1,11
 716 938 716 938 649 938 c 0,12,13
 581 936 581 936 535 977.5 c 128,-1,14
 489 1019 489 1019 487 1084 c 0,4,5
346 272 m 0,15,16
 344 338 344 338 389 384 c 128,-1,17
 434 430 434 430 503 430 c 0,18,19
 570 432 570 432 616 390 c 128,-1,20
 662 348 662 348 664 282 c 128,-1,21
 666 216 666 216 620.5 171 c 128,-1,22
 575 126 575 126 508 126 c 0,23,24
 440 124 440 124 394 165.5 c 128,-1,25
 348 207 348 207 346 272 c 0,15,16
EndSplineSet
EndChar

StartChar: oslash
Encoding: 248 248 137
Width: 1131
GlyphClass: 2
Flags: W
LayerCount: 2
Back
Fore
SplineSet
55 545 m 0,0,1
 75 707 75 707 153 837.5 c 128,-1,2
 231 968 231 968 353.5 1037 c 128,-1,3
 476 1106 476 1106 627 1104 c 0,4,5
 718 1103 718 1103 807 1072 c 1,6,-1
 907 1216 l 1,7,-1
 1081 1215 l 1,8,-1
 931 1001 l 1,9,10
 1045 867 1045 867 1054 673 c 0,11,12
 1056 615 1056 615 1048 532 c 0,13,14
 1028 370 1028 370 951 243 c 128,-1,15
 874 116 874 116 750 46 c 128,-1,16
 626 -24 626 -24 475 -22 c 0,17,18
 388 -21 388 -21 304 7 c 1,19,-1
 201 -142 l 1,20,-1
 27 -141 l 1,21,-1
 177 74 l 1,22,23
 58 205 58 205 50 402 c 0,24,25
 47 459 47 459 55 545 c 0,0,1
320 423 m 0,26,27
 316 371 316 371 326 320 c 1,28,-1
 682 860 l 1,29,30
 650 872 650 872 616 872 c 0,31,32
 489 874 489 874 412 761 c 128,-1,33
 335 648 335 648 320 423 c 0,26,27
782 651 m 0,34,35
 785 699 785 699 778 749 c 1,36,-1
 425 218 l 1,37,38
 455 210 455 210 484 209 c 0,39,40
 592 207 592 207 666 289.5 c 128,-1,41
 740 372 740 372 768 532 c 0,42,43
 779 608 779 608 782 651 c 0,34,35
EndSplineSet
EndChar

StartChar: thorn
Encoding: 254 254 138
Width: 1137
Flags: W
LayerCount: 2
Back
Fore
SplineSet
1044 538 m 0,0,1
 1023 365 1023 365 954.5 234 c 128,-1,2
 886 103 886 103 785.5 39.5 c 128,-1,3
 685 -24 685 -24 562 -21 c 0,4,5
 408 -17 408 -17 314 95 c 1,6,-1
 216 -416 l 1,7,-1
 -67 -416 l 1,8,-1
 271 1536 l 1,9,-1
 555 1536 l 1,10,-1
 447 987 l 1,11,12
 560 1106 560 1106 709 1102 c 0,13,14
 865 1100 865 1100 954.5 989.5 c 128,-1,15
 1044 879 1044 879 1050 684 c 0,16,17
 1052 622 1052 622 1044 538 c 0,0,1
764 559 m 1,18,-1
 770 655 l 1,19,20
 772 752 772 752 734.5 809 c 128,-1,21
 697 866 697 866 625 868 c 0,22,23
 505 872 505 872 423 766 c 1,24,-1
 341 316 l 1,25,26
 378 215 378 215 500 213 c 0,27,28
 598 210 598 210 665.5 287.5 c 128,-1,29
 733 365 733 365 758 517 c 2,30,-1
 764 559 l 1,18,-1
EndSplineSet
EndChar

StartChar: Hbar
Encoding: 294 294 139
Width: 1440
GlyphClass: 2
Flags: W
LayerCount: 2
Back
Fore
SplineSet
1400 1224 m 1,0,-1
 1519 1224 l 1,1,-1
 1489 1050 l 1,2,-1
 1370 1050 l 1,3,-1
 1188 0 l 1,4,-1
 895 0 l 1,5,-1
 1004 624 l 1,6,-1
 438 624 l 1,7,-1
 330 0 l 1,8,-1
 36 0 l 1,9,-1
 218 1050 l 1,10,-1
 108 1050 l 1,11,-1
 138 1224 l 1,12,-1
 248 1224 l 1,13,-1
 288 1456 l 1,14,-1
 583 1456 l 1,15,-1
 542 1224 l 1,16,-1
 1107 1224 l 1,17,-1
 1148 1456 l 1,18,-1
 1441 1456 l 1,19,-1
 1400 1224 l 1,0,-1
480 866 m 1,20,-1
 1045 866 l 1,21,-1
 1078 1050 l 1,22,-1
 512 1050 l 1,23,-1
 480 866 l 1,20,-1
EndSplineSet
EndChar

StartChar: dotlessi
Encoding: 305 305 140
Width: 554
GlyphClass: 2
Flags: W
LayerCount: 2
Back
Fore
SplineSet
307 0 m 1,0,-1
 25 0 l 1,1,-1
 213 1082 l 1,2,-1
 495 1082 l 1,3,-1
 307 0 l 1,0,-1
EndSplineSet
Substitution2: "'smcp' Lowercase to Small Capitals lookup 1 subtable" Idotaccent.c2sc
EndChar

StartChar: kgreenlandic
Encoding: 312 312 141
Width: 1182
GlyphClass: 2
Flags: W
LayerCount: 2
Back
Fore
SplineSet
496 399 m 1,0,-1
 373 399 l 1,1,-1
 304 0 l 1,2,-1
 21 0 l 1,3,-1
 209 1082 l 1,4,-1
 492 1082 l 1,5,-1
 420 675 l 1,6,-1
 492 675 l 1,7,-1
 837 1082 l 1,8,-1
 1214 1082 l 1,9,-1
 741 546 l 1,10,-1
 1026 0 l 1,11,-1
 680 0 l 1,12,-1
 496 399 l 1,0,-1
EndSplineSet
EndChar

StartChar: Lslash
Encoding: 321 321 142
Width: 1118
GlyphClass: 2
Flags: W
LayerCount: 2
Back
Fore
SplineSet
502 901 m 1,0,-1
 722 962 l 1,1,-1
 691 786 l 1,2,-1
 472 724 l 1,3,-1
 388 241 l 1,4,-1
 1006 241 l 1,5,-1
 964 0 l 1,6,-1
 53 0 l 1,7,-1
 164 636 l 1,8,-1
 27 599 l 1,9,-1
 58 775 l 1,10,-1
 194 813 l 1,11,-1
 306 1456 l 1,12,-1
 599 1456 l 1,13,-1
 502 901 l 1,0,-1
EndSplineSet
EndChar

StartChar: lslash
Encoding: 322 322 143
Width: 617
GlyphClass: 2
Flags: W
LayerCount: 2
Back
Fore
SplineSet
493 917 m 1,0,-1
 640 963 l 1,1,-1
 609 785 l 1,2,-1
 463 739 l 1,3,-1
 335 0 l 1,4,-1
 52 0 l 1,5,-1
 164 641 l 1,6,-1
 28 598 l 1,7,-1
 59 776 l 1,8,-1
 194 820 l 1,9,-1
 319 1536 l 1,10,-1
 601 1536 l 1,11,-1
 493 917 l 1,0,-1
EndSplineSet
EndChar

StartChar: Eng
Encoding: 330 330 144
Width: 1407
GlyphClass: 2
Flags: W
LayerCount: 2
Back
Fore
SplineSet
1422 1456 m 1,0,-1
 1170 -25 l 1,1,2
 1146 -220 1146 -220 1031.5 -331 c 128,-1,3
 917 -442 917 -442 737 -440 c 0,4,5
 666 -438 666 -438 584 -421 c 1,6,-1
 623 -182 l 1,7,8
 682 -197 682 -197 717 -196 c 0,9,10
 844 -196 844 -196 881 -11 c 2,11,-1
 883 0 l 1,12,-1
 486 993 l 1,13,-1
 313 0 l 1,14,-1
 19 0 l 1,15,-1
 272 1456 l 1,16,-1
 556 1456 l 1,17,-1
 957 464 l 1,18,-1
 1129 1456 l 1,19,-1
 1422 1456 l 1,0,-1
EndSplineSet
EndChar

StartChar: eng
Encoding: 331 331 145
Width: 1131
GlyphClass: 2
Flags: W
LayerCount: 2
Back
Fore
SplineSet
449 1083 m 1,0,-1
 424 928 l 1,1,2
 557 1106 557 1106 741 1102 c 0,3,4
 876 1100 876 1100 950 1010.5 c 128,-1,5
 1024 921 1024 921 1027 766 c 0,6,7
 1028 713 1028 713 1023 660 c 2,8,-1
 911 -34 l 1,9,10
 887 -228 887 -228 776 -335 c 128,-1,11
 665 -442 665 -442 487 -440 c 0,12,13
 419 -438 419 -438 337 -421 c 1,14,-1
 374 -189 l 1,15,16
 427 -205 427 -205 469 -205 c 0,17,18
 594 -205 594 -205 626 -34 c 2,19,-1
 740 661 l 1,20,-1
 744 734 l 1,21,22
 744 861 744 861 628 866 c 0,23,24
 518 870 518 870 421 781 c 1,25,-1
 282 0 l 1,26,-1
 0 0 l 1,27,-1
 188 1082 l 1,28,-1
 449 1083 l 1,0,-1
EndSplineSet
EndChar

StartChar: OE
Encoding: 338 338 146
Width: 1934
GlyphClass: 2
Flags: W
LayerCount: 2
Back
Fore
SplineSet
1722 0 m 1,0,-1
 880 0 l 1,1,-1
 684 -17 l 1,2,-1
 597 -18 l 1,3,4
 435 -14 435 -14 313 63.5 c 128,-1,5
 191 141 191 141 133 278 c 128,-1,6
 75 415 75 415 96 576 c 2,7,-1
 142 875 l 2,8,9
 185 1151 185 1151 369.5 1314 c 128,-1,10
 554 1477 554 1477 815 1477 c 1,11,-1
 888 1475 l 1,12,-1
 1096 1456 l 1,13,-1
 1973 1456 l 1,14,-1
 1930 1213 l 1,15,-1
 1278 1213 l 1,16,-1
 1217 866 l 1,17,-1
 1775 866 l 1,18,-1
 1734 631 l 1,19,-1
 1177 631 l 1,20,-1
 1109 241 l 1,21,-1
 1764 241 l 1,22,-1
 1722 0 l 1,0,-1
606 214 m 0,23,24
 684 211 684 211 805 223 c 1,25,-1
 992 1231 l 1,26,27
 902 1245 902 1245 809 1247 c 0,28,29
 656 1247 656 1247 555 1149.5 c 128,-1,30
 454 1052 454 1052 426 876 c 2,31,-1
 378 575 l 2,32,33
 369 508 369 508 375 445 c 0,34,35
 383 339 383 339 443 278.5 c 128,-1,36
 503 218 503 218 606 214 c 0,23,24
EndSplineSet
Substitution2: "'c2sc' Capitals to Small Capitals lookup 0 subtable" OE.c2sc
Position2: "'cpsp' Capital Spacing lookup 0 subtable" dx=36 dy=0 dh=72 dv=0
EndChar

StartChar: oe
Encoding: 339 339 147
Width: 1802
GlyphClass: 2
Flags: W
LayerCount: 2
Back
Fore
SplineSet
77 545 m 1,0,1
 103 772 103 772 235 923 c 0,2,3
 396 1107 396 1107 644 1103 c 0,4,5
 751 1101 751 1101 840 1062 c 128,-1,6
 929 1023 929 1023 982 954 c 1,7,8
 1144 1106 1144 1106 1342 1102 c 0,9,10
 1474 1098 1474 1098 1566 1035.5 c 128,-1,11
 1658 973 1658 973 1699 862 c 128,-1,12
 1740 751 1740 751 1723 613 c 1,13,-1
 1698 450 l 1,14,-1
 1070 450 l 1,15,16
 1063 345 1063 345 1110.5 282 c 128,-1,17
 1158 219 1158 219 1251 215 c 0,18,19
 1388 208 1388 208 1556 291 c 1,20,-1
 1620 101 l 1,21,22
 1552 41 1552 41 1445.5 10 c 128,-1,23
 1339 -21 1339 -21 1215 -19 c 0,24,25
 1109 -19 1109 -19 1019.5 19.5 c 128,-1,26
 930 58 930 58 876 128 c 1,27,28
 710 -24 710 -24 494 -20 c 0,29,30
 353 -18 353 -18 252.5 52 c 128,-1,31
 152 122 152 122 105 247 c 128,-1,32
 58 372 58 372 74 523 c 1,33,-1
 77 545 l 1,0,1
356 523 m 1,34,-1
 351 422 l 1,35,36
 351 324 351 324 392 268 c 128,-1,37
 433 212 433 212 510 210 c 0,38,39
 618 207 618 207 690 293 c 128,-1,40
 762 379 762 379 781 532 c 1,41,-1
 783 553 l 1,42,-1
 788 620 l 1,43,44
 795 861 795 861 627 869 c 0,45,46
 524 872 524 872 454 792 c 128,-1,47
 384 712 384 712 361 557 c 2,48,-1
 356 523 l 1,34,-1
1325 870 m 0,49,50
 1197 873 1197 873 1119 711 c 1,51,-1
 1091 646 l 1,52,-1
 1446 646 l 1,53,54
 1459 712 1459 712 1456 748 c 0,55,56
 1451 805 1451 805 1417 837 c 128,-1,57
 1383 869 1383 869 1325 870 c 0,49,50
EndSplineSet
Substitution2: "'smcp' Lowercase to Small Capitals lookup 1 subtable" OE.c2sc
EndChar

StartChar: longs
Encoding: 383 383 148
Width: 525
GlyphClass: 2
Flags: W
LayerCount: 2
Back
Fore
SplineSet
9 0 m 1,0,-1
 208 1176 l 1,1,2
 232 1357 232 1357 346 1459 c 128,-1,3
 460 1561 460 1561 645 1559 c 0,4,5
 705 1559 705 1559 812 1536 c 1,6,-1
 766 1314 l 1,7,8
 711 1326 711 1326 673 1326 c 0,9,10
 601 1327 601 1327 554.5 1287 c 128,-1,11
 508 1247 508 1247 494 1176 c 2,12,-1
 291 0 l 1,13,-1
 9 0 l 1,0,-1
EndSplineSet
EndChar

StartChar: uni018F
Encoding: 399 399 149
Width: 1390
GlyphClass: 2
Flags: W
LayerCount: 2
Back
Fore
SplineSet
602 -20 m 0,0,1
 421 -18 421 -18 296 69.5 c 128,-1,2
 171 157 171 157 119 311.5 c 128,-1,3
 67 466 67 466 93 664 c 1,4,-1
 119 826 l 1,5,-1
 1034 825 l 1,6,7
 1048 909 1048 909 1036 979 c 0,8,9
 1016 1088 1016 1088 937 1148 c 128,-1,10
 858 1208 858 1208 731 1211 c 0,11,12
 551 1215 551 1215 341 1149 c 1,13,-1
 316 1399 l 1,14,15
 428 1465 428 1465 651 1473 c 2,16,-1
 757 1475 l 1,17,18
 941 1473 941 1473 1077 1393 c 128,-1,19
 1213 1313 1213 1313 1279 1170 c 0,20,21
 1354 1008 1354 1008 1328 799 c 2,22,-1
 1310 672 l 2,23,24
 1266 362 1266 362 1068 169 c 128,-1,25
 870 -24 870 -24 602 -20 c 0,0,1
618 240 m 0,26,27
 877 233 877 233 1005 584 c 1,28,-1
 378 583 l 1,29,30
 357 483 357 483 369 424 c 0,31,32
 384 338 384 338 448.5 290.5 c 128,-1,33
 513 243 513 243 618 240 c 0,26,27
EndSplineSet
EndChar

StartChar: florin
Encoding: 402 402 150
Width: 727
Flags: W
LayerCount: 2
Back
Fore
SplineSet
704 870 m 1,0,-1
 503 870 l 1,1,-1
 363 -49 l 1,2,3
 341 -235 341 -235 237 -337.5 c 128,-1,4
 133 -440 133 -440 -36 -440 c 0,5,6
 -105 -440 -105 -440 -184 -423 c 1,7,-1
 -153 -191 l 1,8,9
 -106 -206 -106 -206 -64 -206 c 0,10,11
 54 -206 54 -206 78 -49 c 2,12,-1
 220 870 l 1,13,-1
 64 870 l 1,14,-1
 97 1082 l 1,15,-1
 253 1083 l 1,16,-1
 264 1176 l 2,17,18
 285 1358 285 1358 400 1459.5 c 128,-1,19
 515 1561 515 1561 695 1559 c 0,20,21
 750 1559 750 1559 858 1538 c 1,22,-1
 818 1312 l 1,23,24
 768 1325 768 1325 723 1325 c 0,25,26
 651 1325 651 1325 606.5 1285 c 128,-1,27
 562 1245 562 1245 550 1176 c 2,28,-1
 536 1082 l 1,29,-1
 737 1082 l 1,30,-1
 704 870 l 1,0,-1
EndSplineSet
EndChar

StartChar: Ohorn
Encoding: 416 416 151
Width: 1403
GlyphClass: 2
Flags: W
LayerCount: 2
Back
Fore
SplineSet
597 -20 m 0,0,1
 452 -17 452 -17 341.5 48.5 c 128,-1,2
 231 114 231 114 166.5 237.5 c 128,-1,3
 102 361 102 361 92 521 c 0,4,5
 84 633 84 633 109 784.5 c 128,-1,6
 134 936 134 936 196.5 1066 c 128,-1,7
 259 1196 259 1196 352 1289.5 c 128,-1,8
 445 1383 445 1383 562.5 1431 c 128,-1,9
 680 1479 680 1479 813 1476 c 0,10,11
 939 1474 939 1474 1046 1424 c 128,-1,12
 1153 1374 1153 1374 1219 1286 c 1,13,14
 1293 1307 1293 1307 1335.5 1368 c 128,-1,15
 1378 1429 1378 1429 1396 1566 c 1,16,-1
 1585 1567 l 1,17,18
 1570 1388 1570 1388 1499.5 1285.5 c 128,-1,19
 1429 1183 1429 1183 1300 1144 c 1,20,21
 1316 1047 1316 1047 1320 952 c 0,22,23
 1324 813 1324 813 1292 642.5 c 128,-1,24
 1260 472 1260 472 1182.5 336 c 128,-1,25
 1105 200 1105 200 999 115 c 0,26,27
 824 -24 824 -24 597 -20 c 0,0,1
1021 863 m 0,28,29
 1035 1221 1035 1221 799 1229 c 0,30,31
 615 1235 615 1235 507.5 1067 c 128,-1,32
 400 899 400 899 386 597 c 0,33,34
 376 420 376 420 433 324.5 c 128,-1,35
 490 229 490 229 610 225 c 0,36,37
 764 218 764 218 867 343.5 c 128,-1,38
 970 469 970 469 1004 701 c 0,39,40
 1019 823 1019 823 1021 863 c 0,28,29
EndSplineSet
EndChar

StartChar: ohorn
Encoding: 417 417 152
Width: 1164
GlyphClass: 2
Flags: W
LayerCount: 2
Back
Fore
SplineSet
66 545 m 2,0,1
 80 665 80 665 127 769.5 c 128,-1,2
 174 874 174 874 252 951 c 0,3,4
 409 1107 409 1107 638 1103 c 0,5,6
 866 1098 866 1098 987 944 c 1,7,8
 1036 976 1036 976 1065 1029 c 128,-1,9
 1094 1082 1094 1082 1108 1183 c 1,10,-1
 1278 1184 l 1,11,12
 1266 1041 1266 1041 1212.5 957.5 c 128,-1,13
 1159 874 1159 874 1054 829 c 1,14,15
 1078 690 1078 690 1062 553 c 0,16,17
 1019 234 1019 234 820 84 c 0,18,19
 675 -26 675 -26 489 -21 c 0,20,21
 274 -15 274 -15 157 136.5 c 128,-1,22
 40 288 40 288 64 523 c 2,23,-1
 66 545 l 2,0,1
347 523 m 2,24,25
 342 475 342 475 343 422 c 0,26,27
 343 325 343 325 385 269 c 128,-1,28
 427 213 427 213 504 211 c 0,29,30
 607 208 607 208 678 286.5 c 128,-1,31
 749 365 749 365 773 512 c 2,32,-1
 779 553 l 2,33,34
 784 600 784 600 784 655 c 0,35,36
 782 752 782 752 740.5 809.5 c 128,-1,37
 699 867 699 867 621 869 c 0,38,39
 514 872 514 872 443 787 c 128,-1,40
 372 702 372 702 350 544 c 2,41,-1
 347 523 l 2,24,25
EndSplineSet
EndChar

StartChar: Uhorn
Encoding: 431 431 153
Width: 1425
GlyphClass: 2
Flags: W
LayerCount: 2
Back
Fore
SplineSet
1358 1456 m 1,0,-1
 1315 1224 l 1,1,2
 1421 1237 1421 1237 1478 1305 c 128,-1,3
 1535 1373 1535 1373 1554 1537 c 1,4,-1
 1740 1538 l 1,5,6
 1720 1305 1720 1305 1609.5 1191.5 c 128,-1,7
 1499 1078 1499 1078 1299 1071 c 1,8,-1
 1194 495 l 1,9,10
 1160 253 1160 253 993.5 114.5 c 128,-1,11
 827 -24 827 -24 581 -20 c 0,12,13
 346 -16 346 -16 214.5 126.5 c 128,-1,14
 83 269 83 269 110 495 c 1,15,-1
 273 1456 l 1,16,-1
 566 1456 l 1,17,-1
 403 494 l 2,18,19
 396 438 396 438 402 389 c 0,20,21
 422 226 422 226 596 220 c 0,22,23
 720 216 720 216 798 287.5 c 128,-1,24
 876 359 876 359 899 489 c 2,25,-1
 1064 1456 l 1,26,-1
 1358 1456 l 1,0,-1
EndSplineSet
EndChar

StartChar: uhorn
Encoding: 432 432 154
Width: 1222
GlyphClass: 2
Flags: W
LayerCount: 2
Back
Fore
SplineSet
1397 1178 m 1,0,1
 1386 1002 1386 1002 1304.5 911.5 c 128,-1,2
 1223 821 1223 821 1062 804 c 1,3,-1
 915 0 l 1,4,-1
 652 0 l 1,5,-1
 673 112 l 1,6,7
 549 -24 549 -24 375 -20 c 0,8,9
 219 -18 219 -18 139.5 90.5 c 128,-1,10
 60 199 60 199 78 382 c 1,11,-1
 194 1082 l 1,12,-1
 476 1082 l 1,13,-1
 357 378 l 2,14,15
 353 345 353 345 356 316 c 0,16,17
 366 217 366 217 467 214 c 0,18,19
 598 210 598 210 684 315 c 1,20,-1
 819 1082 l 1,21,-1
 1102 1082 l 1,22,-1
 1069 939 l 1,23,24
 1142 960 1142 960 1179 1011.5 c 128,-1,25
 1216 1063 1216 1063 1232 1177 c 1,26,-1
 1397 1178 l 1,0,1
EndSplineSet
EndChar

StartChar: uni0237
Encoding: 567 567 155
Width: 570
GlyphClass: 2
Flags: W
LayerCount: 2
Back
Fore
SplineSet
511 1082 m 1,0,-1
 321 -33 l 1,1,2
 295 -228 295 -228 183 -335 c 128,-1,3
 71 -442 71 -442 -101 -440 c 0,4,5
 -169 -438 -169 -438 -251 -421 c 1,6,-1
 -214 -191 l 1,7,8
 -168 -205 -168 -205 -120 -207 c 0,9,10
 7 -207 7 -207 39 -22 c 2,11,-1
 228 1082 l 1,12,-1
 511 1082 l 1,0,-1
EndSplineSet
EndChar

StartChar: uni0259
Encoding: 601 601 156
Width: 1061
GlyphClass: 2
Flags: W
LayerCount: 2
Back
Fore
SplineSet
577 1102 m 0,0,1
 714 1100 714 1100 815 1032 c 128,-1,2
 916 964 916 964 965 843.5 c 128,-1,3
 1014 723 1014 723 1001 576 c 2,4,-1
 998 547 l 2,5,6
 982 385 982 385 907 253.5 c 128,-1,7
 832 122 832 122 713 49.5 c 128,-1,8
 594 -23 594 -23 451 -19 c 0,9,10
 253 -13 253 -13 148.5 120.5 c 128,-1,11
 44 254 44 254 68 469 c 1,12,-1
 93 632 l 1,13,-1
 722 632 l 1,14,15
 729 738 729 738 680.5 800.5 c 128,-1,16
 632 863 632 863 540 867 c 0,17,18
 403 874 403 874 236 791 c 1,19,-1
 171 981 l 1,20,21
 241 1041 241 1041 348.5 1072.5 c 128,-1,22
 456 1104 456 1104 577 1102 c 0,0,1
466 212 m 0,23,24
 613 206 613 206 701 436 c 1,25,-1
 346 436 l 1,26,-1
 339 406 l 2,27,28
 332 368 332 368 335 334 c 0,29,30
 340 278 340 278 374 245.5 c 128,-1,31
 408 213 408 213 466 212 c 0,23,24
EndSplineSet
EndChar

StartChar: circumflex
Encoding: 710 710 157
Width: 995
Flags: W
LayerCount: 2
Back
Fore
SplineSet
977 1260 m 1,0,-1
 977 1239 l 1,1,-1
 761 1244 l 1,2,-1
 638 1388 l 1,3,-1
 463 1245 l 1,4,-1
 234 1241 l 1,5,-1
 234 1264 l 1,6,-1
 555 1536 l 1,7,-1
 716 1537 l 1,8,-1
 977 1260 l 1,0,-1
EndSplineSet
EndChar

StartChar: caron
Encoding: 711 711 158
Width: 945
Flags: W
LayerCount: 2
Back
Fore
SplineSet
589 1395 m 1,0,-1
 756 1536 l 1,1,-1
 1006 1542 l 1,2,-1
 1007 1521 l 1,3,-1
 679 1245 l 1,4,-1
 500 1245 l 1,5,-1
 240 1524 l 1,6,-1
 240 1543 l 1,7,-1
 473 1537 l 1,8,-1
 589 1395 l 1,0,-1
EndSplineSet
EndChar

StartChar: breve
Encoding: 728 728 160
Width: 892
Flags: W
LayerCount: 2
Back
Fore
SplineSet
911 1528 m 1,0,1
 905 1389 905 1389 806 1307 c 128,-1,2
 707 1225 707 1225 559 1229 c 0,3,4
 421 1231 421 1231 333.5 1310.5 c 128,-1,5
 246 1390 246 1390 244 1528 c 1,6,-1
 442 1526 l 1,7,8
 438 1396 438 1396 557 1394 c 0,9,10
 622 1392 622 1392 661 1428.5 c 128,-1,11
 700 1465 700 1465 711 1526 c 1,12,-1
 911 1528 l 1,0,1
EndSplineSet
EndChar

StartChar: dotaccent
Encoding: 729 729 161
Width: 537
Flags: W
LayerCount: 2
Back
Fore
SplineSet
390 1512 m 0,0,1
 448 1514 448 1514 491.5 1478 c 128,-1,2
 535 1442 535 1442 537 1379 c 0,3,4
 539 1320 539 1320 499.5 1278.5 c 128,-1,5
 460 1237 460 1237 397 1237 c 0,6,7
 340 1235 340 1235 295.5 1271.5 c 128,-1,8
 251 1308 251 1308 249 1369 c 128,-1,9
 247 1430 247 1430 288 1471 c 128,-1,10
 329 1512 329 1512 390 1512 c 0,0,1
EndSplineSet
EndChar

StartChar: ring
Encoding: 730 730 162
Width: 672
Flags: W
LayerCount: 2
Back
Fore
SplineSet
241 1318 m 0,0,1
 241 1408 241 1408 307 1469.5 c 128,-1,2
 373 1531 373 1531 464 1531 c 0,3,4
 551 1531 551 1531 612.5 1472.5 c 128,-1,5
 674 1414 674 1414 674 1332 c 0,6,7
 676 1246 676 1246 610.5 1184.5 c 128,-1,8
 545 1123 545 1123 451 1123 c 0,9,10
 365 1123 365 1123 304 1179 c 128,-1,11
 243 1235 243 1235 241 1318 c 0,0,1
354 1318 m 0,12,13
 347 1278 347 1278 369 1248 c 128,-1,14
 391 1218 391 1218 434 1218 c 0,15,16
 481 1218 481 1218 517 1250.5 c 128,-1,17
 553 1283 553 1283 562 1332 c 0,18,19
 568 1375 568 1375 545 1404.5 c 128,-1,20
 522 1434 522 1434 482 1434 c 0,21,22
 435 1434 435 1434 397.5 1400 c 128,-1,23
 360 1366 360 1366 354 1318 c 0,12,13
EndSplineSet
EndChar

StartChar: ogonek
Encoding: 731 731 163
Width: 608
GlyphClass: 4
Flags: W
LayerCount: 2
Back
Fore
SplineSet
299 -4 m 1,0,-1
 254 -31 l 2,1,2
 134 -103 134 -103 124 -183 c 0,3,4
 118 -236 118 -236 168 -240 c 0,5,6
 197 -241 197 -241 248 -220 c 1,7,-1
 268 -380 l 1,8,9
 203 -421 203 -421 115 -421 c 0,10,11
 21 -421 21 -421 -36 -365 c 128,-1,12
 -93 -309 -93 -309 -93 -220 c 0,13,14
 -93 -48 -93 -48 146 61 c 1,15,-1
 299 -4 l 1,0,-1
EndSplineSet
EndChar

StartChar: tilde
Encoding: 732 732 164
Width: 965
Flags: W
LayerCount: 2
Back
Fore
SplineSet
979 1526 m 1,0,1
 972 1408 972 1408 908.5 1331.5 c 128,-1,2
 845 1255 845 1255 748 1255 c 0,3,4
 720 1255 720 1255 694.5 1263.5 c 128,-1,5
 669 1272 669 1272 618 1300.5 c 128,-1,6
 567 1329 567 1329 541.5 1338 c 128,-1,7
 516 1347 516 1347 487 1346 c 0,8,9
 411 1343 411 1343 386 1248 c 1,10,-1
 220 1258 l 1,11,12
 227 1374 227 1374 293.5 1452 c 128,-1,13
 360 1530 360 1530 456 1528 c 0,14,15
 482 1528 482 1528 505.5 1520.5 c 128,-1,16
 529 1513 529 1513 584.5 1483 c 128,-1,17
 640 1453 640 1453 664.5 1445 c 128,-1,18
 689 1437 689 1437 717 1438 c 0,19,20
 794 1441 794 1441 818 1536 c 1,21,-1
 979 1526 l 1,0,1
EndSplineSet
EndChar

StartChar: hungarumlaut
Encoding: 733 733 165
Width: 825
Flags: W
LayerCount: 2
Back
Fore
SplineSet
766 1535 m 1,0,-1
 1041 1535 l 1,1,-1
 731 1234 l 1,2,-1
 495 1234 l 1,3,-1
 766 1535 l 1,0,-1
388 1535 m 1,4,-1
 657 1534 l 1,5,-1
 383 1234 l 1,6,-1
 155 1234 l 1,7,-1
 388 1535 l 1,4,-1
EndSplineSet
EndChar

StartChar: uni02F3
Encoding: 755 755 166
Width: 634
Flags: W
LayerCount: 2
Back
Fore
SplineSet
-5 -236 m 0,0,1
 -7 -161 -7 -161 48 -108.5 c 128,-1,2
 103 -56 103 -56 179 -56 c 128,-1,3
 255 -56 255 -56 305 -104.5 c 128,-1,4
 355 -153 355 -153 357 -224 c 0,5,6
 359 -300 359 -300 305 -350 c 128,-1,7
 251 -400 251 -400 177 -400 c 0,8,9
 101 -400 101 -400 49 -352 c 128,-1,10
 -3 -304 -3 -304 -5 -236 c 0,0,1
105 -236 m 0,11,12
 100 -263 100 -263 114.5 -283.5 c 128,-1,13
 129 -304 129 -304 158 -304 c 0,14,15
 191 -304 191 -304 216.5 -280 c 128,-1,16
 242 -256 242 -256 247 -224 c 0,17,18
 252 -198 252 -198 239.5 -176 c 128,-1,19
 227 -154 227 -154 198 -153 c 0,20,21
 166 -153 166 -153 139 -177 c 128,-1,22
 112 -201 112 -201 105 -236 c 0,11,12
EndSplineSet
EndChar

StartChar: gravecomb
Encoding: 768 768 167
Width: 10
GlyphClass: 4
Flags: W
LayerCount: 2
Back
Fore
SplineSet
-268 1227 m 1,0,-1
 -482 1226 l 1,1,-1
 -701 1534 l 1,2,-1
 -409 1536 l 1,3,-1
 -268 1227 l 1,0,-1
EndSplineSet
EndChar

StartChar: acutecomb
Encoding: 769 769 168
Width: 10
GlyphClass: 4
Flags: W
LayerCount: 2
Back
Fore
SplineSet
-319 1536 m 1,0,-1
 11 1536 l 1,1,-1
 -313 1226 l 1,2,-1
 -564 1226 l 1,3,-1
 -319 1536 l 1,0,-1
EndSplineSet
EndChar

StartChar: hookabovecomb
Encoding: 777 777 170
Width: 10
GlyphClass: 4
Flags: W
LayerCount: 2
Back
Fore
SplineSet
-581 1266 m 1,0,-1
 -578 1402 l 1,1,-1
 -531 1406 l 2,2,3
 -437 1417 -437 1417 -426 1472 c 0,4,5
 -417 1526 -417 1526 -503 1532 c 2,6,-1
 -549 1534 l 1,7,-1
 -533 1671 l 1,8,9
 -189 1659 -189 1659 -189 1481 c 0,10,11
 -189 1364 -189 1364 -349 1332 c 1,12,-1
 -358 1265 l 1,13,-1
 -581 1266 l 1,0,-1
EndSplineSet
EndChar

StartChar: uni030F
Encoding: 783 783 171
Width: 10
GlyphClass: 4
Flags: W
LayerCount: 2
Back
Fore
SplineSet
-369 1252 m 1,0,-1
 -625 1252 l 1,1,-1
 -862 1518 l 1,2,-1
 -561 1518 l 1,3,-1
 -369 1252 l 1,0,-1
-42 1252 m 1,4,-1
 -289 1252 l 1,5,-1
 -481 1518 l 1,6,-1
 -188 1518 l 1,7,-1
 -42 1252 l 1,4,-1
EndSplineSet
EndChar

StartChar: dotbelowcomb
Encoding: 803 803 172
Width: 10
GlyphClass: 4
Flags: W
LayerCount: 2
Back
Fore
SplineSet
-882 -239 m 0,0,1
 -884 -175 -884 -175 -838 -135 c 128,-1,2
 -792 -95 -792 -95 -728 -95 c 0,3,4
 -666 -93 -666 -93 -618 -129.5 c 128,-1,5
 -570 -166 -570 -166 -568 -229 c 0,6,7
 -566 -294 -566 -294 -612 -334 c 128,-1,8
 -658 -374 -658 -374 -722 -374 c 0,9,10
 -787 -376 -787 -376 -833.5 -337.5 c 128,-1,11
 -880 -299 -880 -299 -882 -239 c 0,0,1
EndSplineSet
EndChar

StartChar: tonos
Encoding: 900 900 173
Width: 679
Flags: W
LayerCount: 2
Back
Fore
SplineSet
452 1601 m 1,0,-1
 719 1601 l 1,1,-1
 500 1256 l 1,2,-1
 320 1256 l 1,3,-1
 452 1601 l 1,0,-1
EndSplineSet
EndChar

StartChar: dieresistonos
Encoding: 901 901 174
Width: 1099
Flags: W
LayerCount: 2
Back
Fore
SplineSet
689 1751 m 1,0,-1
 953 1751 l 1,1,-1
 745 1419 l 1,2,-1
 590 1419 l 1,3,-1
 689 1751 l 1,0,-1
232 1362 m 0,4,5
 230 1414 230 1414 268 1452.5 c 128,-1,6
 306 1491 306 1491 363 1493 c 0,7,8
 417 1495 417 1495 458.5 1459.5 c 128,-1,9
 500 1424 500 1424 502 1369 c 0,10,11
 504 1315 504 1315 466 1277.5 c 128,-1,12
 428 1240 428 1240 372 1238 c 0,13,14
 319 1236 319 1236 276.5 1271 c 128,-1,15
 234 1306 234 1306 232 1362 c 0,4,5
831 1361 m 0,16,17
 829 1416 829 1416 867 1453.5 c 128,-1,18
 905 1491 905 1491 961 1493 c 0,19,20
 1015 1495 1015 1495 1056.5 1459.5 c 128,-1,21
 1098 1424 1098 1424 1100 1369 c 128,-1,22
 1102 1314 1102 1314 1064 1276.5 c 128,-1,23
 1026 1239 1026 1239 969 1237 c 0,24,25
 913 1235 913 1235 872 1271.5 c 128,-1,26
 831 1308 831 1308 831 1361 c 0,16,17
EndSplineSet
EndChar

StartChar: Gamma
Encoding: 915 915 176
Width: 1117
GlyphClass: 2
Flags: W
LayerCount: 2
Back
Fore
SplineSet
1160 1213 m 1,0,-1
 527 1213 l 1,1,-1
 316 0 l 1,2,-1
 23 0 l 1,3,-1
 276 1456 l 1,4,-1
 1202 1456 l 1,5,-1
 1160 1213 l 1,0,-1
EndSplineSet
Substitution2: "'c2sc' Capitals to Small Capitals lookup 0 subtable" Gamma.c2sc
Position2: "'cpsp' Capital Spacing lookup 0 subtable" dx=36 dy=0 dh=72 dv=0
EndChar

StartChar: uni0394
Encoding: 916 916 177
AltUni2: 002206.ffffffff.0
Width: 1462
Flags: W
LayerCount: 2
Back
Fore
SplineSet
724 1456 m 1,0,-1
 1028 1456 l 1,1,-1
 1331 0 l 1,2,-1
 -92 0 l 1,3,-1
 724 1456 l 1,0,-1
356 243 m 1,4,-1
 991 241 l 1,5,-1
 827 1106 l 1,6,-1
 356 243 l 1,4,-1
EndSplineSet
Substitution2: "'c2sc' Capitals to Small Capitals lookup 0 subtable" uni0394.c2sc
Position2: "'cpsp' Capital Spacing lookup 0 subtable" dx=36 dy=0 dh=72 dv=0
EndChar

StartChar: Theta
Encoding: 920 920 178
Width: 1377
Flags: W
LayerCount: 2
Back
Fore
SplineSet
878 607 m 1,0,-1
 505 607 l 1,1,-1
 545 839 l 1,2,-1
 919 839 l 1,3,-1
 878 607 l 1,0,-1
599 -20 m 0,4,5
 454 -17 454 -17 343.5 48.5 c 128,-1,6
 233 114 233 114 168.5 237.5 c 128,-1,7
 104 361 104 361 94 521 c 0,8,9
 86 633 86 633 111 784.5 c 128,-1,10
 136 936 136 936 198.5 1066 c 128,-1,11
 261 1196 261 1196 354 1289.5 c 128,-1,12
 447 1383 447 1383 564.5 1431 c 128,-1,13
 682 1479 682 1479 815 1476 c 0,14,15
 960 1473 960 1473 1069.5 1408 c 128,-1,16
 1179 1343 1179 1343 1243 1217 c 128,-1,17
 1307 1091 1307 1091 1316 933 c 0,18,19
 1326 758 1326 758 1278.5 573 c 128,-1,20
 1231 388 1231 388 1130 250.5 c 128,-1,21
 1029 113 1029 113 893 45 c 128,-1,22
 757 -23 757 -23 599 -20 c 0,4,5
1014 767 m 1,23,-1
 1022 862 l 1,24,25
 1032 1035 1032 1035 975.5 1130 c 128,-1,26
 919 1225 919 1225 800 1229 c 0,27,28
 617 1235 617 1235 509.5 1067 c 128,-1,29
 402 899 402 899 388 597 c 0,30,31
 378 420 378 420 435 324.5 c 128,-1,32
 492 229 492 229 612 225 c 0,33,34
 768 218 768 218 871 346 c 128,-1,35
 974 474 974 474 1006 708 c 2,36,-1
 1014 767 l 1,23,-1
EndSplineSet
Substitution2: "'c2sc' Capitals to Small Capitals lookup 0 subtable" Theta.c2sc
Position2: "'cpsp' Capital Spacing lookup 0 subtable" dx=36 dy=0 dh=72 dv=0
EndChar

StartChar: Lambda
Encoding: 923 923 179
Width: 1296
Flags: W
LayerCount: 2
Back
Fore
SplineSet
724 1040 m 1,0,-1
 233 0 l 1,1,-1
 -95 0 l 1,2,-1
 632 1456 l 1,3,-1
 936 1456 l 1,4,-1
 1160 0 l 1,5,-1
 853 0 l 1,6,-1
 724 1040 l 1,0,-1
EndSplineSet
Substitution2: "'c2sc' Capitals to Small Capitals lookup 0 subtable" Lambda.c2sc
Position2: "'cpsp' Capital Spacing lookup 0 subtable" dx=36 dy=0 dh=72 dv=0
EndChar

StartChar: Xi
Encoding: 926 926 180
Width: 1136
Flags: W
LayerCount: 2
Back
Fore
SplineSet
29 241 m 1,0,-1
 987 241 l 1,1,-1
 945 0 l 1,2,-1
 -13 0 l 1,3,-1
 29 241 l 1,0,-1
247 852 m 1,4,-1
 981 852 l 1,5,-1
 940 619 l 1,6,-1
 206 619 l 1,7,-1
 247 852 l 1,4,-1
263 1456 m 1,8,-1
 1156 1456 l 1,9,-1
 1113 1213 l 1,10,-1
 221 1213 l 1,11,-1
 263 1456 l 1,8,-1
EndSplineSet
Substitution2: "'c2sc' Capitals to Small Capitals lookup 0 subtable" Xi.c2sc
Position2: "'cpsp' Capital Spacing lookup 0 subtable" dx=36 dy=0 dh=72 dv=0
EndChar

StartChar: Pi
Encoding: 928 928 181
Width: 1416
Flags: W
LayerCount: 2
Back
Fore
SplineSet
1174 0 m 1,0,-1
 880 0 l 1,1,-1
 1090 1213 l 1,2,-1
 527 1213 l 1,3,-1
 316 0 l 1,4,-1
 23 0 l 1,5,-1
 276 1456 l 1,6,-1
 1426 1456 l 1,7,-1
 1174 0 l 1,0,-1
EndSplineSet
Substitution2: "'c2sc' Capitals to Small Capitals lookup 0 subtable" Pi.c2sc
Position2: "'cpsp' Capital Spacing lookup 0 subtable" dx=36 dy=0 dh=72 dv=0
EndChar

StartChar: Sigma
Encoding: 931 931 182
Width: 1136
Flags: W
LayerCount: 2
Back
Fore
SplineSet
829 727 m 1,0,-1
 407 243 l 1,1,-1
 1011 241 l 1,2,-1
 969 0 l 1,3,-1
 -35 0 l 1,4,-1
 -7 165 l 1,5,-1
 521 750 l 1,6,-1
 193 1320 l 1,7,-1
 218 1456 l 1,8,-1
 1199 1456 l 1,9,-1
 1156 1213 l 1,10,-1
 566 1213 l 1,11,-1
 829 744 l 1,12,-1
 829 727 l 1,0,-1
EndSplineSet
Substitution2: "'c2sc' Capitals to Small Capitals lookup 0 subtable" Sigma.c2sc
Position2: "'cpsp' Capital Spacing lookup 0 subtable" dx=36 dy=0 dh=72 dv=0
EndChar

StartChar: Phi
Encoding: 934 934 183
Width: 1539
Flags: W
LayerCount: 2
Back
Fore
SplineSet
1031 1285 m 1,0,1
 1259 1271 1259 1271 1386 1114 c 128,-1,2
 1513 957 1513 957 1493 727 c 0,3,4
 1478 564 1478 564 1392 438 c 128,-1,5
 1306 312 1306 312 1164.5 240.5 c 128,-1,6
 1023 169 1023 169 854 165 c 1,7,-1
 817 0 l 1,8,-1
 524 0 l 1,9,-1
 561 167 l 1,10,11
 413 175 413 175 301.5 246 c 128,-1,12
 190 317 190 317 135.5 439 c 128,-1,13
 81 561 81 561 95 709 c 0,14,15
 110 874 110 874 196.5 1004.5 c 128,-1,16
 283 1135 283 1135 425.5 1208.5 c 128,-1,17
 568 1282 568 1282 739 1286 c 1,18,-1
 776 1456 l 1,19,-1
 1069 1456 l 1,20,-1
 1031 1285 l 1,0,1
383 709 m 0,21,22
 367 588 367 588 418 513.5 c 128,-1,23
 469 439 469 439 590 424 c 1,24,-1
 708 1029 l 1,25,26
 574 1017 574 1017 487.5 931.5 c 128,-1,27
 401 846 401 846 383 709 c 0,21,22
1207 839 m 0,28,29
 1181 1004 1181 1004 1003 1027 c 1,30,-1
 884 422 l 1,31,32
 992 432 992 432 1071.5 490 c 128,-1,33
 1151 548 1151 548 1186 645.5 c 128,-1,34
 1221 743 1221 743 1207 839 c 0,28,29
EndSplineSet
Substitution2: "'c2sc' Capitals to Small Capitals lookup 0 subtable" Phi.c2sc
Position2: "'cpsp' Capital Spacing lookup 0 subtable" dx=36 dy=0 dh=72 dv=0
EndChar

StartChar: Psi
Encoding: 936 936 184
Width: 1453
Flags: W
LayerCount: 2
Back
Fore
SplineSet
868 630 m 1,0,1
 1112 686 1112 686 1163 988 c 2,2,-1
 1243 1456 l 1,3,-1
 1538 1456 l 1,4,-1
 1459 993 l 1,5,6
 1421 734 1421 734 1260 574.5 c 128,-1,7
 1099 415 1099 415 842 391 c 1,8,-1
 766 0 l 1,9,-1
 473 0 l 1,10,-1
 549 392 l 1,11,12
 343 414 343 414 225 559.5 c 128,-1,13
 107 705 107 705 115 929 c 1,14,-1
 120 993 l 1,15,-1
 197 1456 l 1,16,-1
 490 1456 l 1,17,-1
 412 992 l 2,18,19
 404 935 404 935 406 879 c 0,20,21
 408 784 408 784 451 720.5 c 128,-1,22
 494 657 494 657 575 634 c 1,23,-1
 726 1456 l 1,24,-1
 1019 1456 l 1,25,-1
 868 630 l 1,0,1
EndSplineSet
Substitution2: "'c2sc' Capitals to Small Capitals lookup 0 subtable" Psi.c2sc
Position2: "'cpsp' Capital Spacing lookup 0 subtable" dx=36 dy=0 dh=72 dv=0
EndChar

StartChar: uni03A9
Encoding: 937 937 185
AltUni2: 002126.ffffffff.0
Width: 1345
GlyphClass: 2
Flags: W
LayerCount: 2
Back
Fore
SplineSet
646 247 m 1,0,1
 766 298 766 298 837 442 c 128,-1,2
 908 586 908 586 938 881 c 0,3,4
 946 960 946 960 943 1017 c 0,5,6
 927 1224 927 1224 773 1231 c 0,7,8
 656 1237 656 1237 576.5 1142.5 c 128,-1,9
 497 1048 497 1048 469.5 864 c 128,-1,10
 442 680 442 680 437 615.5 c 128,-1,11
 432 551 432 551 434 489 c 0,12,13
 438 301 438 301 547 248 c 1,14,-1
 509 0 l 1,15,-1
 10 0 l 1,16,-1
 55 244 l 1,17,-1
 264 245 l 1,18,19
 145 444 145 444 128 633 c 0,20,21
 118 734 118 734 149 902 c 128,-1,22
 180 1070 180 1070 272 1203 c 128,-1,23
 364 1336 364 1336 497.5 1407.5 c 128,-1,24
 631 1479 631 1479 789 1475 c 128,-1,25
 947 1471 947 1471 1061.5 1390.5 c 128,-1,26
 1176 1310 1176 1310 1229.5 1168.5 c 128,-1,27
 1283 1027 1283 1027 1263 860 c 2,28,-1
 1254 790 l 2,29,30
 1209 445 1209 445 928 239 c 1,31,-1
 1142 244 l 1,32,-1
 1099 0 l 1,33,-1
 608 0 l 1,34,-1
 646 247 l 1,0,1
EndSplineSet
Substitution2: "'c2sc' Capitals to Small Capitals lookup 0 subtable" uni03A9.c2sc
Position2: "'cpsp' Capital Spacing lookup 0 subtable" dx=36 dy=0 dh=72 dv=0
EndChar

StartChar: alpha
Encoding: 945 945 186
Width: 1129
GlyphClass: 2
Flags: W
LayerCount: 2
Back
Fore
SplineSet
1085 1082 m 1,0,-1
 963 366 l 2,1,2
 952 304 952 304 954 273 c 0,3,4
 956 222 956 222 993 220 c 0,5,6
 997 219 997 219 1016 223 c 1,7,-1
 1019 2 l 1,8,9
 967 -21 967 -21 906 -19 c 0,10,11
 824 -17 824 -17 766.5 24 c 128,-1,12
 709 65 709 65 689 146 c 1,13,14
 621 56 621 56 549 16.5 c 128,-1,15
 477 -23 477 -23 397 -21 c 0,16,17
 295 -20 295 -20 218 30.5 c 128,-1,18
 141 81 141 81 99 176 c 128,-1,19
 57 271 57 271 53 387 c 0,20,21
 50 449 50 449 56 509 c 2,22,-1
 62 553 l 2,23,24
 86 721 86 721 154 850 c 128,-1,25
 222 979 222 979 321.5 1042 c 128,-1,26
 421 1105 421 1105 547 1102 c 0,27,28
 708 1098 708 1098 785 950 c 1,29,-1
 836 1082 l 1,30,-1
 1085 1082 l 1,0,-1
340 504 m 1,31,-1
 335 443 l 1,32,-1
 334 417 l 1,33,34
 333 215 333 215 477 211 c 0,35,36
 582 208 582 208 666 307 c 1,37,-1
 749 765 l 1,38,39
 709 865 709 865 605 869 c 0,40,41
 468 873 468 873 395 721 c 0,42,43
 359 647 359 647 340 504 c 1,31,-1
EndSplineSet
Substitution2: "'ss02' Style Set 2 lookup 11 subtable" alpha.ss02
EndChar

StartChar: beta
Encoding: 946 946 187
Width: 1205
Flags: W
LayerCount: 2
Back
Fore
SplineSet
737 1477 m 0,0,1
 932 1473 932 1473 1044.5 1368.5 c 128,-1,2
 1157 1264 1157 1264 1146 1090 c 0,3,4
 1132 884 1132 884 906 764 c 1,5,6
 998 721 998 721 1047.5 632 c 128,-1,7
 1097 543 1097 543 1090 422 c 0,8,9
 1076 219 1076 219 942.5 97 c 128,-1,10
 809 -25 809 -25 605 -21 c 0,11,12
 459 -19 459 -19 335 58 c 1,13,-1
 245 -406 l 1,14,-1
 -38 -406 l 1,15,-1
 208 1033 l 1,16,17
 236 1231 236 1231 384 1355 c 128,-1,18
 532 1479 532 1479 737 1477 c 0,0,1
637 856 m 1,19,20
 736 858 736 858 791 915.5 c 128,-1,21
 846 973 846 973 858 1069 c 0,22,23
 867 1147 867 1147 829 1195 c 128,-1,24
 791 1243 791 1243 722 1245 c 0,25,26
 636 1247 636 1247 572.5 1188.5 c 128,-1,27
 509 1130 509 1130 492 1034 c 2,28,-1
 358 269 l 1,29,30
 430 211 430 211 550 211 c 0,31,32
 674 211 674 211 751.5 296.5 c 128,-1,33
 829 382 829 382 813 509 c 0,34,35
 805 572 805 572 765 607.5 c 128,-1,36
 725 643 725 643 660 646 c 2,37,-1
 547 647 l 1,38,-1
 576 858 l 1,39,-1
 637 856 l 1,19,20
EndSplineSet
EndChar

StartChar: gamma
Encoding: 947 947 188
Width: 1024
Flags: W
LayerCount: 2
Back
Fore
SplineSet
462 344 m 1,0,-1
 784 1082 l 1,1,-1
 1090 1082 l 1,2,-1
 544 -4 l 1,3,-1
 472 -417 l 1,4,-1
 189 -417 l 1,5,-1
 269 41 l 1,6,-1
 105 1082 l 1,7,-1
 389 1082 l 1,8,-1
 462 344 l 1,0,-1
EndSplineSet
EndChar

StartChar: delta
Encoding: 948 948 189
Width: 1131
Flags: W
LayerCount: 2
Back
Fore
SplineSet
310 1241 m 0,0,1
 315 1395 315 1395 435.5 1485.5 c 128,-1,2
 556 1576 556 1576 743 1574 c 0,3,4
 848 1572 848 1572 1003 1527 c 1,5,-1
 981 1304 l 1,6,7
 858 1354 858 1354 762 1352 c 0,8,9
 685 1352 685 1352 636 1324 c 128,-1,10
 587 1296 587 1296 576 1249 c 0,11,12
 559 1185 559 1185 652 1138 c 2,13,-1
 691 1119 l 1,14,15
 1101 938 1101 938 1064 546 c 1,16,-1
 1061 526 l 1,17,18
 1043 369 1043 369 964 241.5 c 128,-1,19
 885 114 885 114 762 44.5 c 128,-1,20
 639 -25 639 -25 492 -21 c 0,21,22
 278 -15 278 -15 159.5 132 c 128,-1,23
 41 279 41 279 60 507 c 0,24,25
 78 696 78 696 183.5 819 c 128,-1,26
 289 942 289 942 449 971 c 1,27,-1
 448 988 l 1,28,29
 382 1031 382 1031 344.5 1095.5 c 128,-1,30
 307 1160 307 1160 310 1241 c 0,0,1
344 427 m 0,31,32
 346 328 346 328 388 270 c 128,-1,33
 430 212 430 212 507 210 c 0,34,35
 612 207 612 207 685.5 294.5 c 128,-1,36
 759 382 759 382 782 540 c 0,37,38
 789 607 789 607 784 656 c 2,39,-1
 780 682 l 1,40,41
 752 829 752 829 627 873 c 1,42,43
 517 870 517 870 444 784.5 c 128,-1,44
 371 699 371 699 350 549 c 0,45,46
 343 479 343 479 344 427 c 0,31,32
EndSplineSet
EndChar

StartChar: epsilon
Encoding: 949 949 190
Width: 1115
GlyphClass: 2
Flags: W
LayerCount: 2
Back
Fore
SplineSet
42 298 m 0,0,1
 45 386 45 386 101 451 c 128,-1,2
 157 516 157 516 283 564 c 1,3,4
 216 600 216 600 179.5 656 c 128,-1,5
 143 712 143 712 143 777 c 0,6,7
 145 876 145 876 206 950 c 128,-1,8
 267 1024 267 1024 385.5 1064 c 128,-1,9
 504 1104 504 1104 644 1101 c 0,10,11
 762 1098 762 1098 856 1056.5 c 128,-1,12
 950 1015 950 1015 1002.5 941.5 c 128,-1,13
 1055 868 1055 868 1057 768 c 1,14,-1
 779 769 l 1,15,16
 779 824 779 824 737.5 853 c 128,-1,17
 696 882 696 882 622 882 c 0,18,19
 544 882 544 882 486 847.5 c 128,-1,20
 428 813 428 813 418 756 c 0,21,22
 399 656 399 656 557 650 c 1,23,-1
 757 649 l 1,24,-1
 723 456 l 1,25,-1
 558 457 l 2,26,27
 457 457 457 457 397.5 421.5 c 128,-1,28
 338 386 338 386 327 320 c 0,29,30
 317 266 317 266 364 230.5 c 128,-1,31
 411 195 411 195 485 195 c 0,32,33
 568 192 568 192 627 225.5 c 128,-1,34
 686 259 686 259 700 320 c 1,35,-1
 985 321 l 1,36,37
 979 212 979 212 912.5 134.5 c 128,-1,38
 846 57 846 57 735 17 c 128,-1,39
 624 -23 624 -23 494 -20 c 0,40,41
 365 -18 365 -18 259.5 21 c 128,-1,42
 154 60 154 60 96.5 129.5 c 128,-1,43
 39 199 39 199 42 298 c 0,0,1
EndSplineSet
EndChar

StartChar: zeta
Encoding: 950 950 191
Width: 1005
Flags: W
LayerCount: 2
Back
Fore
SplineSet
1106 1456 m 1,0,-1
 1075 1277 l 1,1,-1
 580 774 l 1,2,3
 413 597 413 597 387 418 c 0,4,5
 376 348 376 348 398.5 303.5 c 128,-1,6
 421 259 421 259 488 234 c 2,7,-1
 648 176 l 1,8,9
 819 107 819 107 811 -41 c 0,10,11
 806 -129 806 -129 737 -220 c 128,-1,12
 668 -311 668 -311 547 -390 c 1,13,-1
 405 -271 l 1,14,-1
 441 -233 l 2,15,16
 509 -161 509 -161 521 -100 c 0,17,18
 531 -47 531 -47 481 -25 c 2,19,-1
 446 -12 l 1,20,-1
 359 15 l 1,21,22
 75 113 75 113 99 375 c 0,23,24
 111 517 111 517 190 659.5 c 128,-1,25
 269 802 269 802 448 984 c 1,26,-1
 696 1222 l 1,27,-1
 198 1224 l 1,28,-1
 239 1456 l 1,29,-1
 1106 1456 l 1,0,-1
EndSplineSet
EndChar

StartChar: eta
Encoding: 951 951 192
Width: 1131
GlyphClass: 2
Flags: W
LayerCount: 2
Back
Fore
SplineSet
448 1083 m 1,0,-1
 425 947 l 1,1,2
 560 1106 560 1106 742 1102 c 0,3,4
 898 1099 898 1099 972.5 990.5 c 128,-1,5
 1047 882 1047 882 1028 692 c 1,6,-1
 841 -415 l 1,7,-1
 557 -415 l 1,8,-1
 747 693 l 2,9,10
 751 729 751 729 748 760 c 0,11,12
 738 863 738 863 629 868 c 0,13,14
 518 872 518 872 420 776 c 1,15,-1
 282 0 l 1,16,-1
 0 0 l 1,17,-1
 188 1082 l 1,18,-1
 448 1083 l 1,0,-1
EndSplineSet
EndChar

StartChar: theta
Encoding: 952 952 193
Width: 1182
Flags: W
LayerCount: 2
Back
Fore
SplineSet
502 -20 m 0,0,1
 316 -16 316 -16 212 110 c 128,-1,2
 108 236 108 236 105 460 c 0,3,4
 104 534 104 534 113 608 c 2,5,-1
 156 895 l 1,6,7
 206 1176 206 1176 350 1328.5 c 128,-1,8
 494 1481 494 1481 715 1476 c 0,9,10
 901 1472 901 1472 1004.5 1346 c 128,-1,11
 1108 1220 1108 1220 1111 998 c 0,12,13
 1112 923 1112 923 1103 850 c 2,14,-1
 1068 616 l 2,15,16
 1036 403 1036 403 957.5 258.5 c 128,-1,17
 879 114 879 114 764 45.5 c 128,-1,18
 649 -23 649 -23 502 -20 c 0,0,1
795 622 m 1,19,-1
 404 622 l 1,20,-1
 393 567 l 2,21,22
 379 488 379 488 379 426 c 0,23,24
 374 219 374 219 517 212 c 0,25,26
 704 200 704 200 769 500 c 2,27,-1
 783 567 l 1,28,-1
 795 622 l 1,19,-1
421 843 m 1,29,-1
 817 843 l 1,30,-1
 825 893 l 2,31,32
 838 987 838 987 838 1033 c 0,33,34
 838 1237 838 1237 699 1244 c 0,35,36
 547 1251 547 1251 474 1061 c 0,37,38
 449 997 449 997 421 843 c 1,29,-1
EndSplineSet
EndChar

StartChar: iota
Encoding: 953 953 194
Width: 679
GlyphClass: 2
Flags: W
LayerCount: 2
Back
Fore
SplineSet
506 1082 m 1,0,-1
 380 335 l 2,1,2
 374 284 374 284 388 257 c 128,-1,3
 402 230 402 230 456 228 c 0,4,5
 482 227 482 227 540 235 c 1,6,-1
 521 14 l 1,7,8
 451 -11 451 -11 359 -9 c 0,9,10
 222 -7 222 -7 152 77.5 c 128,-1,11
 82 162 82 162 95 308 c 1,12,-1
 224 1082 l 1,13,-1
 506 1082 l 1,0,-1
EndSplineSet
EndChar

StartChar: lambda
Encoding: 955 955 195
Width: 1099
Flags: W
LayerCount: 2
Back
Fore
SplineSet
420 1544 m 0,0,1
 508 1542 508 1542 573.5 1500.5 c 128,-1,2
 639 1459 639 1459 665 1372 c 1,3,-1
 894 323 l 2,4,5
 908 267 908 267 925 245.5 c 128,-1,6
 942 224 942 224 970 220 c 1,7,-1
 987 220 l 1,8,-1
 1004 220 l 1,9,-1
 987 -12 l 1,10,11
 938 -18 938 -18 889 -16 c 0,12,13
 682 -10 682 -10 627 206 c 1,14,-1
 541 661 l 1,15,-1
 212 0 l 1,16,-1
 -104 0 l 1,17,-1
 460 1075 l 1,18,-1
 422 1223 l 2,19,20
 407 1274 407 1274 376.5 1293.5 c 128,-1,21
 346 1313 346 1313 289 1309 c 2,22,-1
 258 1307 l 1,23,-1
 272 1525 l 1,24,25
 339 1546 339 1546 420 1544 c 0,0,1
EndSplineSet
EndChar

StartChar: xi
Encoding: 958 958 196
Width: 1062
Flags: W
LayerCount: 2
Back
Fore
SplineSet
1012 1200 m 1,0,1
 885 1239 885 1239 801 1239 c 0,2,3
 697 1239 697 1239 630 1200.5 c 128,-1,4
 563 1162 563 1162 550 1090 c 0,5,6
 538 1025 538 1025 584 989 c 128,-1,7
 630 953 630 953 728 950 c 2,8,-1
 893 949 l 1,9,-1
 851 708 l 1,10,-1
 729 709 l 2,11,12
 570 709 570 709 473 641 c 128,-1,13
 376 573 376 573 359 450 c 0,14,15
 335 286 335 286 532 228 c 2,16,-1
 647 195 l 1,17,-1
 703 176 l 1,18,19
 885 109 885 109 877 -45 c 0,20,21
 872 -134 872 -134 803.5 -224.5 c 128,-1,22
 735 -315 735 -315 614 -394 c 1,23,-1
 469 -275 l 1,24,25
 534 -210 534 -210 557.5 -173.5 c 128,-1,26
 581 -137 581 -137 588 -102 c 0,27,28
 596 -53 596 -53 540 -27 c 2,29,-1
 512 -15 l 1,30,-1
 458 2 l 2,31,32
 291 58 291 58 214.5 114.5 c 128,-1,33
 138 171 138 171 102 249.5 c 128,-1,34
 66 328 66 328 74 440 c 0,35,36
 84 580 84 580 172 678 c 128,-1,37
 260 776 260 776 431 833 c 1,38,39
 356 871 356 871 312 933.5 c 128,-1,40
 268 996 268 996 272 1084 c 0,41,42
 279 1264 279 1264 420 1371.5 c 128,-1,43
 561 1479 561 1479 777 1477 c 0,44,45
 922 1477 922 1477 1078 1425 c 1,46,-1
 1012 1200 l 1,0,1
EndSplineSet
EndChar

StartChar: pi
Encoding: 960 960 197
Width: 1288
Flags: W
LayerCount: 2
Back
Fore
SplineSet
1263 861 m 1,0,-1
 1097 861 l 1,1,-1
 1007 336 l 2,2,3
 1001 285 1001 285 1015 258 c 128,-1,4
 1029 231 1029 231 1083 229 c 0,5,6
 1114 228 1114 228 1169 235 c 1,7,-1
 1149 14 l 1,8,9
 1079 -11 1079 -11 988 -9 c 0,10,11
 851 -7 851 -7 781.5 77 c 128,-1,12
 712 161 712 161 725 308 c 1,13,-1
 815 861 l 1,14,-1
 549 861 l 1,15,-1
 400 0 l 1,16,-1
 117 0 l 1,17,-1
 267 861 l 1,18,-1
 95 861 l 1,19,-1
 133 1082 l 1,20,-1
 1302 1082 l 1,21,-1
 1263 861 l 1,0,-1
EndSplineSet
EndChar

StartChar: rho
Encoding: 961 961 198
Width: 1131
GlyphClass: 2
Flags: W
LayerCount: 2
Back
Fore
SplineSet
102 576 m 1,0,1
 137 811 137 811 281 956 c 0,2,3
 433 1108 433 1108 652 1102 c 0,4,5
 767 1099 767 1099 853.5 1047.5 c 128,-1,6
 940 996 940 996 989.5 896 c 128,-1,7
 1039 796 1039 796 1046 673 c 0,8,9
 1050 604 1050 604 1043 535 c 2,10,-1
 1040 514 l 2,11,12
 1020 351 1020 351 953 225.5 c 128,-1,13
 886 100 886 100 785.5 38 c 128,-1,14
 685 -24 685 -24 562 -21 c 0,15,16
 403 -17 403 -17 315 103 c 1,17,-1
 215 -416 l 1,18,-1
 -67 -416 l 1,19,-1
 102 576 l 1,0,1
339 301 m 1,20,21
 382 214 382 214 500 210 c 0,22,23
 600 207 600 207 667.5 283.5 c 128,-1,24
 735 360 735 360 756 508 c 2,25,-1
 760 535 l 2,26,27
 769 620 769 620 766 672 c 0,28,29
 755 863 755 863 621 870 c 0,30,31
 532 874 532 874 470.5 796.5 c 128,-1,32
 409 719 409 719 382 563 c 2,33,-1
 339 301 l 1,20,21
EndSplineSet
EndChar

StartChar: sigma1
Encoding: 962 962 199
Width: 1032
Flags: W
LayerCount: 2
Back
Fore
SplineSet
618 1102 m 0,0,1
 801 1098 801 1098 905 982 c 128,-1,2
 1009 866 1009 866 1003 678 c 1,3,-1
 739 678 l 1,4,5
 744 862 744 862 603 869 c 0,6,7
 503 874 503 874 433.5 791 c 128,-1,8
 364 708 364 708 343 552 c 0,9,10
 333 463 333 463 339 420 c 0,11,12
 355 295 355 295 489 239 c 1,13,-1
 617 191 l 2,14,15
 784 125 784 125 779 -25 c 0,16,17
 776 -113 776 -113 708.5 -203.5 c 128,-1,18
 641 -294 641 -294 520 -375 c 1,19,-1
 375 -254 l 1,20,-1
 410 -218 l 2,21,22
 479 -146 479 -146 491 -82 c 0,23,24
 498 -45 498 -45 480 -27 c 128,-1,25
 462 -9 462 -9 424 4 c 0,26,27
 224 71 224 71 132.5 197.5 c 128,-1,28
 41 324 41 324 58 523 c 2,29,-1
 59 535 l 1,30,31
 86 794 86 794 240.5 951 c 128,-1,32
 395 1108 395 1108 618 1102 c 0,0,1
EndSplineSet
EndChar

StartChar: sigma
Encoding: 963 963 200
Width: 1147
Flags: W
LayerCount: 2
Back
Fore
SplineSet
1164 848 m 1,0,-1
 918 846 l 1,1,2
 980 756 980 756 1006 677 c 128,-1,3
 1032 598 1032 598 1027 513 c 0,4,5
 1005 268 1005 268 852 122 c 128,-1,6
 699 -24 699 -24 480 -20 c 0,7,8
 339 -18 339 -18 237.5 52 c 128,-1,9
 136 122 136 122 88.5 247.5 c 128,-1,10
 41 373 41 373 57 527 c 2,11,-1
 59 549 l 1,12,13
 88 788 88 788 243 935.5 c 128,-1,14
 398 1083 398 1083 628 1083 c 2,15,-1
 1206 1082 l 1,16,-1
 1164 848 l 1,0,-1
339 523 m 2,17,18
 334 476 334 476 335 422 c 0,19,20
 335 326 335 326 376.5 269 c 128,-1,21
 418 212 418 212 495 210 c 0,22,23
 599 207 599 207 666 294.5 c 128,-1,24
 733 382 733 382 750 532 c 1,25,-1
 753 553 l 1,26,-1
 757 648 l 2,27,28
 757 739 757 739 718.5 793 c 128,-1,29
 680 847 680 847 608 849 c 0,30,31
 505 852 505 852 435.5 775.5 c 128,-1,32
 366 699 366 699 344 558 c 2,33,-1
 339 523 l 2,17,18
EndSplineSet
EndChar

StartChar: tau
Encoding: 964 964 201
Width: 1044
Flags: W
LayerCount: 2
Back
Fore
SplineSet
1035 850 m 1,0,-1
 690 850 l 1,1,-1
 600 326 l 1,2,-1
 598 288 l 2,3,4
 598 222 598 222 658 219 c 0,5,6
 694 216 694 216 755 234 c 1,7,-1
 765 10 l 1,8,9
 683 -21 683 -21 591 -19 c 0,10,11
 448 -15 448 -15 377.5 79.5 c 128,-1,12
 307 174 307 174 322 331 c 1,13,-1
 407 850 l 1,14,-1
 85 850 l 1,15,-1
 126 1082 l 1,16,-1
 1075 1082 l 1,17,-1
 1035 850 l 1,0,-1
EndSplineSet
EndChar

StartChar: upsilon
Encoding: 965 965 202
Width: 1094
GlyphClass: 2
Flags: W
LayerCount: 2
Back
Fore
SplineSet
486 1082 m 1,0,-1
 377 412 l 1,1,-1
 373 352 l 1,2,-1
 373 327 l 1,3,4
 378 215 378 215 459 211 c 0,5,6
 591 205 591 205 675 372.5 c 128,-1,7
 759 540 759 540 754 830 c 0,8,9
 751 960 751 960 719 1085 c 1,10,-1
 978 1083 l 1,11,12
 1036 915 1036 915 1026 700 c 0,13,14
 1015 457 1015 457 938.5 296 c 128,-1,15
 862 135 862 135 736.5 54.5 c 128,-1,16
 611 -26 611 -26 450 -22 c 0,17,18
 262 -18 262 -18 166.5 101.5 c 128,-1,19
 71 221 71 221 92 417 c 1,20,-1
 204 1082 l 1,21,-1
 486 1082 l 1,0,-1
EndSplineSet
EndChar

StartChar: phi
Encoding: 966 966 203
Width: 1491
Flags: W
LayerCount: 2
Back
Fore
SplineSet
507 -9 m 1,0,1
 273 28 273 28 156 190 c 128,-1,2
 39 352 39 352 67 588 c 0,3,4
 84 741 84 741 156 873 c 128,-1,5
 228 1005 228 1005 353 1097 c 1,6,-1
 536 939 l 1,7,8
 437 834 437 834 387 713 c 0,9,10
 336 588 336 588 342 468 c 0,11,12
 352 281 352 281 532 225 c 1,13,-1
 634 803 l 1,14,15
 650 933 650 933 741.5 1017 c 128,-1,16
 833 1101 833 1101 962 1099 c 0,17,18
 1106 1096 1106 1096 1218 1024.5 c 128,-1,19
 1330 953 1330 953 1384 830.5 c 128,-1,20
 1438 708 1438 708 1424 565 c 0,21,22
 1398 322 1398 322 1230 168.5 c 128,-1,23
 1062 15 1062 15 789 -13 c 1,24,-1
 700 -478 l 1,25,-1
 418 -478 l 1,26,-1
 507 -9 l 1,0,1
813 221 m 1,27,28
 967 258 967 258 1054.5 362 c 128,-1,29
 1142 466 1142 466 1145 624 c 0,30,31
 1145 744 1145 744 1103.5 809.5 c 128,-1,32
 1062 875 1062 875 988 865 c 0,33,34
 938 859 938 859 925 812 c 1,35,-1
 813 221 l 1,27,28
EndSplineSet
EndChar

StartChar: psi
Encoding: 968 968 204
Width: 1488
GlyphClass: 2
Flags: W
LayerCount: 2
Back
Fore
SplineSet
969 1082 m 1,0,-1
 812 223 l 1,1,2
 945 258 945 258 1028 344 c 128,-1,3
 1111 430 1111 430 1141 560 c 128,-1,4
 1171 690 1171 690 1162 845 c 0,5,6
 1154 967 1154 967 1121 1085 c 1,7,-1
 1371 1083 l 1,8,9
 1421 970 1421 970 1433 846 c 0,10,11
 1455 595 1455 595 1384.5 412 c 128,-1,12
 1314 229 1314 229 1159 119 c 128,-1,13
 1004 9 1004 9 787 -12 c 1,14,-1
 698 -478 l 1,15,-1
 416 -478 l 1,16,-1
 505 -9 l 1,17,18
 279 25 279 25 165.5 184.5 c 128,-1,19
 52 344 52 344 81 589 c 1,20,-1
 164 1082 l 1,21,-1
 447 1082 l 1,22,-1
 364 585 l 2,23,24
 356 526 356 526 358 471 c 0,25,26
 365 283 365 283 530 226 c 1,27,-1
 687 1082 l 1,28,-1
 969 1082 l 1,0,-1
EndSplineSet
EndChar

StartChar: omega
Encoding: 969 969 205
Width: 1641
GlyphClass: 2
Flags: W
LayerCount: 2
Back
Fore
SplineSet
573 1081 m 1,0,-1
 449 834 l 1,1,2
 355 632 355 632 348 434 c 0,3,4
 337 217 337 217 449 210 c 0,5,6
 600 199 600 199 648 454 c 1,7,-1
 711 844 l 1,8,-1
 1009 844 l 1,9,-1
 953 491 l 2,10,11
 946 440 946 440 947 382 c 0,12,13
 947 214 947 214 1056 211 c 0,14,15
 1196 204 1196 204 1251 468 c 0,16,17
 1289 651 1289 651 1275 832 c 0,18,19
 1265 962 1265 962 1219 1086 c 1,20,-1
 1476 1083 l 1,21,22
 1534 964 1534 964 1548 833 c 0,23,24
 1570 627 1570 627 1518 413.5 c 128,-1,25
 1466 200 1466 200 1345 87.5 c 128,-1,26
 1224 -25 1224 -25 1046 -21 c 0,27,28
 946 -19 946 -19 868 37.5 c 128,-1,29
 790 94 790 94 762 192 c 1,30,31
 691 81 691 81 607 28.5 c 128,-1,32
 523 -24 523 -24 421 -22 c 0,33,34
 249 -18 249 -18 157.5 99.5 c 128,-1,35
 66 217 66 217 66 426 c 0,36,37
 66 610 66 610 122.5 770.5 c 128,-1,38
 179 931 179 931 293 1081 c 1,39,-1
 573 1081 l 1,0,-1
EndSplineSet
EndChar

StartChar: theta1
Encoding: 977 977 206
Width: 1192
Flags: W
LayerCount: 2
Back
Fore
SplineSet
1182 576 m 1,0,-1
 1063 549 l 1,1,-1
 1049 463 l 2,2,3
 1011 232 1011 232 862 103 c 128,-1,4
 713 -26 713 -26 503 -20 c 0,5,6
 374 -17 374 -17 275 46 c 128,-1,7
 176 109 176 109 128 218.5 c 128,-1,8
 80 328 80 328 94 458 c 1,9,-1
 133 703 l 1,10,-1
 402 704 l 1,11,-1
 363 457 l 2,12,13
 349 356 349 356 395.5 289 c 128,-1,14
 442 222 442 222 533 220 c 0,15,16
 615 217 615 217 672 278.5 c 128,-1,17
 729 340 729 340 752 457 c 2,18,-1
 770 550 l 1,19,20
 595 598 595 598 497.5 732.5 c 128,-1,21
 400 867 400 867 412 1050 c 0,22,23
 423 1187 423 1187 480 1282 c 128,-1,24
 537 1377 537 1377 629 1428.5 c 128,-1,25
 721 1480 721 1480 834 1476 c 0,26,27
 993 1472 993 1472 1077.5 1354.5 c 128,-1,28
 1162 1237 1162 1237 1142 1056 c 1,29,-1
 1097 800 l 1,30,-1
 1196 822 l 1,31,-1
 1182 576 l 1,0,-1
678 1064 m 2,32,33
 673 1023 673 1023 677 986 c 0,34,35
 690 867 690 867 799 812 c 1,36,-1
 850 1087 l 1,37,-1
 854 1128 l 1,38,39
 858 1218 858 1218 798 1220 c 0,40,41
 753 1222 753 1222 722 1187.5 c 128,-1,42
 691 1153 691 1153 680 1089 c 1,43,-1
 678 1064 l 2,32,33
EndSplineSet
EndChar

StartChar: Upsilon1
Encoding: 978 978 207
Width: 1184
GlyphClass: 2
Flags: W
LayerCount: 2
Back
Fore
SplineSet
611 769 m 1,0,-1
 862 1240 l 1,1,2
 927 1372 927 1372 1006 1430 c 128,-1,3
 1085 1488 1085 1488 1187 1486 c 0,4,5
 1253 1486 1253 1486 1337 1461 c 1,6,-1
 1285 1227 l 1,7,8
 1252 1234 1252 1234 1231 1234 c 0,9,10
 1162 1232 1162 1232 1117 1160 c 2,11,-1
 711 471 l 1,12,-1
 630 0 l 1,13,-1
 334 0 l 1,14,-1
 423 506 l 1,15,-1
 265 1161 l 1,16,17
 243 1224 243 1224 187 1228 c 0,18,19
 171 1229 171 1229 128 1223 c 1,20,-1
 115 1459 l 1,21,22
 182 1482 182 1482 247 1480 c 0,23,24
 452 1476 452 1476 515 1245 c 1,25,-1
 611 769 l 1,0,-1
EndSplineSet
EndChar

StartChar: omega1
Encoding: 982 982 208
Width: 1653
GlyphClass: 2
Flags: W
LayerCount: 2
Back
Fore
SplineSet
1681 876 m 1,0,-1
 1564 878 l 1,1,-1
 1565 724 l 2,2,3
 1563 589 1563 589 1532.5 445 c 128,-1,4
 1502 301 1502 301 1438 191.5 c 128,-1,5
 1374 82 1374 82 1280.5 28.5 c 128,-1,6
 1187 -25 1187 -25 1068 -22 c 0,7,8
 957 -20 957 -20 876 40 c 128,-1,9
 795 100 795 100 769 197 c 1,10,11
 627 -28 627 -28 412 -21 c 0,12,13
 245 -17 245 -17 155.5 100.5 c 128,-1,14
 66 218 66 218 68 429 c 0,15,16
 68 679 68 679 185 880 c 1,17,-1
 65 877 l 1,18,-1
 103 1082 l 1,19,-1
 1720 1082 l 1,20,-1
 1681 876 l 1,0,-1
1289 724 m 2,21,-1
 1286 876 l 1,22,-1
 474 878 l 1,23,24
 335 611 335 611 348 361 c 0,25,26
 355 216 355 216 439 211 c 0,27,28
 522 204 522 204 579 273.5 c 128,-1,29
 636 343 636 343 658 478 c 2,30,-1
 691 693 l 1,31,-1
 988 693 l 1,32,-1
 957 491 l 2,33,34
 949 427 949 427 952 377 c 0,35,36
 957 214 957 214 1074 211 c 0,37,38
 1214 207 1214 207 1263 480 c 0,39,40
 1288 619 1288 619 1289 724 c 2,21,-1
EndSplineSet
EndChar

StartChar: uni0402
Encoding: 1026 1026 209
Width: 1495
Flags: W
LayerCount: 2
Back
Fore
SplineSet
1237 1213 m 1,0,-1
 779 1213 l 1,1,-1
 709 862 l 1,2,3
 834 895 834 895 939 893 c 0,4,5
 1086 892 1086 892 1196.5 837.5 c 128,-1,6
 1307 783 1307 783 1361.5 684 c 128,-1,7
 1416 585 1416 585 1405 451 c 0,8,9
 1388 235 1388 235 1224.5 110.5 c 128,-1,10
 1061 -14 1061 -14 793 -19 c 1,11,-1
 815 210 l 1,12,13
 938 212 938 212 1016 271 c 128,-1,14
 1094 330 1094 330 1108 433 c 0,15,16
 1121 531 1121 531 1070 588 c 128,-1,17
 1019 645 1019 645 915 649 c 0,18,19
 825 652 825 652 685 630 c 1,20,-1
 568 0 l 1,21,-1
 274 0 l 1,22,-1
 485 1213 l 1,23,-1
 133 1213 l 1,24,-1
 176 1456 l 1,25,-1
 1280 1456 l 1,26,-1
 1237 1213 l 1,0,-1
EndSplineSet
Substitution2: "'c2sc' Capitals to Small Capitals lookup 0 subtable" uni0402.c2sc
Position2: "'cpsp' Capital Spacing lookup 0 subtable" dx=36 dy=0 dh=72 dv=0
EndChar

StartChar: uni0404
Encoding: 1028 1028 210
Width: 1320
GlyphClass: 2
Flags: W
LayerCount: 2
Back
Fore
SplineSet
1209 485 m 1,0,1
 1192 336 1192 336 1106 219 c 128,-1,2
 1020 102 1020 102 882 39.5 c 128,-1,3
 744 -23 744 -23 585 -20 c 0,4,5
 439 -17 439 -17 331.5 46.5 c 128,-1,6
 224 110 224 110 163.5 230.5 c 128,-1,7
 103 351 103 351 95 507 c 0,8,9
 88 621 88 621 118.5 801.5 c 128,-1,10
 149 982 149 982 230.5 1128 c 128,-1,11
 312 1274 312 1274 430 1360 c 0,12,13
 594 1480 594 1480 804 1476 c 0,14,15
 1029 1472 1029 1472 1162.5 1336.5 c 128,-1,16
 1296 1201 1296 1201 1309 959 c 1,17,-1
 1017 960 l 1,18,19
 1017 1099 1017 1099 961.5 1165 c 128,-1,20
 906 1231 906 1231 791 1234 c 0,21,22
 660 1239 660 1239 566.5 1148.5 c 128,-1,23
 473 1058 473 1058 414 849 c 1,24,-1
 858 850 l 1,25,-1
 815 608 l 1,26,-1
 389 608 l 1,27,28
 380 544 380 544 382 477 c 0,29,30
 384 359 384 359 438.5 291 c 128,-1,31
 493 223 493 223 597 219 c 0,32,33
 727 215 727 215 809 283.5 c 128,-1,34
 891 352 891 352 918 483 c 1,35,-1
 1209 485 l 1,0,1
EndSplineSet
Substitution2: "'c2sc' Capitals to Small Capitals lookup 0 subtable" uni0404.c2sc
Position2: "'cpsp' Capital Spacing lookup 0 subtable" dx=36 dy=0 dh=72 dv=0
EndChar

StartChar: uni0409
Encoding: 1033 1033 211
Width: 2111
Flags: W
LayerCount: 2
Back
Fore
SplineSet
1338 961 m 1,0,-1
 1551 960 l 1,1,2
 1776 953 1776 953 1908 822.5 c 128,-1,3
 2040 692 2040 692 2023 489 c 0,4,5
 2007 272 2007 272 1839.5 136 c 128,-1,6
 1672 0 1672 0 1416 0 c 2,7,-1
 878 0 l 1,8,-1
 1088 1213 l 1,9,-1
 715 1213 l 1,10,-1
 577 571 l 1,11,12
 508 270 508 270 374 134.5 c 128,-1,13
 240 -1 240 -1 31 0 c 2,14,-1
 -66 0 l 1,15,-1
 -31 241 l 1,16,-1
 3 243 l 2,17,18
 126 254 126 254 203.5 359 c 128,-1,19
 281 464 281 464 322 692 c 2,20,-1
 344 818 l 1,21,-1
 475 1456 l 1,22,-1
 1424 1456 l 1,23,-1
 1338 961 l 1,0,-1
1297 719 m 1,24,-1
 1214 241 l 1,25,-1
 1427 239 l 2,26,27
 1546 241 1546 241 1629 309.5 c 128,-1,28
 1712 378 1712 378 1730 492 c 0,29,30
 1744 586 1744 586 1693.5 650 c 128,-1,31
 1643 714 1643 714 1545 718 c 2,32,-1
 1297 719 l 1,24,-1
EndSplineSet
Substitution2: "'c2sc' Capitals to Small Capitals lookup 0 subtable" uni0409.c2sc
Position2: "'cpsp' Capital Spacing lookup 0 subtable" dx=36 dy=0 dh=72 dv=0
EndChar

StartChar: uni040A
Encoding: 1034 1034 212
Width: 2113
Flags: W
LayerCount: 2
Back
Fore
SplineSet
462 842 m 1,0,-1
 1026 842 l 1,1,-1
 1132 1456 l 1,2,-1
 1425 1456 l 1,3,-1
 1338 952 l 1,4,-1
 1531 951 l 2,5,6
 1765 950 1765 950 1902 820.5 c 128,-1,7
 2039 691 2039 691 2022 485 c 0,8,9
 2006 269 2006 269 1840 134.5 c 128,-1,10
 1674 0 1674 0 1419 0 c 2,11,-1
 880 0 l 1,12,-1
 984 601 l 1,13,-1
 421 601 l 1,14,-1
 316 0 l 1,15,-1
 23 0 l 1,16,-1
 276 1456 l 1,17,-1
 569 1456 l 1,18,-1
 462 842 l 1,0,-1
1296 710 m 1,19,-1
 1215 243 l 1,20,-1
 1430 241 l 2,21,22
 1550 243 1550 243 1632 311.5 c 128,-1,23
 1714 380 1714 380 1731 488 c 0,24,25
 1745 586 1745 586 1692 645.5 c 128,-1,26
 1639 705 1639 705 1545 709 c 2,27,-1
 1296 710 l 1,19,-1
EndSplineSet
Substitution2: "'c2sc' Capitals to Small Capitals lookup 0 subtable" uni040A.c2sc
Position2: "'cpsp' Capital Spacing lookup 0 subtable" dx=36 dy=0 dh=72 dv=0
EndChar

StartChar: uni040B
Encoding: 1035 1035 213
Width: 1543
Flags: W
LayerCount: 2
Back
Fore
SplineSet
1218 1213 m 1,0,-1
 766 1213 l 1,1,-1
 704 912 l 1,2,3
 816 932 816 932 908 930 c 0,4,5
 1152 928 1152 928 1283 799.5 c 128,-1,6
 1414 671 1414 671 1390 449 c 1,7,-1
 1316 0 l 1,8,-1
 1023 0 l 1,9,-1
 1098 450 l 1,10,11
 1114 571 1114 571 1066.5 628.5 c 128,-1,12
 1019 686 1019 686 897 688 c 0,13,14
 828 691 828 691 679 674 c 1,15,-1
 555 0 l 1,16,-1
 262 0 l 1,17,-1
 472 1213 l 1,18,-1
 137 1213 l 1,19,-1
 180 1456 l 1,20,-1
 1261 1456 l 1,21,-1
 1218 1213 l 1,0,-1
EndSplineSet
Substitution2: "'c2sc' Capitals to Small Capitals lookup 0 subtable" uni040B.c2sc
Position2: "'cpsp' Capital Spacing lookup 0 subtable" dx=36 dy=0 dh=72 dv=0
EndChar

StartChar: uni040F
Encoding: 1039 1039 214
Width: 1401
Flags: W
LayerCount: 2
Back
Fore
SplineSet
261 1456 m 1,0,-1
 554 1456 l 1,1,-1
 343 241 l 1,2,-1
 907 241 l 1,3,-1
 1118 1456 l 1,4,-1
 1412 1456 l 1,5,-1
 1159 0 l 1,6,-1
 744 0 l 1,7,-1
 682 -360 l 1,8,-1
 387 -360 l 1,9,-1
 449 0 l 1,10,-1
 9 0 l 1,11,-1
 261 1456 l 1,0,-1
EndSplineSet
Substitution2: "'c2sc' Capitals to Small Capitals lookup 0 subtable" uni040F.c2sc
Position2: "'cpsp' Capital Spacing lookup 0 subtable" dx=36 dy=0 dh=72 dv=0
EndChar

StartChar: uni0411
Encoding: 1041 1041 215
Width: 1255
Flags: W
LayerCount: 2
Back
Fore
SplineSet
1155 1213 m 1,0,-1
 525 1213 l 1,1,-1
 476 931 l 1,2,-1
 667 930 l 2,3,4
 906 929 906 929 1042 806 c 128,-1,5
 1178 683 1178 683 1163 479 c 0,6,7
 1147 262 1147 262 981 131 c 128,-1,8
 815 0 815 0 558 0 c 2,9,-1
 18 0 l 1,10,-1
 271 1456 l 1,11,-1
 1197 1456 l 1,12,-1
 1155 1213 l 1,0,-1
434 689 m 1,13,-1
 356 241 l 1,14,-1
 570 240 l 2,15,16
 686 240 686 240 769.5 305.5 c 128,-1,17
 853 371 853 371 870 482 c 0,18,19
 883 573 883 573 833 628.5 c 128,-1,20
 783 684 783 684 682 688 c 2,21,-1
 434 689 l 1,13,-1
EndSplineSet
Substitution2: "'c2sc' Capitals to Small Capitals lookup 0 subtable" uni0411.c2sc
Position2: "'cpsp' Capital Spacing lookup 0 subtable" dx=36 dy=0 dh=72 dv=0
EndChar

StartChar: uni0414
Encoding: 1044 1044 216
Width: 1495
Flags: W
LayerCount: 2
Back
Fore
SplineSet
1272 -358 m 1,0,-1
 1000 -358 l 1,1,-1
 1062 0 l 1,2,-1
 213 0 l 1,3,-1
 151 -357 l 1,4,-1
 -126 -357 l 1,5,-1
 -38 241 l 1,6,-1
 54 239 l 1,7,8
 249 365 249 365 335 695 c 2,9,-1
 356 778 l 1,10,-1
 515 1456 l 1,11,-1
 1444 1456 l 1,12,-1
 1233 241 l 1,13,-1
 1399 241 l 1,14,-1
 1272 -358 l 1,0,-1
399 236 m 1,15,-1
 940 241 l 1,16,-1
 1109 1213 l 1,17,-1
 754 1213 l 1,18,-1
 637 715 l 1,19,20
 556 403 556 403 399 236 c 1,15,-1
EndSplineSet
Substitution2: "'c2sc' Capitals to Small Capitals lookup 0 subtable" uni0414.c2sc
Position2: "'cpsp' Capital Spacing lookup 0 subtable" dx=36 dy=0 dh=72 dv=0
EndChar

StartChar: uni0416
Encoding: 1046 1046 217
Width: 1992
GlyphClass: 2
Flags: W
LayerCount: 2
Back
Fore
SplineSet
1324 593 m 1,0,-1
 1150 593 l 1,1,-1
 1047 0 l 1,2,-1
 754 0 l 1,3,-1
 857 593 l 1,4,-1
 695 593 l 1,5,-1
 285 0 l 1,6,-1
 -97 0 l 1,7,-1
 491 797 l 1,8,-1
 192 1455 l 1,9,-1
 541 1456 l 1,10,-1
 753 869 l 1,11,-1
 904 869 l 1,12,-1
 1006 1456 l 1,13,-1
 1299 1456 l 1,14,-1
 1197 869 l 1,15,-1
 1328 869 l 1,16,-1
 1737 1456 l 1,17,-1
 2118 1456 l 1,18,-1
 1577 766 l 1,19,-1
 1873 0 l 1,20,-1
 1521 0 l 1,21,-1
 1324 593 l 1,0,-1
EndSplineSet
Substitution2: "'c2sc' Capitals to Small Capitals lookup 0 subtable" uni0416.c2sc
Position2: "'cpsp' Capital Spacing lookup 0 subtable" dx=36 dy=0 dh=72 dv=0
EndChar

StartChar: uni0417
Encoding: 1047 1047 218
Width: 1235
GlyphClass: 2
Flags: W
LayerCount: 2
Back
Fore
SplineSet
639 858 m 2,0,1
 750 860 750 860 818.5 915 c 128,-1,2
 887 970 887 970 899 1064 c 0,3,4
 909 1142 909 1142 857 1187.5 c 128,-1,5
 805 1233 805 1233 710 1235 c 0,6,7
 619 1237 619 1237 550 1191 c 128,-1,8
 481 1145 481 1145 466 1062 c 1,9,-1
 172 1061 l 1,10,11
 179 1185 179 1185 254 1279.5 c 128,-1,12
 329 1374 329 1374 454.5 1426 c 128,-1,13
 580 1478 580 1478 723 1476 c 0,14,15
 871 1474 871 1474 985 1421.5 c 128,-1,16
 1099 1369 1099 1369 1151.5 1278.5 c 128,-1,17
 1204 1188 1204 1188 1196 1069 c 0,18,19
 1183 861 1183 861 922 741 c 1,20,21
 1019 694 1019 694 1064.5 608.5 c 128,-1,22
 1110 523 1110 523 1103 416 c 0,23,24
 1094 283 1094 283 1018 185 c 128,-1,25
 942 87 942 87 805 33 c 128,-1,26
 668 -21 668 -21 507 -19 c 0,27,28
 367 -18 367 -18 254.5 35.5 c 128,-1,29
 142 89 142 89 83.5 183 c 128,-1,30
 25 277 25 277 26 405 c 1,31,-1
 318 405 l 1,32,33
 316 322 316 322 370 273 c 128,-1,34
 424 224 424 224 519 222 c 0,35,36
 634 220 634 220 716 274.5 c 128,-1,37
 798 329 798 329 812 420 c 0,38,39
 828 523 828 523 778 572 c 128,-1,40
 728 621 728 621 630 624 c 2,41,-1
 438 625 l 1,42,-1
 479 860 l 1,43,-1
 639 858 l 2,0,1
EndSplineSet
Substitution2: "'c2sc' Capitals to Small Capitals lookup 0 subtable" uni0417.c2sc
Position2: "'cpsp' Capital Spacing lookup 0 subtable" dx=36 dy=0 dh=72 dv=0
EndChar

StartChar: uni0418
Encoding: 1048 1048 219
Width: 1401
GlyphClass: 2
Flags: W
LayerCount: 2
Back
Fore
SplineSet
1111 1456 m 1,0,-1
 1415 1456 l 1,1,-1
 1162 0 l 1,2,-1
 868 0 l 1,3,-1
 1033 948 l 1,4,-1
 314 0 l 1,5,-1
 11 0 l 1,6,-1
 264 1456 l 1,7,-1
 557 1456 l 1,8,-1
 392 507 l 1,9,-1
 1111 1456 l 1,0,-1
EndSplineSet
Substitution2: "'c2sc' Capitals to Small Capitals lookup 0 subtable" uni0418.c2sc
Position2: "'cpsp' Capital Spacing lookup 0 subtable" dx=36 dy=0 dh=72 dv=0
EndChar

StartChar: uni041B
Encoding: 1051 1051 220
Width: 1413
GlyphClass: 2
Flags: W
LayerCount: 2
Back
Fore
SplineSet
1424 1456 m 1,0,-1
 1172 0 l 1,1,-1
 878 0 l 1,2,-1
 1088 1213 l 1,3,-1
 715 1213 l 1,4,-1
 577 572 l 1,5,6
 507 272 507 272 379.5 138.5 c 128,-1,7
 252 5 252 5 56 0 c 1,8,-1
 -66 0 l 1,9,-1
 -31 241 l 1,10,-1
 13 245 l 2,11,12
 133 259 133 259 210 368.5 c 128,-1,13
 287 478 287 478 326 713 c 2,14,-1
 344 818 l 1,15,-1
 475 1456 l 1,16,-1
 1424 1456 l 1,0,-1
EndSplineSet
Substitution2: "'c2sc' Capitals to Small Capitals lookup 0 subtable" uni041B.c2sc
Position2: "'cpsp' Capital Spacing lookup 0 subtable" dx=36 dy=0 dh=72 dv=0
EndChar

StartChar: uni0423
Encoding: 1059 1059 221
Width: 1264
GlyphClass: 2
Flags: W
LayerCount: 2
Back
Fore
SplineSet
678 769 m 1,0,-1
 1054 1456 l 1,1,-1
 1384 1456 l 1,2,-1
 702 284 l 1,3,4
 612 119 612 119 509.5 47.5 c 128,-1,5
 407 -24 407 -24 270 -24 c 1,6,-1
 157 -19 l 1,7,-1
 179 224 l 1,8,-1
 251 217 l 1,9,10
 320 217 320 217 368 248 c 128,-1,11
 416 279 416 279 459 356 c 2,12,-1
 497 419 l 1,13,-1
 186 1456 l 1,14,-1
 485 1456 l 1,15,-1
 678 769 l 1,0,-1
EndSplineSet
Substitution2: "'c2sc' Capitals to Small Capitals lookup 0 subtable" uni0423.c2sc
Position2: "'cpsp' Capital Spacing lookup 0 subtable" dx=36 dy=0 dh=72 dv=0
EndChar

StartChar: uni0424
Encoding: 1060 1060 222
Width: 1632
Flags: W
LayerCount: 2
Back
Fore
SplineSet
1071 1325 m 1,0,-1
 1074 1325 l 1,1,-1
 1092 1325 l 2,2,3
 1206 1325 1206 1325 1297 1282 c 128,-1,4
 1388 1239 1388 1239 1452.5 1166.5 c 128,-1,5
 1517 1094 1517 1094 1551.5 997.5 c 128,-1,6
 1586 901 1586 901 1586 793 c 0,7,8
 1586 648 1586 648 1531.5 525.5 c 128,-1,9
 1477 403 1477 403 1385.5 314.5 c 128,-1,10
 1294 226 1294 226 1174.5 176 c 128,-1,11
 1055 126 1055 126 925 126 c 0,12,13
 917 126 917 126 910.5 126.5 c 128,-1,14
 904 127 904 127 896 127 c 2,15,-1
 887 127 l 1,16,-1
 846 -60 l 1,17,-1
 564 -60 l 1,18,-1
 604 127 l 1,19,-1
 587 127 l 2,20,21
 530 129 530 129 481.5 138.5 c 128,-1,22
 433 148 433 148 391 165 c 0,23,24
 349 181 349 181 307.5 206 c 128,-1,25
 266 231 266 231 228 270 c 0,26,27
 162 338 162 338 127 430.5 c 128,-1,28
 92 523 92 523 92 634 c 0,29,30
 92 734 92 734 116.5 824.5 c 128,-1,31
 141 915 141 915 185 991.5 c 128,-1,32
 229 1068 229 1068 291 1130 c 128,-1,33
 353 1192 353 1192 427.5 1235 c 128,-1,34
 502 1278 502 1278 587.5 1301.5 c 128,-1,35
 673 1325 673 1325 764 1325 c 2,36,-1
 783 1325 l 1,37,-1
 796 1325 l 1,38,-1
 838 1516 l 1,39,-1
 1114 1516 l 1,40,-1
 1071 1325 l 1,0,-1
1051 1078 m 1,41,-1
 910 373 l 1,42,-1
 913 372 l 2,43,44
 921 371 921 371 927.5 371 c 128,-1,45
 934 371 934 371 942 371 c 0,46,47
 1021 371 1021 371 1088.5 406 c 128,-1,48
 1156 441 1156 441 1205.5 500 c 128,-1,49
 1255 559 1255 559 1282.5 636 c 128,-1,50
 1310 713 1310 713 1310 797 c 0,51,52
 1310 923 1310 923 1247.5 995.5 c 128,-1,53
 1185 1068 1185 1068 1061 1078 c 1,54,-1
 1051 1078 l 1,41,-1
771 1078 m 1,55,56
 602 1067 602 1067 499 974.5 c 128,-1,57
 396 882 396 882 374 710 c 0,58,59
 372 693 372 693 371 677 c 128,-1,60
 370 661 370 661 370 645 c 0,61,62
 370 520 370 520 433.5 451 c 128,-1,63
 497 382 497 382 620 374 c 1,64,-1
 631 374 l 1,65,-1
 771 1078 l 1,55,56
EndSplineSet
Substitution2: "'c2sc' Capitals to Small Capitals lookup 0 subtable" uni0424.c2sc
Position2: "'cpsp' Capital Spacing lookup 0 subtable" dx=36 dy=0 dh=72 dv=0
EndChar

StartChar: uni0426
Encoding: 1062 1062 223
Width: 1517
Flags: W
LayerCount: 2
Back
Fore
SplineSet
261 1456 m 1,0,-1
 554 1456 l 1,1,-1
 343 241 l 1,2,-1
 907 241 l 1,3,-1
 1118 1456 l 1,4,-1
 1412 1456 l 1,5,-1
 1201 241 l 1,6,-1
 1395 241 l 1,7,-1
 1273 -351 l 1,8,-1
 998 -351 l 1,9,-1
 1060 0 l 1,10,-1
 9 0 l 1,11,-1
 261 1456 l 1,0,-1
EndSplineSet
Substitution2: "'c2sc' Capitals to Small Capitals lookup 0 subtable" uni0426.c2sc
Position2: "'cpsp' Capital Spacing lookup 0 subtable" dx=36 dy=0 dh=72 dv=0
EndChar

StartChar: uni0427
Encoding: 1063 1063 224
Width: 1391
GlyphClass: 2
Flags: W
LayerCount: 2
Back
Fore
SplineSet
1415 1456 m 1,0,-1
 1162 0 l 1,1,-1
 868 0 l 1,2,-1
 974 554 l 1,3,4
 851 523 851 523 700 525 c 0,5,6
 454 527 454 527 323 657.5 c 128,-1,7
 192 788 192 788 218 1007 c 1,8,-1
 293 1456 l 1,9,-1
 586 1456 l 1,10,-1
 512 1006 l 2,11,12
 496 885 496 885 543.5 827.5 c 128,-1,13
 591 770 591 770 713 767 c 0,14,15
 819 764 819 764 999 792 c 1,16,-1
 1121 1456 l 1,17,-1
 1415 1456 l 1,0,-1
EndSplineSet
Substitution2: "'c2sc' Capitals to Small Capitals lookup 0 subtable" uni0427.c2sc
Position2: "'cpsp' Capital Spacing lookup 0 subtable" dx=36 dy=0 dh=72 dv=0
EndChar

StartChar: uni0428
Encoding: 1064 1064 225
Width: 1914
Flags: W
LayerCount: 2
Back
Fore
SplineSet
566 1456 m 1,0,-1
 355 241 l 1,1,-1
 745 241 l 1,2,-1
 956 1456 l 1,3,-1
 1250 1456 l 1,4,-1
 1039 241 l 1,5,-1
 1425 241 l 1,6,-1
 1636 1456 l 1,7,-1
 1929 1456 l 1,8,-1
 1676 0 l 1,9,-1
 19 0 l 1,10,-1
 272 1456 l 1,11,-1
 566 1456 l 1,0,-1
EndSplineSet
Substitution2: "'c2sc' Capitals to Small Capitals lookup 0 subtable" uni0428.c2sc
Position2: "'cpsp' Capital Spacing lookup 0 subtable" dx=36 dy=0 dh=72 dv=0
EndChar

StartChar: uni0429
Encoding: 1065 1065 226
Width: 2038
Flags: W
LayerCount: 2
Back
Fore
SplineSet
566 1456 m 1,0,-1
 355 241 l 1,1,-1
 745 241 l 1,2,-1
 956 1456 l 1,3,-1
 1250 1456 l 1,4,-1
 1039 241 l 1,5,-1
 1425 241 l 1,6,-1
 1636 1456 l 1,7,-1
 1929 1456 l 1,8,-1
 1716 232 l 1,9,-1
 1903 232 l 1,10,-1
 1783 -350 l 1,11,-1
 1520 -350 l 1,12,-1
 1581 0 l 1,13,-1
 19 0 l 1,14,-1
 272 1456 l 1,15,-1
 566 1456 l 1,0,-1
EndSplineSet
Substitution2: "'c2sc' Capitals to Small Capitals lookup 0 subtable" uni0429.c2sc
Position2: "'cpsp' Capital Spacing lookup 0 subtable" dx=36 dy=0 dh=72 dv=0
EndChar

StartChar: uni042A
Encoding: 1066 1066 227
Width: 1541
Flags: W
LayerCount: 2
Back
Fore
SplineSet
172 1456 m 1,0,-1
 853 1456 l 1,1,-1
 762 931 l 1,2,-1
 952 930 l 2,3,4
 1190 929 1190 929 1327 806 c 128,-1,5
 1464 683 1464 683 1449 479 c 0,6,7
 1433 262 1433 262 1267 131 c 128,-1,8
 1101 0 1101 0 845 0 c 2,9,-1
 305 0 l 1,10,-1
 517 1222 l 1,11,-1
 131 1222 l 1,12,-1
 172 1456 l 1,0,-1
720 689 m 1,13,-1
 642 241 l 1,14,-1
 856 240 l 2,15,16
 971 240 971 240 1054.5 304 c 128,-1,17
 1138 368 1138 368 1156 482 c 0,18,19
 1169 573 1169 573 1119 628.5 c 128,-1,20
 1069 684 1069 684 968 688 c 2,21,-1
 720 689 l 1,13,-1
EndSplineSet
Substitution2: "'c2sc' Capitals to Small Capitals lookup 0 subtable" uni042A.c2sc
Position2: "'cpsp' Capital Spacing lookup 0 subtable" dx=36 dy=0 dh=72 dv=0
EndChar

StartChar: uni042B
Encoding: 1067 1067 228
Width: 1741
GlyphClass: 2
Flags: W
LayerCount: 2
Back
Fore
SplineSet
481 931 m 1,0,-1
 672 930 l 2,1,2
 911 929 911 929 1047 806 c 128,-1,3
 1183 683 1183 683 1168 479 c 0,4,5
 1152 262 1152 262 986 131 c 128,-1,6
 820 0 820 0 563 0 c 2,7,-1
 24 0 l 1,8,-1
 277 1456 l 1,9,-1
 572 1456 l 1,10,-1
 481 931 l 1,0,-1
439 689 m 1,11,-1
 361 241 l 1,12,-1
 575 240 l 2,13,14
 691 240 691 240 774.5 305.5 c 128,-1,15
 858 371 858 371 875 482 c 0,16,17
 888 573 888 573 838 628.5 c 128,-1,18
 788 684 788 684 687 688 c 2,19,-1
 439 689 l 1,11,-1
1500 0 m 1,20,-1
 1207 0 l 1,21,-1
 1459 1456 l 1,22,-1
 1752 1456 l 1,23,-1
 1500 0 l 1,20,-1
EndSplineSet
Substitution2: "'c2sc' Capitals to Small Capitals lookup 0 subtable" uni042B.c2sc
Position2: "'cpsp' Capital Spacing lookup 0 subtable" dx=36 dy=0 dh=72 dv=0
EndChar

StartChar: uni042C
Encoding: 1068 1068 229
Width: 1253
Flags: W
LayerCount: 2
Back
Fore
SplineSet
476 931 m 1,0,-1
 667 930 l 2,1,2
 906 929 906 929 1042 806 c 128,-1,3
 1178 683 1178 683 1163 479 c 0,4,5
 1147 262 1147 262 981 131 c 128,-1,6
 815 0 815 0 558 0 c 2,7,-1
 19 0 l 1,8,-1
 272 1456 l 1,9,-1
 567 1456 l 1,10,-1
 476 931 l 1,0,-1
434 689 m 1,11,-1
 356 241 l 1,12,-1
 570 240 l 2,13,14
 686 240 686 240 769.5 305.5 c 128,-1,15
 853 371 853 371 870 482 c 0,16,17
 883 573 883 573 833 628.5 c 128,-1,18
 783 684 783 684 682 688 c 2,19,-1
 434 689 l 1,11,-1
EndSplineSet
Substitution2: "'c2sc' Capitals to Small Capitals lookup 0 subtable" uni042C.c2sc
Position2: "'cpsp' Capital Spacing lookup 0 subtable" dx=36 dy=0 dh=72 dv=0
EndChar

StartChar: uni042D
Encoding: 1069 1069 230
Width: 1302
GlyphClass: 2
Flags: W
LayerCount: 2
Back
Fore
SplineSet
326 485 m 1,0,1
 328 351 328 351 384 287 c 128,-1,2
 440 223 440 223 556 219 c 0,3,4
 747 212 747 212 853 402 c 0,5,6
 895 478 895 478 931 607 c 1,7,-1
 474 606 l 1,8,-1
 517 849 l 1,9,-1
 955 849 l 1,10,-1
 961 936 l 1,11,12
 964 1078 964 1078 908 1154 c 128,-1,13
 852 1230 852 1230 744 1234 c 0,14,15
 615 1240 615 1240 532 1169.5 c 128,-1,16
 449 1099 449 1099 423 962 c 1,17,-1
 131 960 l 1,18,19
 153 1114 153 1114 239.5 1233 c 128,-1,20
 326 1352 326 1352 461.5 1415.5 c 128,-1,21
 597 1479 597 1479 757 1476 c 0,22,23
 903 1473 903 1473 1010 1408.5 c 128,-1,24
 1117 1344 1117 1344 1178.5 1221 c 128,-1,25
 1240 1098 1240 1098 1249 944 c 0,26,27
 1255 807 1255 807 1219 622 c 0,28,29
 1159 317 1159 317 978.5 146 c 128,-1,30
 798 -25 798 -25 544 -20 c 0,31,32
 313 -16 313 -16 178 119.5 c 128,-1,33
 43 255 43 255 35 486 c 1,34,-1
 326 485 l 1,0,1
EndSplineSet
Substitution2: "'c2sc' Capitals to Small Capitals lookup 0 subtable" uni042D.c2sc
Position2: "'cpsp' Capital Spacing lookup 0 subtable" dx=36 dy=0 dh=72 dv=0
EndChar

StartChar: uni042E
Encoding: 1070 1070 231
Width: 1884
GlyphClass: 2
Flags: W
LayerCount: 2
Back
Fore
SplineSet
1102 -20 m 0,0,1
 867 -15 867 -15 731 148 c 128,-1,2
 595 311 595 311 595 579 c 1,3,-1
 426 579 l 1,4,-1
 326 0 l 1,5,-1
 33 0 l 1,6,-1
 285 1456 l 1,7,-1
 578 1456 l 1,8,-1
 466 812 l 1,9,-1
 618 812 l 1,10,11
 677 1116 677 1116 865.5 1298.5 c 128,-1,12
 1054 1481 1054 1481 1317 1476 c 0,13,14
 1464 1473 1464 1473 1574.5 1406 c 128,-1,15
 1685 1339 1685 1339 1747.5 1215 c 128,-1,16
 1810 1091 1810 1091 1819 933 c 0,17,18
 1829 757 1829 757 1781 571 c 128,-1,19
 1733 385 1733 385 1632 249 c 128,-1,20
 1531 113 1531 113 1395.5 45 c 128,-1,21
 1260 -23 1260 -23 1102 -20 c 0,0,1
1517 768 m 1,22,-1
 1525 863 l 1,23,24
 1535 1041 1535 1041 1477.5 1133 c 128,-1,25
 1420 1225 1420 1225 1303 1229 c 0,26,27
 1120 1235 1120 1235 1012.5 1067 c 128,-1,28
 905 899 905 899 891 597 c 0,29,30
 881 420 881 420 938 324.5 c 128,-1,31
 995 229 995 229 1115 225 c 0,32,33
 1272 218 1272 218 1375 347.5 c 128,-1,34
 1478 477 1478 477 1510 714 c 2,35,-1
 1517 768 l 1,22,-1
EndSplineSet
Substitution2: "'c2sc' Capitals to Small Capitals lookup 0 subtable" uni042E.c2sc
Position2: "'cpsp' Capital Spacing lookup 0 subtable" dx=36 dy=0 dh=72 dv=0
EndChar

StartChar: uni042F
Encoding: 1071 1071 232
Width: 1195
GlyphClass: 2
Flags: W
LayerCount: 2
Back
Fore
SplineSet
674 0 m 1,0,-1
 765 525 l 1,1,-1
 539 525 l 1,2,-1
 192 0 l 1,3,-1
 -140 0 l 1,4,-1
 282 626 l 1,5,6
 110 758 110 758 127 998 c 0,7,8
 143 1212 143 1212 300.5 1334.5 c 128,-1,9
 458 1457 458 1457 709 1457 c 2,10,-1
 1221 1456 l 1,11,-1
 968 0 l 1,12,-1
 674 0 l 1,0,-1
416 977 m 0,13,14
 386 761 386 761 587 753 c 1,15,-1
 804 752 l 1,16,-1
 885 1213 l 1,17,-1
 701 1215 l 2,18,19
 586 1214 586 1214 509 1154 c 128,-1,20
 432 1094 432 1094 416 977 c 0,13,14
EndSplineSet
Substitution2: "'c2sc' Capitals to Small Capitals lookup 0 subtable" uni042F.c2sc
Position2: "'cpsp' Capital Spacing lookup 0 subtable" dx=36 dy=0 dh=72 dv=0
EndChar

StartChar: uni0431
Encoding: 1073 1073 233
Width: 1141
Flags: W
LayerCount: 2
Back
Fore
SplineSet
680 1021 m 0,0,1
 806 1019 806 1019 897 955 c 128,-1,2
 988 891 988 891 1031.5 775.5 c 128,-1,3
 1075 660 1075 660 1063 518 c 0,4,5
 1040 267 1040 267 885 120.5 c 128,-1,6
 730 -26 730 -26 505 -22 c 0,7,8
 361 -18 361 -18 258 54.5 c 128,-1,9
 155 127 155 127 108 256 c 128,-1,10
 61 385 61 385 78 538 c 1,11,-1
 81 559 l 1,12,-1
 80 563 l 1,13,-1
 85 594 l 1,14,15
 133 955 133 955 281 1165 c 128,-1,16
 429 1375 429 1375 678 1427 c 2,17,-1
 752 1442 l 2,18,19
 880 1470 880 1470 898 1558 c 1,20,-1
 1127 1559 l 1,21,22
 1121 1414 1121 1414 1031 1328.5 c 128,-1,23
 941 1243 941 1243 724 1202 c 0,24,25
 596 1178 596 1178 507 1104 c 128,-1,26
 418 1030 418 1030 352 886 c 1,27,28
 499 1025 499 1025 680 1021 c 0,0,1
612 790 m 0,29,30
 482 792 482 792 410 679.5 c 128,-1,31
 338 567 338 567 351 396 c 0,32,33
 356 311 356 311 398.5 262.5 c 128,-1,34
 441 214 441 214 519 211 c 0,35,36
 622 208 622 208 691.5 283.5 c 128,-1,37
 761 359 761 359 779 497 c 0,38,39
 785 563 785 563 781 614 c 0,40,41
 766 785 766 785 612 790 c 0,29,30
EndSplineSet
Substitution2: "'smcp' Lowercase to Small Capitals lookup 1 subtable" uni0411.c2sc
EndChar

StartChar: uni0432
Encoding: 1074 1074 234
Width: 1134
GlyphClass: 2
Flags: W
LayerCount: 2
Back
Fore
SplineSet
21 0 m 1,0,-1
 209 1082 l 1,1,-1
 632 1081 l 2,2,3
 787 1077 787 1077 887 1031 c 0,4,5
 1046 958 1046 958 1040 788 c 0,6,7
 1034 632 1034 632 812 548 c 1,8,9
 906 523 906 523 958.5 462.5 c 128,-1,10
 1011 402 1011 402 1009 317 c 0,11,12
 1004 162 1004 162 883.5 81 c 128,-1,13
 763 0 763 0 547 0 c 2,14,-1
 21 0 l 1,0,-1
382 449 m 1,15,-1
 344 231 l 1,16,-1
 552 230 l 1,17,18
 713 235 713 235 736 344 c 0,19,20
 756 443 756 443 624 448 c 1,21,-1
 382 449 l 1,15,-1
415 643 m 1,22,-1
 572 642 l 1,23,24
 732 648 732 648 751 747 c 0,25,26
 761 793 761 793 734 819.5 c 128,-1,27
 707 846 707 846 626 849 c 2,28,-1
 451 850 l 1,29,-1
 415 643 l 1,22,-1
EndSplineSet
Substitution2: "'smcp' Lowercase to Small Capitals lookup 1 subtable" uni0412.c2sc
EndChar

StartChar: uni0433
Encoding: 1075 1075 235
Width: 842
GlyphClass: 2
Flags: W
LayerCount: 2
Back
Fore
SplineSet
867 848 m 1,0,-1
 432 848 l 1,1,-1
 285 0 l 1,2,-1
 3 0 l 1,3,-1
 191 1082 l 1,4,-1
 908 1082 l 1,5,-1
 867 848 l 1,0,-1
EndSplineSet
Substitution2: "'smcp' Lowercase to Small Capitals lookup 1 subtable" uni0413.c2sc
EndChar

StartChar: uni0434
Encoding: 1076 1076 236
Width: 1264
GlyphClass: 2
Flags: W
LayerCount: 2
Back
Fore
SplineSet
47 231 m 1,0,1
 154 325 154 325 216.5 442 c 128,-1,2
 279 559 279 559 309 717 c 2,3,-1
 379 1082 l 1,4,-1
 1154 1082 l 1,5,-1
 1007 233 l 1,6,-1
 1158 233 l 1,7,-1
 1061 -325 l 1,8,-1
 779 -325 l 1,9,-1
 835 0 l 1,10,-1
 216 0 l 1,11,-1
 159 -325 l 1,12,-1
 -129 -325 l 1,13,-1
 -32 232 l 1,14,-1
 47 231 l 1,0,1
385 228 m 1,15,-1
 725 233 l 1,16,-1
 831 843 l 1,17,-1
 615 843 l 1,18,-1
 581 654 l 1,19,20
 523 380 523 380 385 228 c 1,15,-1
EndSplineSet
Substitution2: "'smcp' Lowercase to Small Capitals lookup 1 subtable" uni0414.c2sc
EndChar

StartChar: uni0436
Encoding: 1078 1078 237
Width: 1707
GlyphClass: 2
Flags: W
LayerCount: 2
Back
Fore
SplineSet
1091 401 m 1,0,-1
 957 401 l 1,1,-1
 888 0 l 1,2,-1
 605 0 l 1,3,-1
 675 401 l 1,4,-1
 561 401 l 1,5,-1
 282 0 l 1,6,-1
 -76 0 l 1,7,-1
 365 582 l 1,8,-1
 130 1081 l 1,9,-1
 465 1082 l 1,10,-1
 613 678 l 1,11,-1
 723 678 l 1,12,-1
 793 1082 l 1,13,-1
 1075 1082 l 1,14,-1
 1005 678 l 1,15,-1
 1099 678 l 1,16,-1
 1388 1082 l 1,17,-1
 1756 1082 l 1,18,-1
 1330 557 l 1,19,-1
 1563 0 l 1,20,-1
 1230 0 l 1,21,-1
 1091 401 l 1,0,-1
EndSplineSet
Substitution2: "'smcp' Lowercase to Small Capitals lookup 1 subtable" uni0416.c2sc
EndChar

StartChar: uni0437
Encoding: 1079 1079 238
Width: 1030
GlyphClass: 2
Flags: W
LayerCount: 2
Back
Fore
SplineSet
510 646 m 1,0,1
 662 651 662 651 684 771 c 0,2,3
 693 819 693 819 665.5 851 c 128,-1,4
 638 883 638 883 576 885 c 0,5,6
 515 887 515 887 467 859 c 128,-1,7
 419 831 419 831 404 771 c 1,8,-1
 119 769 l 1,9,10
 128 921 128 921 254 1012.5 c 128,-1,11
 380 1104 380 1104 569 1102 c 0,12,13
 757 1099 757 1099 867.5 1017 c 128,-1,14
 978 935 978 935 971 794 c 0,15,16
 968 720 968 720 922 661.5 c 128,-1,17
 876 603 876 603 770 550 c 1,18,19
 842 517 842 517 876 454.5 c 128,-1,20
 910 392 910 392 907 314 c 0,21,22
 904 215 904 215 844.5 139.5 c 128,-1,23
 785 64 785 64 669.5 20.5 c 128,-1,24
 554 -23 554 -23 419 -20 c 0,25,26
 243 -18 243 -18 129.5 73 c 128,-1,27
 16 164 16 164 14 322 c 1,28,-1
 292 321 l 1,29,30
 292 263 292 263 332 230.5 c 128,-1,31
 372 198 372 198 443 198 c 0,32,33
 515 198 515 198 568 235 c 128,-1,34
 621 272 621 272 632 334 c 0,35,36
 653 453 653 453 511 458 c 1,37,-1
 340 459 l 1,38,-1
 373 647 l 1,39,-1
 510 646 l 1,0,1
EndSplineSet
Substitution2: "'smcp' Lowercase to Small Capitals lookup 1 subtable" uni0417.c2sc
EndChar

StartChar: uni0438
Encoding: 1080 1080 239
Width: 1137
GlyphClass: 2
Flags: W
LayerCount: 2
Back
Fore
SplineSet
814 1082 m 1,0,-1
 1105 1082 l 1,1,-1
 918 0 l 1,2,-1
 635 0 l 1,3,-1
 748 648 l 1,4,-1
 295 0 l 1,5,-1
 3 0 l 1,6,-1
 191 1082 l 1,7,-1
 474 1082 l 1,8,-1
 361 435 l 1,9,-1
 814 1082 l 1,0,-1
EndSplineSet
Substitution2: "'smcp' Lowercase to Small Capitals lookup 1 subtable" uni0418.c2sc
EndChar

StartChar: uni043A
Encoding: 1082 1082 240
Width: 1129
GlyphClass: 2
Flags: W
LayerCount: 2
Back
Fore
SplineSet
493 399 m 1,0,-1
 373 399 l 1,1,-1
 304 0 l 1,2,-1
 21 0 l 1,3,-1
 209 1082 l 1,4,-1
 492 1082 l 1,5,-1
 420 675 l 1,6,-1
 509 675 l 1,7,-1
 809 1082 l 1,8,-1
 1184 1081 l 1,9,-1
 738 551 l 1,10,-1
 1013 0 l 1,11,-1
 652 0 l 1,12,-1
 493 399 l 1,0,-1
EndSplineSet
Substitution2: "'smcp' Lowercase to Small Capitals lookup 1 subtable" uni041A.c2sc
EndChar

StartChar: uni043B
Encoding: 1083 1083 241
Width: 1139
GlyphClass: 2
Flags: W
LayerCount: 2
Back
Fore
SplineSet
1105 1082 m 1,0,-1
 918 0 l 1,1,-1
 635 0 l 1,2,-1
 783 848 l 1,3,-1
 538 848 l 1,4,-1
 448 433 l 1,5,6
 393 205 393 205 292.5 103.5 c 128,-1,7
 192 2 192 2 38 0 c 2,8,-1
 -80 0 l 1,9,-1
 -49 234 l 1,10,-1
 2 238 l 1,11,12
 150 262 150 262 202 542 c 2,13,-1
 216 621 l 1,14,-1
 312 1082 l 1,15,-1
 1105 1082 l 1,0,-1
EndSplineSet
Substitution2: "'smcp' Lowercase to Small Capitals lookup 1 subtable" uni041B.c2sc
EndChar

StartChar: uni043C
Encoding: 1084 1084 242
Width: 1518
GlyphClass: 2
Flags: W
LayerCount: 2
Back
Fore
SplineSet
696 344 m 1,0,-1
 1098 1082 l 1,1,-1
 1458 1082 l 1,2,-1
 1270 0 l 1,3,-1
 987 0 l 1,4,-1
 1099 641 l 1,5,-1
 745 0 l 1,6,-1
 555 0 l 1,7,-1
 420 665 l 1,8,-1
 304 0 l 1,9,-1
 21 0 l 1,10,-1
 209 1082 l 1,11,-1
 553 1082 l 1,12,-1
 696 344 l 1,0,-1
EndSplineSet
Substitution2: "'smcp' Lowercase to Small Capitals lookup 1 subtable" uni041C.c2sc
EndChar

StartChar: uni043D
Encoding: 1085 1085 243
Width: 1137
GlyphClass: 2
Flags: W
LayerCount: 2
Back
Fore
SplineSet
915 0 m 1,0,-1
 631 0 l 1,1,-1
 704 416 l 1,2,-1
 358 416 l 1,3,-1
 285 0 l 1,4,-1
 3 0 l 1,5,-1
 191 1082 l 1,6,-1
 473 1082 l 1,7,-1
 397 648 l 1,8,-1
 744 648 l 1,9,-1
 819 1082 l 1,10,-1
 1103 1082 l 1,11,-1
 915 0 l 1,0,-1
EndSplineSet
Substitution2: "'smcp' Lowercase to Small Capitals lookup 1 subtable" uni041D.c2sc
EndChar

StartChar: uni043F
Encoding: 1087 1087 244
Width: 1137
GlyphClass: 2
Flags: W
LayerCount: 2
Back
Fore
SplineSet
918 0 m 1,0,-1
 634 0 l 1,1,-1
 782 848 l 1,2,-1
 432 848 l 1,3,-1
 285 0 l 1,4,-1
 3 0 l 1,5,-1
 191 1082 l 1,6,-1
 1105 1082 l 1,7,-1
 918 0 l 1,0,-1
EndSplineSet
Substitution2: "'smcp' Lowercase to Small Capitals lookup 1 subtable" uni041F.c2sc
EndChar

StartChar: uni0442
Encoding: 1090 1090 245
Width: 1022
GlyphClass: 2
Flags: W
LayerCount: 2
Back
Fore
SplineSet
1023 850 m 1,0,-1
 687 850 l 1,1,-1
 539 0 l 1,2,-1
 256 0 l 1,3,-1
 404 850 l 1,4,-1
 72 850 l 1,5,-1
 113 1082 l 1,6,-1
 1064 1082 l 1,7,-1
 1023 850 l 1,0,-1
EndSplineSet
Substitution2: "'smcp' Lowercase to Small Capitals lookup 1 subtable" uni0422.c2sc
EndChar

StartChar: uni0444
Encoding: 1092 1092 246
Width: 1461
GlyphClass: 2
Flags: W
LayerCount: 2
Back
Fore
SplineSet
521 1103 m 0,0,1
 585 1101 585 1101 654 1071 c 1,2,-1
 745 1536 l 1,3,-1
 1027 1536 l 1,4,-1
 936 1070 l 1,5,6
 1000 1100 1000 1100 1064 1100 c 0,7,8
 1215 1100 1215 1100 1297 981.5 c 128,-1,9
 1379 863 1379 863 1381 655 c 0,10,11
 1381 591 1381 591 1375 535 c 2,12,-1
 1366 473 l 1,13,14
 1325 233 1325 233 1204.5 103 c 128,-1,15
 1084 -27 1084 -27 911 -22 c 0,16,17
 845 -20 845 -20 772 10 c 1,18,-1
 688 -416 l 1,19,-1
 406 -416 l 1,20,-1
 490 9 l 1,21,22
 430 -18 430 -18 365 -18 c 0,23,24
 229 -18 229 -18 147 76.5 c 128,-1,25
 65 171 65 171 50 347 c 1,26,-1
 48 390 l 2,27,28
 46 450 46 450 52 506 c 2,29,-1
 60 562 l 2,30,31
 101 824 101 824 221 966 c 128,-1,32
 341 1108 341 1108 521 1103 c 0,0,1
1091 539 m 2,33,34
 1100 611 1100 611 1100 666 c 0,35,36
 1100 861 1100 861 980 867 c 0,37,38
 965 868 965 868 917 862 c 1,39,-1
 793 215 l 1,40,-1
 849 209 l 1,41,42
 1029 206 1029 206 1082 476 c 1,43,-1
 1089 518 l 1,44,-1
 1091 539 l 2,33,34
327 387 m 0,45,46
 327 204 327 204 478 214 c 1,47,-1
 509 217 l 1,48,-1
 633 864 l 1,49,50
 603 871 603 871 581 871 c 0,51,52
 385 874 385 874 337 527 c 1,53,54
 326 413 326 413 327 387 c 0,45,46
EndSplineSet
Substitution2: "'smcp' Lowercase to Small Capitals lookup 1 subtable" uni0424.c2sc
EndChar

StartChar: uni0446
Encoding: 1094 1094 247
Width: 1221
GlyphClass: 2
Flags: W
LayerCount: 2
Back
Fore
SplineSet
191 1082 m 1,0,-1
 473 1082 l 1,1,-1
 326 233 l 1,2,-1
 675 233 l 1,3,-1
 822 1082 l 1,4,-1
 1105 1082 l 1,5,-1
 958 231 l 1,6,-1
 1116 231 l 1,7,-1
 1000 -321 l 1,8,-1
 737 -321 l 1,9,-1
 793 0 l 1,10,-1
 3 0 l 1,11,-1
 191 1082 l 1,0,-1
EndSplineSet
Substitution2: "'smcp' Lowercase to Small Capitals lookup 1 subtable" uni0426.c2sc
EndChar

StartChar: uni0447
Encoding: 1095 1095 248
Width: 1110
GlyphClass: 2
Flags: W
LayerCount: 2
Back
Fore
SplineSet
898 0 m 1,0,-1
 616 0 l 1,1,-1
 685 342 l 1,2,3
 610 327 610 327 545 327 c 0,4,5
 333 327 333 327 217.5 437.5 c 128,-1,6
 102 548 102 548 122 740 c 1,7,-1
 177 1082 l 1,8,-1
 460 1082 l 1,9,-1
 403 739 l 2,10,11
 391 645 391 645 427 604 c 128,-1,12
 463 563 463 563 557 560 c 0,13,14
 617 558 617 558 709 573 c 1,15,-1
 804 1082 l 1,16,-1
 1086 1082 l 1,17,-1
 898 0 l 1,0,-1
EndSplineSet
Substitution2: "'smcp' Lowercase to Small Capitals lookup 1 subtable" uni0427.c2sc
EndChar

StartChar: uni0448
Encoding: 1096 1096 249
Width: 1653
GlyphClass: 2
Flags: W
LayerCount: 2
Back
Fore
SplineSet
473 1082 m 1,0,-1
 326 233 l 1,1,-1
 612 233 l 1,2,-1
 759 1082 l 1,3,-1
 1042 1082 l 1,4,-1
 895 233 l 1,5,-1
 1181 233 l 1,6,-1
 1328 1082 l 1,7,-1
 1611 1082 l 1,8,-1
 1423 0 l 1,9,-1
 3 0 l 1,10,-1
 191 1082 l 1,11,-1
 473 1082 l 1,0,-1
EndSplineSet
Substitution2: "'smcp' Lowercase to Small Capitals lookup 1 subtable" uni0428.c2sc
EndChar

StartChar: uni0449
Encoding: 1097 1097 250
Width: 1798
GlyphClass: 2
Flags: W
LayerCount: 2
Back
Fore
SplineSet
470 1082 m 1,0,-1
 323 233 l 1,1,-1
 609 233 l 1,2,-1
 756 1082 l 1,3,-1
 1040 1082 l 1,4,-1
 892 233 l 1,5,-1
 1177 233 l 1,6,-1
 1325 1082 l 1,7,-1
 1608 1082 l 1,8,-1
 1460 231 l 1,9,-1
 1670 231 l 1,10,-1
 1554 -321 l 1,11,-1
 1290 -321 l 1,12,-1
 1347 0 l 1,13,-1
 0 0 l 1,14,-1
 188 1082 l 1,15,-1
 470 1082 l 1,0,-1
EndSplineSet
Substitution2: "'smcp' Lowercase to Small Capitals lookup 1 subtable" uni0429.c2sc
EndChar

StartChar: uni044A
Encoding: 1098 1098 251
Width: 1313
Flags: W
LayerCount: 2
Back
Fore
SplineSet
115 1082 m 1,0,-1
 697 1082 l 1,1,-1
 642 765 l 1,2,-1
 801 764 l 2,3,4
 1007 763 1007 763 1121.5 661 c 128,-1,5
 1236 559 1236 559 1227 388 c 0,6,7
 1216 211 1216 211 1078 105.5 c 128,-1,8
 940 0 940 0 722 0 c 2,9,-1
 227 0 l 1,10,-1
 374 848 l 1,11,-1
 74 848 l 1,12,-1
 115 1082 l 1,0,-1
602 533 m 1,13,-1
 549 231 l 1,14,-1
 730 230 l 2,15,16
 817 232 817 232 874.5 273.5 c 128,-1,17
 932 315 932 315 945 387 c 0,18,19
 957 457 957 457 920.5 492.5 c 128,-1,20
 884 528 884 528 817 532 c 2,21,-1
 602 533 l 1,13,-1
EndSplineSet
Substitution2: "'smcp' Lowercase to Small Capitals lookup 1 subtable" uni042A.c2sc
EndChar

StartChar: uni044B
Encoding: 1099 1099 252
Width: 1654
GlyphClass: 2
Flags: W
LayerCount: 2
Back
Fore
SplineSet
437 765 m 1,0,-1
 597 764 l 2,1,2
 798 763 798 763 915.5 661 c 128,-1,3
 1033 559 1033 559 1022 388 c 0,4,5
 1011 211 1011 211 873 105.5 c 128,-1,6
 735 0 735 0 517 0 c 2,7,-1
 21 0 l 1,8,-1
 209 1082 l 1,9,-1
 493 1082 l 1,10,-1
 437 765 l 1,0,-1
397 533 m 1,11,-1
 345 231 l 1,12,-1
 526 230 l 2,13,14
 612 232 612 232 669.5 273 c 128,-1,15
 727 314 727 314 740 387 c 0,16,17
 752 457 752 457 715.5 492.5 c 128,-1,18
 679 528 679 528 612 532 c 2,19,-1
 397 533 l 1,11,-1
1402 0 m 1,20,-1
 1120 0 l 1,21,-1
 1308 1082 l 1,22,-1
 1590 1082 l 1,23,-1
 1402 0 l 1,20,-1
EndSplineSet
Substitution2: "'smcp' Lowercase to Small Capitals lookup 1 subtable" uni042B.c2sc
EndChar

StartChar: uni044C
Encoding: 1100 1100 253
Width: 1119
Flags: W
LayerCount: 2
Back
Fore
SplineSet
437 765 m 1,0,-1
 597 764 l 2,1,2
 798 763 798 763 915.5 661 c 128,-1,3
 1033 559 1033 559 1022 388 c 0,4,5
 1011 211 1011 211 873 105.5 c 128,-1,6
 735 0 735 0 517 0 c 2,7,-1
 21 0 l 1,8,-1
 209 1082 l 1,9,-1
 493 1082 l 1,10,-1
 437 765 l 1,0,-1
397 533 m 1,11,-1
 345 231 l 1,12,-1
 526 230 l 2,13,14
 612 232 612 232 669.5 273 c 128,-1,15
 727 314 727 314 740 387 c 0,16,17
 752 457 752 457 715.5 492.5 c 128,-1,18
 679 528 679 528 612 532 c 2,19,-1
 397 533 l 1,11,-1
EndSplineSet
Substitution2: "'smcp' Lowercase to Small Capitals lookup 1 subtable" uni042C.c2sc
EndChar

StartChar: uni044D
Encoding: 1101 1101 254
Width: 1043
GlyphClass: 2
Flags: W
LayerCount: 2
Back
Fore
SplineSet
544 869 m 0,0,1
 467 871 467 871 417.5 826 c 128,-1,2
 368 781 368 781 355 708 c 1,3,-1
 89 707 l 1,4,5
 95 819 95 819 158 911 c 128,-1,6
 221 1003 221 1003 328.5 1054.5 c 128,-1,7
 436 1106 436 1106 556 1103 c 0,8,9
 697 1099 697 1099 795.5 1028.5 c 128,-1,10
 894 958 894 958 939 833.5 c 128,-1,11
 984 709 984 709 970 557 c 0,12,13
 942 287 942 287 787.5 130.5 c 128,-1,14
 633 -26 633 -26 410 -20 c 0,15,16
 229 -16 229 -16 124.5 98 c 128,-1,17
 20 212 20 212 24 403 c 1,18,-1
 288 403 l 1,19,20
 283 318 283 318 318.5 265.5 c 128,-1,21
 354 213 354 213 424 211 c 0,22,23
 508 208 508 208 570.5 266.5 c 128,-1,24
 633 325 633 325 677 457 c 1,25,-1
 385 456 l 1,26,-1
 417 633 l 1,27,-1
 691 633 l 1,28,29
 699 745 699 745 661.5 805.5 c 128,-1,30
 624 866 624 866 544 869 c 0,0,1
EndSplineSet
Substitution2: "'smcp' Lowercase to Small Capitals lookup 1 subtable" uni042D.c2sc
EndChar

StartChar: uni044E
Encoding: 1102 1102 255
Width: 1622
GlyphClass: 2
Flags: W
LayerCount: 2
Back
Fore
SplineSet
424 667 m 1,0,-1
 562 667 l 1,1,2
 641 886 641 886 784 996.5 c 128,-1,3
 927 1107 927 1107 1115 1102 c 0,4,5
 1257 1100 1257 1100 1358.5 1029.5 c 128,-1,6
 1460 959 1460 959 1508 832 c 128,-1,7
 1556 705 1556 705 1540 553 c 2,8,-1
 1538 532 l 1,9,10
 1516 354 1516 354 1424 217.5 c 128,-1,11
 1332 81 1332 81 1185 19 c 0,12,13
 1086 -23 1086 -23 967 -20 c 0,14,15
 772 -16 772 -16 651.5 112.5 c 128,-1,16
 531 241 531 241 541 434 c 1,17,-1
 384 433 l 1,18,-1
 308 0 l 1,19,-1
 25 0 l 1,20,-1
 213 1082 l 1,21,-1
 496 1082 l 1,22,-1
 424 667 l 1,0,-1
821 421 m 0,23,24
 821 326 821 326 861.5 270 c 128,-1,25
 902 214 902 214 982 211 c 0,26,27
 1090 208 1090 208 1163 294.5 c 128,-1,28
 1236 381 1236 381 1255 532 c 1,29,-1
 1262 620 l 1,30,31
 1269 861 1269 861 1099 869 c 0,32,33
 990 872 990 872 918 784 c 128,-1,34
 846 696 846 696 827 544 c 0,35,36
 820 471 820 471 821 421 c 0,23,24
EndSplineSet
Substitution2: "'smcp' Lowercase to Small Capitals lookup 1 subtable" uni042E.c2sc
EndChar

StartChar: uni044F
Encoding: 1103 1103 256
Width: 1121
GlyphClass: 2
Flags: W
LayerCount: 2
Back
Fore
SplineSet
1068 1082 m 1,0,-1
 880 0 l 1,1,-1
 598 0 l 1,2,-1
 664 374 l 1,3,-1
 497 374 l 1,4,-1
 230 0 l 1,5,-1
 -74 0 l 1,6,-1
 241 428 l 1,7,8
 166 475 166 475 127.5 549 c 128,-1,9
 89 623 89 623 94 711 c 0,10,11
 100 825 100 825 165 908.5 c 128,-1,12
 230 992 230 992 341 1037.5 c 128,-1,13
 452 1083 452 1083 586 1083 c 2,14,-1
 1068 1082 l 1,0,-1
373 703 m 0,15,16
 362 650 362 650 397 614.5 c 128,-1,17
 432 579 432 579 494 577 c 2,18,-1
 698 576 l 1,19,-1
 746 850 l 1,20,-1
 582 851 l 1,21,22
 497 846 497 846 441 805.5 c 128,-1,23
 385 765 385 765 373 703 c 0,15,16
EndSplineSet
Substitution2: "'smcp' Lowercase to Small Capitals lookup 1 subtable" uni042F.c2sc
EndChar

StartChar: uni0452
Encoding: 1106 1106 257
Width: 1122
Flags: W
LayerCount: 2
Back
Fore
SplineSet
731 1189 m 1,0,-1
 485 1189 l 1,1,-1
 433 962 l 1,2,3
 562 1104 562 1104 725 1102 c 0,4,5
 884 1099 884 1099 961 987.5 c 128,-1,6
 1038 876 1038 876 1019 682 c 1,7,-1
 904 -34 l 1,8,9
 878 -228 878 -228 768.5 -335 c 128,-1,10
 659 -442 659 -442 481 -440 c 0,11,12
 412 -438 412 -438 330 -421 c 1,13,-1
 367 -191 l 1,14,15
 420 -207 420 -207 462 -207 c 0,16,17
 587 -207 587 -207 619 -34 c 2,18,-1
 738 685 l 2,19,20
 742 723 742 723 740 756 c 0,21,22
 730 864 730 864 614 867 c 0,23,24
 500 871 500 871 414 770 c 1,25,-1
 278 0 l 1,26,-1
 -4 0 l 1,27,-1
 202 1189 l 1,28,-1
 51 1189 l 1,29,-1
 83 1372 l 1,30,-1
 234 1372 l 1,31,-1
 263 1536 l 1,32,-1
 545 1536 l 1,33,-1
 516 1372 l 1,34,-1
 763 1372 l 1,35,-1
 731 1189 l 1,0,-1
EndSplineSet
Substitution2: "'smcp' Lowercase to Small Capitals lookup 1 subtable" uni0402.c2sc
EndChar

StartChar: uni0454
Encoding: 1108 1108 258
Width: 1043
GlyphClass: 2
Flags: W
LayerCount: 2
Back
Fore
SplineSet
482 212 m 0,0,1
 558 210 558 210 612.5 253 c 128,-1,2
 667 296 667 296 684 373 c 1,3,-1
 951 375 l 1,4,5
 942 260 942 260 877.5 169 c 128,-1,6
 813 78 813 78 705.5 27 c 128,-1,7
 598 -24 598 -24 476 -21 c 0,8,9
 262 -16 262 -16 150.5 135.5 c 128,-1,10
 39 287 39 287 63 523 c 0,11,12
 91 796 91 796 244.5 952 c 128,-1,13
 398 1108 398 1108 623 1102 c 0,14,15
 804 1098 804 1098 910.5 983.5 c 128,-1,16
 1017 869 1017 869 1015 678 c 1,17,-1
 751 678 l 1,18,19
 753 766 753 766 714.5 816 c 128,-1,20
 676 866 676 866 603 869 c 0,21,22
 516 872 516 872 454 812.5 c 128,-1,23
 392 753 392 753 351 616 c 1,24,-1
 658 617 l 1,25,-1
 626 440 l 1,26,-1
 340 440 l 1,27,28
 336 399 336 399 340 359 c 0,29,30
 351 215 351 215 482 212 c 0,0,1
EndSplineSet
Substitution2: "'smcp' Lowercase to Small Capitals lookup 1 subtable" uni0404.c2sc
EndChar

StartChar: uni0459
Encoding: 1113 1113 259
Width: 1715
Flags: W
LayerCount: 2
Back
Fore
SplineSet
1036 740 m 1,0,-1
 1195 739 l 2,1,2
 1397 738 1397 738 1514.5 640.5 c 128,-1,3
 1632 543 1632 543 1623 379 c 0,4,5
 1614 208 1614 208 1479 104 c 128,-1,6
 1344 0 1344 0 1120 0 c 2,7,-1
 625 0 l 1,8,-1
 772 848 l 1,9,-1
 537 848 l 1,10,-1
 469 533 l 1,11,12
 415 240 415 240 305.5 117.5 c 128,-1,13
 196 -5 196 -5 22 0 c 1,14,-1
 -82 0 l 1,15,-1
 -50 234 l 1,16,-1
 -7 237 l 1,17,18
 143 256 143 256 195 514 c 2,19,-1
 215 620 l 1,20,-1
 311 1082 l 1,21,-1
 1096 1082 l 1,22,-1
 1036 740 l 1,0,-1
996 508 m 1,23,-1
 948 231 l 1,24,-1
 1129 230 l 2,25,26
 1220 233 1220 233 1275 272.5 c 128,-1,27
 1330 312 1330 312 1342 380 c 0,28,29
 1363 497 1363 497 1211 507 c 1,30,-1
 996 508 l 1,23,-1
EndSplineSet
Substitution2: "'smcp' Lowercase to Small Capitals lookup 1 subtable" uni0409.c2sc
EndChar

StartChar: uni045A
Encoding: 1114 1114 260
Width: 1721
Flags: W
LayerCount: 2
Back
Fore
SplineSet
400 664 m 1,0,-1
 746 664 l 1,1,-1
 819 1082 l 1,2,-1
 1103 1082 l 1,3,-1
 1043 740 l 1,4,-1
 1201 739 l 2,5,6
 1406 738 1406 738 1522.5 640 c 128,-1,7
 1639 542 1639 542 1630 379 c 0,8,9
 1621 208 1621 208 1486 104 c 128,-1,10
 1351 0 1351 0 1127 0 c 2,11,-1
 631 0 l 1,12,-1
 707 432 l 1,13,-1
 360 432 l 1,14,-1
 285 0 l 1,15,-1
 3 0 l 1,16,-1
 191 1082 l 1,17,-1
 473 1082 l 1,18,-1
 400 664 l 1,0,-1
1003 508 m 1,19,-1
 955 231 l 1,20,-1
 1136 230 l 2,21,22
 1227 233 1227 233 1282.5 273 c 128,-1,23
 1338 313 1338 313 1350 380 c 0,24,25
 1371 497 1371 497 1218 507 c 1,26,-1
 1003 508 l 1,19,-1
EndSplineSet
Substitution2: "'smcp' Lowercase to Small Capitals lookup 1 subtable" uni040A.c2sc
EndChar

StartChar: uni045B
Encoding: 1115 1115 261
Width: 1131
Flags: W
LayerCount: 2
Back
Fore
SplineSet
746 1201 m 1,0,-1
 479 1201 l 1,1,-1
 433 962 l 1,2,3
 560 1104 560 1104 726 1102 c 0,4,5
 887 1098 887 1098 962.5 986.5 c 128,-1,6
 1038 875 1038 875 1019 682 c 1,7,-1
 905 0 l 1,8,-1
 623 0 l 1,9,-1
 738 685 l 2,10,11
 743 724 743 724 740 757 c 0,12,13
 730 865 730 865 614 868 c 0,14,15
 500 872 500 872 414 770 c 1,16,-1
 278 0 l 1,17,-1
 -4 0 l 1,18,-1
 204 1201 l 1,19,-1
 66 1201 l 1,20,-1
 99 1384 l 1,21,-1
 235 1384 l 1,22,-1
 262 1536 l 1,23,-1
 545 1536 l 1,24,-1
 515 1384 l 1,25,-1
 779 1384 l 1,26,-1
 746 1201 l 1,0,-1
EndSplineSet
Substitution2: "'smcp' Lowercase to Small Capitals lookup 1 subtable" uni040B.c2sc
EndChar

StartChar: uni045F
Encoding: 1119 1119 262
Width: 1137
Flags: W
LayerCount: 2
Back
Fore
SplineSet
473 1082 m 1,0,-1
 326 233 l 1,1,-1
 675 233 l 1,2,-1
 822 1082 l 1,3,-1
 1105 1082 l 1,4,-1
 918 0 l 1,5,-1
 602 0 l 1,6,-1
 539 -359 l 1,7,-1
 257 -359 l 1,8,-1
 319 0 l 1,9,-1
 3 0 l 1,10,-1
 191 1082 l 1,11,-1
 473 1082 l 1,0,-1
EndSplineSet
Substitution2: "'smcp' Lowercase to Small Capitals lookup 1 subtable" uni040F.c2sc
EndChar

StartChar: uni0460
Encoding: 1120 1120 263
Width: 1891
GlyphClass: 2
Flags: W
LayerCount: 2
Back
Fore
SplineSet
1918 1456 m 1,0,-1
 1749 466 l 1,1,2
 1718 240 1718 240 1570.5 107 c 128,-1,3
 1423 -26 1423 -26 1201 -22 c 0,4,5
 1092 -20 1092 -20 1010.5 22 c 128,-1,6
 929 64 929 64 885 140 c 1,7,8
 734 -26 734 -26 522 -22 c 0,9,10
 315 -18 315 -18 199.5 118 c 128,-1,11
 84 254 84 254 106 465 c 1,12,-1
 274 1456 l 1,13,-1
 568 1456 l 1,14,-1
 400 464 l 2,15,16
 395 422 395 422 397 379 c 0,17,18
 400 306 400 306 437 264 c 128,-1,19
 474 222 474 222 540 219 c 0,20,21
 634 216 634 216 696.5 277.5 c 128,-1,22
 759 339 759 339 780 464 c 2,23,-1
 948 1456 l 1,24,-1
 1243 1456 l 1,25,-1
 1075 464 l 2,26,27
 1070 421 1070 421 1073 379 c 0,28,29
 1076 306 1076 306 1113.5 264 c 128,-1,30
 1151 222 1151 222 1218 219 c 0,31,32
 1412 212 1412 212 1456 470 c 2,33,-1
 1623 1456 l 1,34,-1
 1918 1456 l 1,0,-1
EndSplineSet
EndChar

StartChar: uni0461
Encoding: 1121 1121 264
Width: 1640
GlyphClass: 2
Flags: W
LayerCount: 2
Back
Fore
SplineSet
1641 1082 m 1,0,-1
 1534 447 l 1,1,2
 1503 226 1503 226 1372 100 c 128,-1,3
 1241 -26 1241 -26 1044 -21 c 0,4,5
 845 -16 845 -16 765 122 c 1,6,7
 627 -25 627 -25 440 -21 c 0,8,9
 318 -19 318 -19 231 41.5 c 128,-1,10
 144 102 144 102 104 208.5 c 128,-1,11
 64 315 64 315 78 446 c 1,12,-1
 184 1082 l 1,13,-1
 467 1082 l 1,14,-1
 361 445 l 1,15,-1
 356 374 l 1,16,-1
 356 342 l 1,17,18
 363 216 363 216 458 210 c 0,19,20
 542 205 542 205 597 267.5 c 128,-1,21
 652 330 652 330 668 445 c 2,22,-1
 775 1082 l 1,23,-1
 1058 1082 l 1,24,-1
 952 445 l 1,25,-1
 947 370 l 2,26,27
 945 297 945 297 974.5 254.5 c 128,-1,28
 1004 212 1004 212 1062 210 c 0,29,30
 1205 204 1205 204 1246 415 c 1,31,-1
 1358 1082 l 1,32,-1
 1641 1082 l 1,0,-1
EndSplineSet
EndChar

StartChar: uni0463
Encoding: 1123 1123 265
Width: 1118
Flags: W
LayerCount: 2
Back
Fore
SplineSet
740 1082 m 1,0,-1
 492 1082 l 1,1,-1
 441 790 l 1,2,-1
 601 789 l 2,3,4
 806 788 806 788 920 682 c 128,-1,5
 1034 576 1034 576 1023 405 c 0,6,7
 1012 219 1012 219 871 107.5 c 128,-1,8
 730 -4 730 -4 521 0 c 1,9,-1
 21 0 l 1,10,-1
 209 1082 l 1,11,-1
 56 1082 l 1,12,-1
 88 1265 l 1,13,-1
 240 1265 l 1,14,-1
 292 1561 l 1,15,-1
 576 1561 l 1,16,-1
 524 1265 l 1,17,-1
 773 1265 l 1,18,-1
 740 1082 l 1,0,-1
402 558 m 1,19,-1
 345 231 l 1,20,-1
 526 230 l 2,21,22
 609 232 609 232 669 275 c 128,-1,23
 729 318 729 318 743 403 c 0,24,25
 754 473 754 473 720 513 c 128,-1,26
 686 553 686 553 617 557 c 2,27,-1
 402 558 l 1,19,-1
EndSplineSet
EndChar

StartChar: uni0464
Encoding: 1124 1124 266
Width: 1783
Flags: W
LayerCount: 2
Back
Fore
SplineSet
459 860 m 1,0,-1
 616 859 l 1,1,2
 704 1164 704 1164 878.5 1323.5 c 128,-1,3
 1053 1483 1053 1483 1297 1478 c 0,4,5
 1529 1472 1529 1472 1659.5 1333.5 c 128,-1,6
 1790 1195 1790 1195 1802 961 c 1,7,-1
 1510 962 l 1,8,9
 1510 1100 1510 1100 1455 1164 c 128,-1,10
 1400 1228 1400 1228 1284 1232 c 0,11,12
 1156 1237 1156 1237 1065 1151.5 c 128,-1,13
 974 1066 974 1066 912 859 c 1,14,-1
 1339 860 l 1,15,-1
 1298 626 l 1,16,-1
 888 626 l 1,17,-1
 880 537 l 2,18,19
 870 389 870 389 924 309 c 128,-1,20
 978 229 978 229 1091 225 c 0,21,22
 1224 220 1224 220 1304.5 288.5 c 128,-1,23
 1385 357 1385 357 1411 485 c 1,24,-1
 1704 487 l 1,25,26
 1685 335 1685 335 1600 219.5 c 128,-1,27
 1515 104 1515 104 1376.5 41 c 128,-1,28
 1238 -22 1238 -22 1077 -19 c 0,29,30
 910 -15 910 -15 791.5 70 c 128,-1,31
 673 155 673 155 621 304 c 128,-1,32
 569 453 569 453 594 627 c 1,33,-1
 418 626 l 1,34,-1
 309 0 l 1,35,-1
 16 0 l 1,36,-1
 269 1456 l 1,37,-1
 562 1456 l 1,38,-1
 459 860 l 1,0,-1
EndSplineSet
EndChar

StartChar: uni0465
Encoding: 1125 1125 267
Width: 1509
Flags: W
LayerCount: 2
Back
Fore
SplineSet
402 634 m 1,0,-1
 520 633 l 1,1,2
 591 868 591 868 732 987.5 c 128,-1,3
 873 1107 873 1107 1069 1102 c 0,4,5
 1249 1098 1249 1098 1356 983.5 c 128,-1,6
 1463 869 1463 869 1461 678 c 1,7,-1
 1198 678 l 1,8,9
 1198 862 1198 862 1050 869 c 0,10,11
 967 872 967 872 906 816 c 128,-1,12
 845 760 845 760 802 633 c 1,13,-1
 1128 634 l 1,14,-1
 1095 451 l 1,15,-1
 787 451 l 1,16,17
 782 409 782 409 785 367 c 0,18,19
 789 293 789 293 826 253 c 128,-1,20
 863 213 863 213 928 212 c 0,21,22
 1007 210 1007 210 1060.5 254 c 128,-1,23
 1114 298 1114 298 1131 373 c 1,24,-1
 1396 375 l 1,25,26
 1389 262 1389 262 1324 170 c 128,-1,27
 1259 78 1259 78 1152 27 c 128,-1,28
 1045 -24 1045 -24 923 -21 c 0,29,30
 793 -18 793 -18 694 43 c 128,-1,31
 595 104 595 104 546 212.5 c 128,-1,32
 497 321 497 321 509 452 c 1,33,-1
 370 451 l 1,34,-1
 292 0 l 1,35,-1
 9 0 l 1,36,-1
 196 1082 l 1,37,-1
 480 1082 l 1,38,-1
 402 634 l 1,0,-1
EndSplineSet
EndChar

StartChar: uni0466
Encoding: 1126 1126 268
Width: 1322
Flags: W
LayerCount: 2
Back
Fore
SplineSet
850 419 m 1,0,-1
 746 419 l 1,1,-1
 675 0 l 1,2,-1
 430 0 l 1,3,-1
 504 419 l 1,4,-1
 429 419 l 1,5,-1
 223 0 l 1,6,-1
 -96 0 l 1,7,-1
 654 1456 l 1,8,-1
 958 1456 l 1,9,-1
 1202 0 l 1,10,-1
 912 0 l 1,11,-1
 850 419 l 1,0,-1
530 627 m 1,12,-1
 815 627 l 1,13,-1
 751 1073 l 1,14,-1
 530 627 l 1,12,-1
EndSplineSet
EndChar

StartChar: uni0467
Encoding: 1127 1127 269
Width: 1121
Flags: W
LayerCount: 2
Back
Fore
SplineSet
664 269 m 1,0,-1
 578 269 l 1,1,-1
 533 0 l 1,2,-1
 345 0 l 1,3,-1
 399 272 l 1,4,-1
 337 271 l 1,5,-1
 196 0 l 1,6,-1
 -105 0 l 1,7,-1
 480 1082 l 1,8,-1
 770 1082 l 1,9,-1
 979 0 l 1,10,-1
 710 0 l 1,11,-1
 664 269 l 1,0,-1
426 459 m 1,12,-1
 628 456 l 1,13,-1
 589 683 l 1,14,-1
 585 790 l 1,15,-1
 528 651 l 1,16,-1
 426 459 l 1,12,-1
EndSplineSet
EndChar

StartChar: uni0468
Encoding: 1128 1128 270
Width: 1868
Flags: W
LayerCount: 2
Back
Fore
SplineSet
439 626 m 1,0,-1
 754 626 l 1,1,-1
 1183 1456 l 1,2,-1
 1487 1456 l 1,3,-1
 1730 0 l 1,4,-1
 1434 0 l 1,5,-1
 1374 419 l 1,6,-1
 1277 419 l 1,7,-1
 1204 0 l 1,8,-1
 959 0 l 1,9,-1
 1033 419 l 1,10,-1
 959 419 l 1,11,-1
 751 0 l 1,12,-1
 432 0 l 1,13,-1
 648 419 l 1,14,-1
 404 419 l 1,15,-1
 331 0 l 1,16,-1
 38 0 l 1,17,-1
 290 1456 l 1,18,-1
 583 1456 l 1,19,-1
 439 626 l 1,0,-1
1060 627 m 1,20,-1
 1343 627 l 1,21,-1
 1279 1071 l 1,22,-1
 1060 627 l 1,20,-1
EndSplineSet
EndChar

StartChar: uni0469
Encoding: 1129 1129 271
Width: 1596
Flags: W
LayerCount: 2
Back
Fore
SplineSet
380 456 m 1,0,-1
 616 456 l 1,1,-1
 955 1082 l 1,2,-1
 1243 1082 l 1,3,-1
 1454 0 l 1,4,-1
 1178 0 l 1,5,-1
 1133 269 l 1,6,-1
 1054 269 l 1,7,-1
 1007 0 l 1,8,-1
 819 0 l 1,9,-1
 874 272 l 1,10,-1
 810 271 l 1,11,-1
 670 0 l 1,12,-1
 367 0 l 1,13,-1
 518 267 l 1,14,-1
 346 269 l 1,15,-1
 301 0 l 1,16,-1
 17 0 l 1,17,-1
 205 1082 l 1,18,-1
 489 1082 l 1,19,-1
 380 456 l 1,0,-1
900 459 m 1,20,-1
 1102 456 l 1,21,-1
 1063 683 l 1,22,-1
 1059 790 l 1,23,-1
 1003 651 l 1,24,-1
 900 459 l 1,20,-1
EndSplineSet
EndChar

StartChar: uni046A
Encoding: 1130 1130 272
Width: 1741
Flags: W
LayerCount: 2
Back
Fore
SplineSet
1176 794 m 1,0,1
 1384 790 1384 790 1492.5 666 c 128,-1,2
 1601 542 1601 542 1577 336 c 1,3,-1
 1522 0 l 1,4,-1
 1229 0 l 1,5,-1
 1284 337 l 2,6,7
 1298 445 1298 445 1259 497 c 128,-1,8
 1220 549 1220 549 1111 554 c 2,9,-1
 1018 555 l 1,10,-1
 921 0 l 1,11,-1
 628 0 l 1,12,-1
 725 555 l 1,13,-1
 639 557 l 2,14,15
 510 557 510 557 440.5 505 c 128,-1,16
 371 453 371 453 351 342 c 2,17,-1
 294 0 l 1,18,-1
 1 0 l 1,19,-1
 55 336 l 1,20,21
 84 564 84 564 230.5 681 c 128,-1,22
 377 798 377 798 650 800 c 1,23,-1
 409 1455 l 1,24,-1
 1667 1456 l 1,25,-1
 1176 794 l 1,0,1
917 848 m 1,26,-1
 1167 1208 l 1,27,-1
 799 1210 l 1,28,-1
 917 848 l 1,26,-1
EndSplineSet
EndChar

StartChar: uni046B
Encoding: 1131 1131 273
Width: 1467
Flags: W
LayerCount: 2
Back
Fore
SplineSet
983 603 m 1,0,1
 1140 583 1140 583 1216 470.5 c 128,-1,2
 1292 358 1292 358 1274 181 c 1,3,-1
 1247 0 l 1,4,-1
 964 0 l 1,5,-1
 995 208 l 1,6,-1
 997 265 l 1,7,8
 994 327 994 327 960 357.5 c 128,-1,9
 926 388 926 388 846 393 c 1,10,-1
 770 0 l 1,11,-1
 488 0 l 1,12,-1
 562 395 l 1,13,-1
 517 394 l 1,14,15
 352 381 352 381 317 199 c 1,16,-1
 285 0 l 1,17,-1
 3 0 l 1,18,-1
 31 181 l 1,19,20
 57 383 57 383 170 487.5 c 128,-1,21
 283 592 283 592 484 611 c 1,22,-1
 308 1081 l 1,23,-1
 1344 1082 l 1,24,-1
 983 603 l 1,0,1
732 633 m 1,25,-1
 905 889 l 1,26,-1
 657 891 l 1,27,-1
 732 633 l 1,25,-1
EndSplineSet
EndChar

StartChar: uni046C
Encoding: 1132 1132 274
Width: 2320
Flags: W
LayerCount: 2
Back
Fore
SplineSet
580 0 m 1,0,-1
 637 345 l 2,1,2
 660 475 660 475 726 572 c 1,3,-1
 431 568 l 1,4,-1
 333 0 l 1,5,-1
 40 0 l 1,6,-1
 292 1456 l 1,7,-1
 585 1456 l 1,8,-1
 472 804 l 1,9,-1
 1239 804 l 1,10,-1
 988 1455 l 1,11,-1
 2246 1456 l 1,12,-1
 1755 795 l 1,13,14
 1962 791 1962 791 2071 666 c 128,-1,15
 2180 541 2180 541 2156 336 c 1,16,-1
 2101 0 l 1,17,-1
 1808 0 l 1,18,-1
 1863 337 l 2,19,20
 1877 444 1877 444 1838 496.5 c 128,-1,21
 1799 549 1799 549 1690 554 c 2,22,-1
 1597 555 l 1,23,-1
 1501 0 l 1,24,-1
 1208 0 l 1,25,-1
 1304 555 l 1,26,-1
 1217 557 l 2,27,28
 1088 557 1088 557 1018.5 503.5 c 128,-1,29
 949 450 949 450 930 342 c 2,30,-1
 873 0 l 1,31,-1
 580 0 l 1,0,-1
1496 848 m 1,32,-1
 1746 1208 l 1,33,-1
 1378 1210 l 1,34,-1
 1496 848 l 1,32,-1
EndSplineSet
EndChar

StartChar: uni046D
Encoding: 1133 1133 275
Width: 2008
Flags: W
LayerCount: 2
Back
Fore
SplineSet
543 0 m 1,0,-1
 575 186 l 2,1,2
 598 311 598 311 658 404 c 1,3,-1
 377 400 l 1,4,-1
 307 0 l 1,5,-1
 25 0 l 1,6,-1
 213 1082 l 1,7,-1
 495 1082 l 1,8,-1
 414 614 l 1,9,-1
 1035 614 l 1,10,-1
 849 1081 l 1,11,-1
 1886 1082 l 1,12,-1
 1525 603 l 1,13,14
 1679 583 1679 583 1756 471.5 c 128,-1,15
 1833 360 1833 360 1815 181 c 1,16,-1
 1788 0 l 1,17,-1
 1504 0 l 1,18,-1
 1533 182 l 2,19,20
 1539 227 1539 227 1538 265 c 0,21,22
 1535 379 1535 379 1416 391 c 2,23,-1
 1387 393 l 1,24,-1
 1311 0 l 1,25,-1
 1029 0 l 1,26,-1
 1104 395 l 1,27,28
 988 395 988 395 932 346.5 c 128,-1,29
 876 298 876 298 857 199 c 2,30,-1
 825 0 l 1,31,-1
 543 0 l 1,0,-1
1273 632 m 1,32,-1
 1445 889 l 1,33,-1
 1198 891 l 1,34,-1
 1273 632 l 1,32,-1
EndSplineSet
EndChar

StartChar: uni046E
Encoding: 1134 1134 276
Width: 1030
Flags: W
LayerCount: 2
Back
Fore
SplineSet
409 864 m 2,0,1
 518 864 518 864 588.5 915 c 128,-1,2
 659 966 659 966 673 1056 c 0,3,4
 685 1131 685 1131 639 1171.5 c 128,-1,5
 593 1212 593 1212 498 1214 c 2,6,-1
 226 1215 l 1,7,-1
 268 1456 l 1,8,-1
 483 1455 l 2,9,10
 720 1454 720 1454 845 1357.5 c 128,-1,11
 970 1261 970 1261 960 1085 c 0,12,13
 946 848 946 848 682 739 c 1,14,15
 784 695 784 695 838 611.5 c 128,-1,16
 892 528 892 528 885 416 c 0,17,18
 874 215 874 215 722.5 95.5 c 128,-1,19
 571 -24 571 -24 342 -22 c 2,20,-1
 285 -21 l 2,21,22
 226 -23 226 -23 188.5 -50 c 128,-1,23
 151 -77 151 -77 142 -124 c 0,24,25
 126 -202 126 -202 219 -255 c 1,26,-1
 254 -273 l 1,27,-1
 161 -446 l 1,28,29
 31 -410 31 -410 -42 -313.5 c 128,-1,30
 -115 -217 -115 -217 -109 -83 c 0,31,32
 -102 60 -102 60 -1.5 140.5 c 128,-1,33
 99 221 99 221 270 221 c 2,34,-1
 334 220 l 2,35,36
 440 220 440 220 515.5 272.5 c 128,-1,37
 591 325 591 325 605 413 c 0,38,39
 621 513 621 513 564 567.5 c 128,-1,40
 507 622 507 622 385 623 c 2,41,-1
 237 624 l 1,42,-1
 279 865 l 1,43,-1
 409 864 l 2,0,1
672 1786 m 1,44,-1
 839 1927 l 1,45,-1
 1088 1933 l 1,46,-1
 1089 1912 l 1,47,-1
 761 1636 l 1,48,-1
 583 1636 l 1,49,-1
 323 1915 l 1,50,-1
 322 1934 l 1,51,-1
 556 1928 l 1,52,-1
 672 1786 l 1,44,-1
EndSplineSet
EndChar

StartChar: uni046F
Encoding: 1135 1135 277
Width: 1010
GlyphClass: 2
Flags: W
LayerCount: 2
Back
Fore
SplineSet
383 626 m 2,0,1
 477 629 477 629 531 665 c 128,-1,2
 585 701 585 701 596 764 c 0,3,4
 613 864 613 864 437 871 c 1,5,-1
 165 871 l 1,6,-1
 202 1082 l 1,7,-1
 439 1081 l 1,8,9
 659 1076 659 1076 772.5 1003 c 128,-1,10
 886 930 886 930 881 792 c 0,11,12
 874 625 874 625 670 533 c 1,13,14
 754 500 754 500 799 442 c 128,-1,15
 844 384 844 384 842 312 c 0,16,17
 839 157 839 157 704.5 68 c 128,-1,18
 570 -21 570 -21 338 -21 c 2,19,-1
 306 -21 l 1,20,21
 164 -26 164 -26 147 -123 c 0,22,23
 130 -216 130 -216 245 -271 c 1,24,-1
 157 -431 l 1,25,26
 39 -383 39 -383 -27.5 -289 c 128,-1,27
 -94 -195 -94 -195 -90 -83 c 0,28,29
 -85 45 -85 45 7.5 117.5 c 128,-1,30
 100 190 100 190 263 190 c 2,31,-1
 289 190 l 2,32,33
 538 190 538 190 564 322 c 0,34,35
 587 440 587 440 378 447 c 1,36,-1
 205 447 l 1,37,-1
 237 627 l 1,38,-1
 383 626 l 2,0,1
584 1399 m 1,39,-1
 752 1540 l 1,40,-1
 1001 1546 l 1,41,-1
 1001 1525 l 1,42,-1
 674 1249 l 1,43,-1
 496 1249 l 1,44,-1
 235 1527 l 1,45,-1
 235 1547 l 1,46,-1
 468 1541 l 1,47,-1
 584 1399 l 1,39,-1
EndSplineSet
EndChar

StartChar: uni0472
Encoding: 1138 1138 278
Width: 1377
GlyphClass: 2
Flags: W
LayerCount: 2
Back
Fore
SplineSet
610 -20 m 0,0,1
 464 -17 464 -17 353 49 c 128,-1,2
 242 115 242 115 178.5 238.5 c 128,-1,3
 115 362 115 362 105 521 c 0,4,5
 94 685 94 685 140 871 c 128,-1,6
 186 1057 186 1057 288 1198 c 128,-1,7
 390 1339 390 1339 527.5 1409 c 128,-1,8
 665 1479 665 1479 825 1476 c 0,9,10
 970 1473 970 1473 1079.5 1407.5 c 128,-1,11
 1189 1342 1189 1342 1253.5 1217.5 c 128,-1,12
 1318 1093 1318 1093 1327 933 c 0,13,14
 1337 757 1337 757 1289 571 c 128,-1,15
 1241 385 1241 385 1140 249 c 128,-1,16
 1039 113 1039 113 903.5 45 c 128,-1,17
 768 -23 768 -23 610 -20 c 0,0,1
623 225 m 0,18,19
 758 220 758 220 856 319.5 c 128,-1,20
 954 419 954 419 1015 641 c 1,21,-1
 404 641 l 1,22,-1
 397 551 l 1,23,24
 394 399 394 399 452.5 314 c 128,-1,25
 511 229 511 229 623 225 c 0,18,19
812 1229 m 0,26,27
 532 1238 532 1238 419 821 c 1,28,-1
 1031 822 l 1,29,-1
 1037 911 l 1,30,31
 1040 1055 1040 1055 982.5 1140 c 128,-1,32
 925 1225 925 1225 812 1229 c 0,26,27
EndSplineSet
EndChar

